<svg width="1882" height="278" viewBox="0 0 1882 278" fill="none" xmlns="http://www.w3.org/2000/svg">
<path fill-rule="evenodd" clip-rule="evenodd" d="M1858.48 218.418H1882V274.709H1848.45C1824.29 274.709 1805.59 269.34 1792.36 258.595C1779.12 247.857 1772.51 229.415 1772.51 203.276V113.217H1752.46V58.0908H1772.51V5.29316H1838.44V58.0908H1881.62V113.217H1838.44V203.284C1838.44 213.377 1845.12 218.418 1858.48 218.418ZM1590.69 188.142C1591.97 197.723 1596.22 205.554 1603.41 211.626C1610.61 217.707 1618.38 220.747 1626.74 220.747C1635.09 220.747 1641.32 219.909 1645.44 218.226C1649.55 216.542 1652.57 214.867 1654.5 213.175C1656.43 211.492 1658.93 208.711 1662.02 204.825H1733.35C1727.18 226.568 1714.84 244.105 1696.34 257.43C1677.83 270.764 1655.86 277.422 1630.41 277.422C1599.05 277.422 1573.35 267.271 1553.3 246.945C1533.26 226.626 1523.23 199.649 1523.23 166.006C1523.23 132.363 1533.19 105.579 1553.11 85.6454C1573.03 65.7207 1598.8 55.7541 1630.41 55.7541C1662.02 55.7541 1688.24 65.595 1709.06 85.2602C1729.89 104.934 1740.3 132.237 1740.3 167.17C1740.3 174.683 1739.78 181.668 1738.75 188.133H1590.69V188.142ZM1658.55 121.952C1650.83 115.612 1641.71 112.438 1631.17 112.438C1620.63 112.438 1611.76 115.612 1604.56 121.952C1597.37 128.301 1592.87 136.508 1591.07 146.601H1671.65C1670.62 136.508 1666.25 128.301 1658.55 121.952ZM1430.15 0H1496.08V274.717H1430.15V0ZM1321.28 0H1387.21V274.717H1321.28V0ZM1213.18 243.268C1197.25 266.049 1175.92 277.43 1149.18 277.43C1122.45 277.43 1099.58 267.079 1080.56 246.375C1061.53 225.671 1052.03 199.147 1052.03 166.793C1052.03 134.448 1061.54 107.848 1080.56 87.019C1099.58 66.1897 1122.78 55.7709 1150.15 55.7709C1177.53 55.7709 1198.54 65.997 1213.19 86.4411V58.0908H1279.12V274.709H1213.19V243.268H1213.18ZM1198.92 127.002C1189.41 117.815 1178.48 113.217 1166.15 113.217C1153.82 113.217 1142.88 117.873 1133.38 127.195C1123.87 136.508 1119.11 149.708 1119.11 166.793C1119.11 183.879 1123.86 197.011 1133.38 206.199C1142.89 215.387 1153.82 219.976 1166.15 219.976C1178.48 219.976 1189.41 215.32 1198.92 205.998C1208.43 196.685 1213.18 183.485 1213.18 166.4C1213.18 149.314 1208.43 136.19 1198.92 127.002ZM908.44 274.717L861.019 101.96L813.983 274.717H738.41L661.685 2.18594H732.24L779.277 198.234L827.474 2.18594H902.27L948.539 195.127L988.638 2.18594H1059.58L984.004 274.709H908.44V274.717ZM592.283 162.522L662.52 275.261H588.826L521.552 169.716L521.653 169.566L451.022 56.8261H525.944L561.451 113.585L596.574 56.8261H662.52L592.283 162.522ZM398.926 252.129L363.144 195.989C367.085 187.865 369.072 177.891 369.072 166.04C369.072 148.292 364.513 134.791 355.413 125.52C346.305 116.257 335.51 111.625 323.028 111.625C318.629 111.625 314.454 112.212 310.489 113.368L278.012 62.4208C291.787 57.1276 306.924 54.4811 323.421 54.4811C355.672 54.4811 382.663 64.5984 404.395 84.8163C426.11 105.043 436.98 131.986 436.98 165.654C436.98 199.323 426.185 226.467 404.595 247.079C402.742 248.837 400.847 250.521 398.926 252.129ZM277.369 166.048C277.369 183.795 281.986 197.363 291.22 206.76C300.453 216.157 311.315 220.856 323.805 220.856C331.26 220.856 338.056 219.172 344.209 215.822L376.594 266.635C360.957 274.214 343.366 278.008 323.805 278.008C291.545 278.008 264.42 267.698 242.447 247.087C220.456 226.475 209.469 199.331 209.469 165.663C209.469 131.994 220.398 105.051 242.246 84.8246C246.145 81.2233 250.203 77.9402 254.435 74.9753L288.415 128.292C281.059 137.405 277.369 149.984 277.369 166.048ZM55.8278 0.460639H195.026V51.3487H88.2626L55.8278 0.460639ZM66.7313 110.461H166.932V169.725H66.7313V275.261H0V0.460639H24.253L66.7229 67.0942V110.461H66.7313ZM536.814 243.192L516.969 275.261H451.022L505.398 193.896L536.814 243.192Z" fill="black"/>
</svg>
