<svg width="24" height="24" viewBox="0 0 24 24" fill="none" xmlns="http://www.w3.org/2000/svg">
<path d="M6 11.5C6 11.2239 6.22386 11 6.5 11H17.5C17.7761 11 18 11.2239 18 11.5V16C18 17.3062 17.1652 18.4175 16 18.8293V21C16 21.5523 15.5523 22 15 22C14.4477 22 14 21.5523 14 21V19H10V21C10 21.5523 9.55228 22 9 22C8.44772 22 8 21.5523 8 21V18.8293C6.83481 18.4175 6 17.3062 6 16V11.5Z" fill="black"/>
<path d="M3 9C2.44772 9 2 9.44772 2 10V14C2 14.5523 2.44772 15 3 15C3.55228 15 4 14.5523 4 14V10C4 9.44772 3.55228 9 3 9Z" fill="black"/>
<path d="M21 9C20.4477 9 20 9.44772 20 10V14C20 14.5523 20.4477 15 21 15C21.5523 15 22 14.5523 22 14V10C22 9.44772 21.5523 9 21 9Z" fill="black"/>
<path fill-rule="evenodd" clip-rule="evenodd" d="M7.55288 2.10579C8.04686 1.8588 8.64753 2.05903 8.89452 2.55301L9.41095 3.58586C10.1948 3.21032 11.0729 3 12.0001 3C12.9273 3 13.8054 3.21032 14.5893 3.58586L15.1057 2.55301C15.3527 2.05903 15.9534 1.8588 16.4474 2.10579C16.9413 2.35278 17.1416 2.95345 16.8946 3.44743L16.2407 4.75526C17.2174 5.73103 17.8594 7.04179 17.9796 8.50048C18.0023 8.77569 17.7763 9 17.5001 9H6.50012C6.22397 9 5.99793 8.77569 6.02061 8.50048C6.14084 7.04179 6.78285 5.73103 7.75958 4.75526L7.10566 3.44743C6.85867 2.95345 7.0589 2.35278 7.55288 2.10579Z" fill="black"/>
</svg>
