<svg width="24" height="24" viewBox="0 0 24 24" fill="none" xmlns="http://www.w3.org/2000/svg">
<g clip-path="url(#clip0_2175_72192)">
<path d="M3.92554 0L18.2977 9.0835L15.6262 11.771L3.92554 0Z" fill="#6EEB85"/>
<path d="M15.6025 12.1855L18.2726 14.8717L3.8573 24L15.6025 12.1855Z" fill="#EA4C4C"/>
<path d="M18.5162 9.31055L21.5413 11.0737C22.0563 11.3749 22.2317 12.0373 21.9324 12.5555C21.8378 12.7193 21.7027 12.8552 21.5413 12.949L18.5148 14.7122L15.8308 12.0121L18.5162 9.31055Z" fill="#F8D047"/>
<path d="M3.5872 0.123047L15.4007 12.0103L3.5872 23.899C3.15704 23.7169 2.87862 23.294 2.88001 22.8248V1.19721C2.88001 0.729454 3.15843 0.30651 3.5872 0.123047Z" fill="#5ED3FA"/>
</g>
<defs>
<clipPath id="clip0_2175_72192">
<rect width="24" height="24" fill="white"/>
</clipPath>
</defs>
</svg>
