<svg width="280" height="44" viewBox="0 0 280 44" fill="none" xmlns="http://www.w3.org/2000/svg">
<path d="M272.742 43.5126C269.281 43.5126 266.628 42.5628 264.782 40.6624C262.937 38.762 262.013 36.0617 262.013 32.5602V20.2087H257.024V16.7251L262.013 15.5902V8.91308C265.327 7.9377 268.647 10.4211 268.647 13.8748V32.7975C268.647 34.5919 269.07 36.0349 269.916 37.1258C270.762 38.2166 271.867 38.762 273.233 38.762C273.867 38.762 274.53 38.7091 275.222 38.6038C275.934 38.4807 276.79 38.2696 277.789 37.9704L279.289 42.1928C277.847 42.6329 276.626 42.9583 275.626 43.1694C274.646 43.3978 273.684 43.5126 272.742 43.5126ZM276.088 20.2087C275.049 20.2087 274.175 19.9804 273.463 19.5223C272.752 19.0471 272.165 18.4577 271.704 17.754C271.262 17.0504 270.916 16.3289 270.666 15.5902H278.943V20.2087H276.088Z" fill="white"/>
<path d="M244.991 43.5139C242.568 43.5139 240.435 43.1095 238.589 42.2999C236.743 41.4904 235.205 40.3996 233.974 39.0274C232.744 37.6552 231.821 36.0981 231.206 34.3559C230.59 32.5965 230.283 30.7663 230.283 28.8666C230.283 25.9813 230.917 23.5004 232.186 21.424C233.455 19.3482 235.195 17.7553 237.406 16.6472C239.637 15.5213 242.165 14.958 244.991 14.958C247.068 14.958 248.933 15.3542 250.586 16.1458C252.24 16.9196 253.585 18.0022 254.624 19.3922C255.662 20.7644 256.296 22.3745 256.527 24.2219C256.777 26.0693 256.518 28.0488 255.749 30.1603H239.367C239.771 29.0344 240.357 28.0839 241.127 27.3101C241.915 26.5356 242.886 26.1491 244.039 26.1491H250.009C250.164 24.9702 250.029 23.8793 249.606 22.8765C249.202 21.8737 248.558 21.0731 247.674 20.4747C246.789 19.8764 245.741 19.5772 244.53 19.5772C243.261 19.5772 242.069 19.9115 240.954 20.58C239.839 21.2307 238.935 22.2341 238.243 23.5884C237.57 24.9434 237.233 26.6588 237.233 28.7345C237.233 30.7753 237.589 32.5436 238.3 34.0395C239.031 35.5348 240.04 36.6875 241.328 37.497C242.617 38.3066 244.098 38.711 245.77 38.711C247.096 38.711 248.385 38.57 249.635 38.2887C250.904 37.9895 252.365 37.4792 254.018 36.7583L255.807 41.1396C253.826 42.0193 251.932 42.6348 250.125 42.987C248.337 43.3378 246.626 43.5139 244.991 43.5139Z" fill="white"/>
<path d="M219.785 42.8794V2.86963C223.624 2.86963 226.735 5.98141 226.735 9.82042V42.8794H219.785Z" fill="white"/>
<path d="M207.586 42.8794V2.86963C211.424 2.86963 214.536 5.98141 214.536 9.81978V42.8794H207.586Z" fill="white"/>
<path d="M187.247 43.5134C185.344 43.5134 183.7 43.1613 182.315 42.4577C180.931 41.7362 179.865 40.7863 179.114 39.6074C178.384 38.4107 178.018 37.1176 178.018 35.7276C178.018 34.1443 178.499 32.7281 179.461 31.4784C180.441 30.2115 182.085 29.1647 184.393 28.3379C186.699 27.5112 189.862 26.93 193.88 26.5964C193.766 27.2649 193.563 27.9245 193.275 28.5759C192.987 29.2272 192.564 29.7898 192.006 30.2651C191.468 30.7225 190.756 31.0216 189.872 31.1626C188.622 31.3387 187.641 31.6289 186.93 32.0334C186.219 32.4378 185.709 32.9131 185.402 33.4585C185.113 34.0039 184.969 34.5755 184.969 35.1739C184.969 36.1595 185.344 36.9951 186.094 37.6809C186.863 38.3673 187.834 38.7105 189.007 38.7105C190.199 38.7105 191.391 38.3852 192.583 37.7338C193.794 37.0653 194.919 36.1416 195.957 34.9627V26.2532C195.957 24.3177 195.4 22.7695 194.284 21.6085C193.188 20.4296 191.516 19.8402 189.266 19.8402C188.286 19.8402 187.257 19.9371 186.181 20.1304C185.123 20.3065 183.902 20.6229 182.518 21.0803C181.529 18.6874 183.002 15.9929 185.55 15.5316C185.693 15.5055 185.836 15.4813 185.978 15.4589C187.651 15.1776 189.151 15.0366 190.478 15.0366C194.419 15.0366 197.457 16.0222 199.591 17.9927C201.745 19.9454 202.821 22.7523 202.821 26.4114V35.3053C202.821 36.7132 202.898 38.0503 203.052 39.3165C203.205 40.5656 203.436 41.7534 203.744 42.8793H198.582C198.063 42.598 197.64 42.2197 197.312 41.7445C196.986 41.2692 196.707 40.7589 196.476 40.2134L196.361 39.2106L195.668 40.1343C194.054 41.5244 192.602 42.4392 191.314 42.8793C190.045 43.3023 188.69 43.5134 187.247 43.5134Z" fill="white"/>
<path d="M133.095 42.8798L121.444 4.50635H123.059C126.279 4.50635 129.101 6.65678 129.956 9.7609L136.584 33.8277L137.045 36.625L137.68 33.8277L145.726 5.03455H147.024C150.891 5.03455 154.28 7.6194 155.304 11.348L161.474 33.8277L162.051 36.625L162.512 33.933L170.587 4.50635C174.02 4.50635 176.479 7.81843 175.487 11.1044L165.887 42.8798H158.388L150.053 14.0075L149.563 11.8169L149.102 13.9284L140.766 42.8798H133.095Z" fill="white"/>
<path d="M95.3735 42.8798L70.2828 4.50635H74.3368C76.826 4.50635 79.1276 5.83003 80.3792 7.98238L86.0006 17.6494L86.5485 19.1536L87.0098 17.6494L94.6814 4.50635H102.612L90.1821 23.2708L103.275 42.8798H95.3735ZM69.6194 42.8798L81.0688 25.6196C81.5491 26.2001 82.0301 26.9656 82.5105 27.9155C82.9915 28.8481 83.299 29.842 83.4336 30.8978C83.5682 31.9535 83.3468 32.9563 82.7701 33.9062L77.3197 42.8792H69.6194V42.8798Z" fill="white"/>
<path fill-rule="evenodd" clip-rule="evenodd" d="M57.041 6.41642C54.6355 5.1429 52.8094 2.90582 52.0884 0.217285C51.8661 1.03934 51.7515 1.90183 51.7515 2.79127C51.7515 3.48531 51.8256 4.15913 51.9604 4.81273C51.9604 4.81273 51.9604 4.81273 51.9604 4.81947C51.9604 4.82621 51.9671 4.83968 51.9671 4.84642C52.1491 5.72239 52.4455 6.55119 52.8431 7.31934C51.9941 6.69269 51.2394 5.94475 50.606 5.10247C49.757 11.6857 52.1491 18.5384 56.5222 23.053C62.2294 29.6969 56.9669 40.9699 48.0725 40.6734C35.4855 40.7812 33.3293 22.2444 45.4041 19.3335L45.3974 19.2998C48.6182 18.2554 50.1276 16.1598 50.3904 13.4376C45.741 17.2043 38.3964 12.5347 39.9192 6.68595C22.4673 15.2771 28.9495 43.1463 48.7328 42.8027C57.3509 42.8027 64.6417 37.1021 67.0337 29.2656C69.8907 20.1286 65.2683 10.392 57.041 6.41642Z" fill="white"/>
<path d="M0.710938 42.8798V15.9188C0.710938 9.61609 5.82068 4.50635 12.1233 4.50635H25.3691C25.3691 8.21586 22.362 11.2237 18.6518 11.2237H14.6087C10.8992 11.2237 7.89138 14.2308 7.89138 17.941V42.8805H0.710938V42.8798ZM10.0839 25.0921C10.334 24.3706 10.6797 23.6491 11.1218 22.9282C11.583 22.1895 12.1699 21.5822 12.8812 21.107C13.6116 20.6317 14.4964 20.3944 15.5343 20.3944H23.4082V25.0921H10.0839Z" fill="white"/>
</svg>
