<svg width="30" height="30" viewBox="0 0 30 30" fill="none" xmlns="http://www.w3.org/2000/svg">
<rect width="30" height="30" rx="4" fill="#12FE74"/>
<path d="M16.5417 9.85254L15.1243 14.9991H14.8771L13.4597 9.85254H16.5417Z" fill="black"/>
<path d="M15 11.1448C15.8652 11.1448 16.5666 10.4409 16.5666 9.57262C16.5666 8.70436 15.8652 8.00049 15 8.00049C14.1348 8.00049 13.4333 8.70436 13.4333 9.57262C13.4333 10.4409 14.1348 11.1448 15 11.1448Z" fill="#12FE74" stroke="black" stroke-width="0.892928"/>
<path d="M11.3284 11.0874L15.0614 14.8922L14.9386 15.1066L9.78809 13.7663L11.3284 11.0874Z" fill="black"/>
<path d="M10.3162 13.8586C11.1814 13.8586 11.8828 13.1548 11.8828 12.2865C11.8828 11.4182 11.1814 10.7144 10.3162 10.7144C9.45092 10.7144 8.74951 11.4182 8.74951 12.2865C8.74951 13.1548 9.45092 13.8586 10.3162 13.8586Z" fill="#12FE74" stroke="black" stroke-width="0.892928"/>
<path d="M9.78809 16.2343L14.9386 14.8926L15.0614 15.1084L11.3284 18.9132L9.78809 16.2343Z" fill="black"/>
<path d="M10.3162 19.2854C11.1814 19.2854 11.8828 18.5815 11.8828 17.7132C11.8828 16.845 11.1814 16.1411 10.3162 16.1411C9.45092 16.1411 8.74951 16.845 8.74951 17.7132C8.74951 18.5815 9.45092 19.2854 10.3162 19.2854Z" fill="#12FE74" stroke="black" stroke-width="0.892928"/>
<path d="M13.4597 20.1475L14.8771 15.001H15.1243L16.5417 20.1475H13.4597Z" fill="black"/>
<path d="M15 21.9997C15.8652 21.9997 16.5666 21.2959 16.5666 20.4276C16.5666 19.5593 15.8652 18.8555 15 18.8555C14.1348 18.8555 13.4333 19.5593 13.4333 20.4276C13.4333 21.2959 14.1348 21.9997 15 21.9997Z" fill="#12FE74" stroke="black" stroke-width="0.892928"/>
<path d="M18.6717 18.9127L14.9387 15.1079L15.063 14.8936L20.2135 16.2338L18.6717 18.9127Z" fill="black"/>
<path d="M19.6839 19.2854C20.5491 19.2854 21.2505 18.5815 21.2505 17.7132C21.2505 16.845 20.5491 16.1411 19.6839 16.1411C18.8187 16.1411 18.1172 16.845 18.1172 17.7132C18.1172 18.5815 18.8187 19.2854 19.6839 19.2854Z" fill="#12FE74" stroke="black" stroke-width="0.892928"/>
<path d="M20.2135 13.7663L15.063 15.108L14.9387 14.8922L18.6717 11.0874L20.2135 13.7663Z" fill="black"/>
<path d="M19.6839 13.8586C20.5491 13.8586 21.2505 13.1548 21.2505 12.2865C21.2505 11.4182 20.5491 10.7144 19.6839 10.7144C18.8187 10.7144 18.1172 11.4182 18.1172 12.2865C18.1172 13.1548 18.8187 13.8586 19.6839 13.8586Z" fill="#12FE74" stroke="black" stroke-width="0.892928"/>
<path d="M15 16.571C15.8652 16.571 16.5666 15.8672 16.5666 14.9989C16.5666 14.1306 15.8652 13.4268 15 13.4268C14.1348 13.4268 13.4333 14.1306 13.4333 14.9989C13.4333 15.8672 14.1348 16.571 15 16.571Z" fill="#12FE74" stroke="black" stroke-width="0.892928"/>
</svg>
