<svg width="24" height="24" viewBox="0 0 24 24" fill="none" xmlns="http://www.w3.org/2000/svg">
<path d="M11.2262 1.94507C11.6263 1.45639 12.3737 1.45639 12.7738 1.94507L13.7656 3.15652C14.0375 3.48867 14.4911 3.61021 14.8927 3.45853L16.3574 2.9053C16.9482 2.68214 17.5954 3.05579 17.6976 3.67905L17.9508 5.22412C18.0202 5.64774 18.3523 5.97978 18.7759 6.04921L20.3209 6.30245C20.9442 6.4046 21.3179 7.05179 21.0947 7.64263L20.5415 9.10731C20.3898 9.50889 20.5113 9.96247 20.8435 10.2344L22.0549 11.2262C22.5436 11.6263 22.5436 12.3737 22.0549 12.7738L20.8435 13.7656C20.5113 14.0375 20.3898 14.4911 20.5415 14.8927L21.0947 16.3574C21.3179 16.9482 20.9442 17.5954 20.3209 17.6976L18.7759 17.9508C18.3523 18.0202 18.0202 18.3523 17.9508 18.7759L17.6976 20.3209C17.5954 20.9442 16.9482 21.3179 16.3574 21.0947L14.8927 20.5415C14.4911 20.3898 14.0375 20.5113 13.7656 20.8435L12.7738 22.0549C12.3737 22.5436 11.6263 22.5436 11.2262 22.0549L10.2344 20.8435C9.96247 20.5113 9.50889 20.3898 9.10731 20.5415L7.64262 21.0947C7.05179 21.3179 6.4046 20.9442 6.30245 20.3209L6.04921 18.7759C5.97978 18.3523 5.64774 18.0202 5.22412 17.9508L3.67905 17.6976C3.05579 17.5954 2.68214 16.9482 2.9053 16.3574L3.45853 14.8927C3.61021 14.4911 3.48867 14.0375 3.15652 13.7656L1.94507 12.7738C1.45639 12.3737 1.45639 11.6263 1.94507 11.2262L3.15652 10.2344C3.48867 9.96247 3.61021 9.50889 3.45853 9.10731L2.9053 7.64262C2.68214 7.05179 3.05579 6.4046 3.67905 6.30245L5.22412 6.04921C5.64774 5.97978 5.97978 5.64774 6.04921 5.22412L6.30245 3.67905C6.4046 3.05579 7.05179 2.68214 7.64263 2.9053L9.10731 3.45853C9.50889 3.61021 9.96247 3.48867 10.2344 3.15652L11.2262 1.94507Z" stroke="black" stroke-linejoin="round"/>
<path d="M6.5 11.5L10.5 15.5L17.5 8.5" stroke="black" stroke-linejoin="round"/>
</svg>
