<svg width="24" height="24" viewBox="0 0 24 24" fill="none" xmlns="http://www.w3.org/2000/svg">
<path d="M6 22H18C19.1046 22 20 21.1046 20 20V8.91987C20 8.33602 19.7449 7.78132 19.3016 7.40136L13.5617 2.48149C13.1992 2.17078 12.7376 2 12.2602 2H6C4.89543 2 4 2.89543 4 4V20C4 21.1046 4.89543 22 6 22Z" stroke="black" stroke-linejoin="round"/>
<path d="M13 2.5V6C13 7.10457 13.8954 8 15 8H19.5" stroke="black" stroke-linejoin="round"/>
<path d="M8.58579 16.4142L14 11L16 12.8438L10.5887 18.3959C10.2123 18.7822 9.69582 19 9.15647 19H8V17.8284C8 17.298 8.21071 16.7893 8.58579 16.4142Z" stroke="black" stroke-linejoin="round"/>
</svg>
