<svg width="22" height="22" viewBox="0 0 22 22" fill="none" xmlns="http://www.w3.org/2000/svg">
<path d="M2 0C0.89543 0 0 0.895431 0 2V22L22 0H2ZM7.16774 12.3839L3.0871 11.6032L3.05161 11.6387L5.46452 14.0516L5.00323 14.5484L1.77419 11.3194L2.27097 10.8226L6.31613 11.5677L6.35161 11.5323L3.93871 9.11935L4.43548 8.62258L7.66452 11.8516L7.16774 12.3839ZM8.30323 11.2484L5.07419 8.01935L7.38065 5.7129L7.80645 6.13871L5.99677 7.94839L6.91935 8.87097L8.62258 7.16774L9.04839 7.59355L7.34516 9.29677L8.37419 10.3258L10.2903 8.40968L10.7161 8.83548L8.30323 11.2484ZM12.3484 7.20323L11.8161 7.73548L7.66452 5.42903L8.23226 4.86129L11.3548 6.74194L11.3903 6.70645L9.54516 3.54839L10.0774 3.01613L13.2355 4.86129L13.271 4.82581L11.3548 1.73871L11.9226 1.17097L14.1935 5.35806L13.6613 5.89032L10.5032 4.04516L10.4677 4.08065L12.3484 7.20323Z" fill="#23262F"/>
</svg>
