<svg width="53" height="60" viewBox="0 0 53 60" fill="none" xmlns="http://www.w3.org/2000/svg">
<g clip-path="url(#clip0_490_202)">
<path d="M3.31005 3.76159H8.26464V19.3392C8.26726 20.0921 8.67054 20.7694 9.28855 21.0559C9.90657 21.3425 10.6189 21.1835 11.0902 20.6495L14.5024 16.8098L17.9172 20.6521C18.3912 21.1862 19.1008 21.3451 19.7215 21.0585C20.3395 20.772 20.7428 20.0921 20.7428 19.3392V3.76159H46.3302V39.2333H49.6402V2.64406C49.6402 1.20352 48.6032 0.036499 47.3226 0.036499H2.31756C1.70216 0.036499 1.11295 0.31002 0.678245 0.799752C0.24354 1.28948 0 1.95375 0 2.64406V57.0043C0 58.4449 1.03701 59.6119 2.31756 59.6119H21.5677V55.8894H3.31005V3.76159ZM11.5721 3.76159H17.4327V14.8457L15.7672 12.9701C15.7332 12.9336 15.7253 12.8815 15.6913 12.8399C15.0288 12.1157 13.9734 12.1157 13.3083 12.8399C13.2742 12.8763 13.2664 12.9284 13.2349 12.9701L11.5694 14.8457V3.76159H11.5721Z" fill="#585959"/>
<path d="M8.26464 24.906H41.1504V28.6285H8.26464V24.906ZM8.3144 40.5957H24.4509L22.2093 37.5192C21.6934 36.7898 21.7012 35.628 22.225 34.909C22.7487 34.1901 23.5972 34.1797 24.1288 34.8856L28.7377 41.2C29.2641 41.9476 29.2614 43.1329 28.7325 43.8779L24.1235 50.1975C23.5919 50.9035 22.7435 50.8931 22.2197 50.1741C21.696 49.4551 21.6881 48.2959 22.204 47.5639L24.5713 44.3182H8.3144C7.56545 44.3182 6.95529 43.4846 6.95529 42.4556C6.95529 41.4293 7.56545 40.5957 8.3144 40.5957Z" fill="#585959"/>
<path d="M51.578 49.8746H34.6822L37.0285 46.7982C37.568 46.0688 37.5601 44.907 37.0102 44.188C36.4603 43.469 35.5751 43.4586 35.0173 44.1645L30.1911 50.479C29.6385 51.2266 29.6411 52.4118 30.1963 53.1569L35.0226 59.4765C35.5804 60.1824 36.4681 60.172 37.0154 59.453C37.5653 58.7341 37.5706 57.5749 37.0337 56.8429L34.5538 53.5971H51.578C52.3637 53.5971 53 52.7635 53 51.7346C53 50.7082 52.3637 49.8746 51.578 49.8746Z" fill="#EC6819"/>
</g>
<defs>
<clipPath id="clip0_490_202">
<rect width="53" height="60" fill="white"/>
</clipPath>
</defs>
</svg>
