<svg width="80" height="51" viewBox="0 0 80 51" fill="none" xmlns="http://www.w3.org/2000/svg">
<g clip-path="url(#clip0_490_192)">
<path d="M79.8958 27.217C79.3832 21.7859 76.9979 16.9439 73.4484 13.4586C69.8989 9.97134 65.1874 7.84284 60.0225 7.83873C49.0064 7.83873 40.047 17.5186 40.047 29.4194C40.047 30.5052 40.9905 31.3816 42.1505 31.3816C43.3105 31.3816 44.2541 30.5052 44.2541 29.4194C44.2541 20.815 49.7784 13.6331 57.0653 12.0793C57.1653 12.0732 57.2654 12.065 57.3655 12.0444C58.3172 11.8597 59.1892 11.7714 60.0286 11.7714C64.1029 11.7714 67.8199 13.51 70.6198 16.3589C73.7935 19.5917 75.7888 24.249 75.7888 29.4194C75.7888 29.4543 75.7929 29.4912 75.795 29.5261C75.748 39.2183 68.696 47.0837 60.0286 47.0837H16.4158C9.69672 47.0837 4.22343 40.924 4.22343 33.35C4.22343 25.7761 9.68651 19.6163 16.4158 19.6163C17.488 19.6163 18.5765 19.7846 19.6549 20.1233C20.1981 20.2916 20.7985 20.2526 21.3111 19.994C21.8238 19.7374 22.1995 19.3023 22.3507 18.7809C24.9668 9.89745 32.3496 3.92245 40.7271 3.92245C42.4385 3.92245 44.1438 4.17902 45.7919 4.67779C46.9029 5.01646 48.0874 4.45201 48.4489 3.42367C48.8104 2.39534 48.2018 1.2849 47.0969 0.948283C45.024 0.322252 42.8796 0 40.7189 0C31.0303 0 22.4712 6.31163 18.8951 15.9032C18.0639 15.7657 17.2307 15.6939 16.4076 15.6939C7.36036 15.6939 0 23.6065 0 33.3418C0 43.0771 7.36036 50.9979 16.4076 50.9979H60.0143C71.0385 50.9979 79.998 41.3099 79.998 29.4173C80 28.6763 79.9632 27.9415 79.8958 27.217Z" fill="#585959"/>
<path d="M42.1444 33.7359C41.7359 33.7359 41.3275 33.623 40.968 33.3973L30.9609 27.1267C29.9929 26.5232 29.7376 25.3019 30.3931 24.4009C31.0405 23.4998 32.3456 23.2597 33.3136 23.8693L42.1464 29.4091L50.9793 23.8693C51.9391 23.2658 53.2503 23.4998 53.8997 24.4009C54.5471 25.3019 54.2918 26.515 53.332 27.1267L43.3248 33.4055C42.9674 33.6251 42.5508 33.7359 42.1444 33.7359Z" fill="#EC6819"/>
</g>
<defs>
<clipPath id="clip0_490_192">
<rect width="80" height="51" fill="white"/>
</clipPath>
</defs>
</svg>
