<svg width="113" height="96" viewBox="0 0 113 96" fill="none" xmlns="http://www.w3.org/2000/svg">
<path d="M70.5068 59.951V62.8045H44.0429V59.951H70.5068ZM54.6189 78.4956H58.192V82.0346H54.6189V78.4956ZM54.6189 71.5121H58.192V75.0493H54.6189V71.5121ZM54.6189 87.2487H58.192V90.7859H54.6189V87.2487ZM54.6189 54.8989H58.192V58.4361H54.6189V54.8989ZM54.6189 48.7919H58.192V52.3291H54.6189V48.7919ZM54.6189 43.6707H58.192V47.2079H54.6189V43.6707ZM54.6189 64.5267H58.192V68.0658H54.6189V64.5267ZM42.3041 82.0328H3.57308C2.62564 82.0328 1.71677 81.66 1.04659 80.998C0.376403 80.3342 0 79.434 0 78.4956V50.5614C0.0514112 48.6446 1.63598 47.1151 3.57308 47.1151H42.3041C44.2779 47.1151 45.8772 48.6992 45.8772 50.6542V78.5883C45.8257 80.5052 44.2412 82.0328 42.3041 82.0328ZM3.57308 50.5614V78.4956H42.3041V50.5614H3.57308Z" fill="#34303D"/>
<path d="M15.8877 80.2634H19.4608V89.0165H15.8877V80.2634ZM26.416 80.2634H29.9891V89.0165H26.416V80.2634Z" fill="#34303D"/>
<path d="M12.3149 87.2468H33.467V90.7859H12.3149V87.2468ZM14.1015 71.5102H17.6746V75.0493H14.1015V71.5102ZM21.1522 71.5102H24.7252V75.0493H21.1522V71.5102ZM28.2028 71.5102H31.7741V75.0493H28.2028V71.5102ZM109.333 82.0328H70.5069C68.6065 81.9856 67.0771 80.4706 67.0275 78.5884V50.6542C67.0789 48.7374 68.6635 47.2079 70.6006 47.2097H109.427C110.374 47.2097 111.283 47.5825 111.954 48.2463C112.624 48.9101 113 49.8104 113 50.7488V78.6829C112.897 80.5979 111.271 82.0856 109.333 82.0328ZM70.5069 50.5615V78.4956H109.333V50.5615H70.5069Z" fill="#34303D"/>
<path d="M82.8218 80.2634H86.3949V89.0165H82.8218V80.2634ZM93.4455 80.2634H97.0168V89.0165H93.4455V80.2634Z" fill="#34303D"/>
<path d="M79.3442 87.2469H100.496V90.786H79.3442V87.2469ZM81.1307 71.5103H84.7038V75.0494H81.1307V71.5103ZM88.0859 71.5103H91.659V75.0494H88.0859V71.5103ZM95.2321 71.5103H98.8052V75.0494H95.2321V71.5103ZM75.7711 34.8249H37.0401C35.1397 34.7758 33.6121 33.2627 33.5625 31.3786V3.4463C33.6121 1.52765 35.1966 0 37.1337 0H75.9602C76.9077 0 77.8165 0.372819 78.4867 1.03662C79.1569 1.70042 79.5333 2.60064 79.5333 3.53905V31.4732C79.4837 32.4116 79.0614 33.2937 78.3564 33.9229C77.6476 34.5503 76.7185 34.8759 75.7711 34.8249ZM37.0401 3.4463V31.3805H75.8666V3.4463H37.0401Z" fill="#34303D"/>
<path d="M49.355 33.1482H52.9281V41.9013H49.355V33.1482ZM59.9787 33.1482H63.5518V41.9013H59.9787V33.1482Z" fill="#34303D"/>
<path d="M45.877 40.1316H67.029V43.6707H45.877V40.1316ZM47.568 24.395H51.1411V27.8413H47.568V24.395ZM54.6187 24.395H58.1918V27.8413H54.6187V24.395ZM61.6694 24.395H65.2425V27.8413H61.6694V24.395Z" fill="#34303D"/>
</svg>
