<svg width="77" height="87" viewBox="0 0 77 87" fill="none" xmlns="http://www.w3.org/2000/svg">
<path d="M1.83126 72.8197C0.819705 72.8197 0 71.9849 0 70.9548V18.7244C0 18.2298 0.192718 17.7556 0.536297 17.4057C0.879875 17.0558 1.34554 16.8595 1.83126 16.8595H20.7159L31.461 6.19678C31.8028 5.85755 32.2606 5.66751 32.7376 5.66751H42.1285C43.1401 5.66751 43.9606 6.50227 43.9606 7.5324C43.9606 8.56253 43.1401 9.39818 42.1285 9.39818H33.4832L22.739 20.0601C22.3963 20.4011 21.9358 20.5911 21.4571 20.5893H3.66339V70.9539C3.66339 71.4486 3.47067 71.9228 3.12709 72.2727C2.78351 72.6235 2.31698 72.8197 1.83126 72.8197ZM75.0999 72.8197H10.9902C10.5044 72.8197 10.0388 72.6234 9.6952 72.2736C9.35162 71.9237 9.1589 71.4494 9.1589 70.9548V28.0516C9.1589 27.5569 9.35162 27.0827 9.6952 26.7328C10.0388 26.3829 10.5044 26.1867 10.9902 26.1867H42.1294C43.1409 26.1867 43.9615 27.0223 43.9615 28.0525C43.9615 29.0826 43.1409 29.9174 42.1294 29.9174H12.8214V69.0899H73.2677V39.2436C73.2677 38.2135 74.0874 37.3778 75.099 37.3778C76.1105 37.3778 76.9302 38.2135 76.9302 39.2436V70.9548C76.9311 71.9849 76.1114 72.8197 75.0999 72.8197ZM65.3279 51.9053H19.4488C18.4373 51.9053 17.6176 51.0697 17.6176 50.0396V38.3591C17.6176 37.329 18.4373 36.4933 19.4488 36.4933H65.3279C66.3395 36.4933 67.1592 37.329 67.1592 38.3591V50.0396C67.1592 51.0697 66.3395 51.9053 65.3279 51.9053ZM21.2827 48.1747H63.4967V40.2249H21.2809V48.1747H21.2827ZM54.0264 65.1061H29.4902C29.0045 65.1061 28.5388 64.909 28.1944 64.56C27.8508 64.2101 27.6581 63.7359 27.6581 63.2412V57.572C27.6581 57.0773 27.8508 56.6031 28.1944 56.2532C28.538 55.9033 29.0036 55.7071 29.4902 55.7071H54.0352C54.5209 55.7071 54.9865 55.9033 55.3301 56.2532C55.6737 56.6031 55.8664 57.0773 55.8664 57.572V63.2412C55.8664 63.7377 55.672 64.2128 55.3266 64.5636C54.9813 64.9134 54.5139 65.1088 54.0264 65.1061ZM31.3127 61.3755H52.1943V59.4378H31.3223V61.3755H31.3127ZM25.6437 46.705H23.8124C22.8009 46.705 21.9812 45.8693 21.9812 44.8401C21.9812 43.8099 22.8009 42.9743 23.8124 42.9743H25.6437C26.6553 42.9743 27.4758 43.8099 27.4758 44.8401C27.4758 45.8693 26.6553 46.705 25.6437 46.705ZM32.9705 46.705H31.1383C30.1268 46.705 29.3071 45.8693 29.3071 44.8401C29.3071 43.8099 30.1277 42.9743 31.1383 42.9743H32.9705C33.982 42.9743 34.8017 43.8099 34.8017 44.8401C34.8026 45.8693 33.982 46.705 32.9705 46.705ZM40.2972 46.705H38.466C37.4544 46.705 36.6339 45.8693 36.6339 44.8401C36.6339 43.8099 37.4544 42.9743 38.466 42.9743H40.2972C41.3088 42.9743 42.1285 43.8099 42.1285 44.8401C42.1294 45.8693 41.3088 46.705 40.2972 46.705ZM63.1941 34.418C62.9229 34.4162 62.6551 34.3523 62.4101 34.2315C61.961 34.0148 51.42 28.7771 49.4727 14.032C49.4623 13.9521 49.457 13.8722 49.4561 13.7913V6.02716C49.4561 5.22082 49.9654 4.50594 50.718 4.25463L61.5451 0.640282C61.8904 0.277071 62.3656 0.0710449 62.8618 0.0710449H63.5411C64.0382 0.0710449 64.5143 0.277071 64.8596 0.642058L75.6667 4.25551C76.4184 4.50683 76.9267 5.22171 76.9267 6.02805V13.7913C76.9267 13.8739 76.9215 13.9574 76.9102 14.0391C74.9682 28.7753 64.4201 34.0228 63.9728 34.2386C63.7304 34.3558 63.4635 34.4171 63.1941 34.418ZM53.1195 13.6635C53.8233 20.5112 57.525 26.6689 63.1941 30.42C68.8631 26.668 72.5649 20.5112 73.2686 13.6635V7.37788L63.1941 4.02018L53.1195 7.37966V13.6661V13.6635ZM75.0999 14.9938H51.2883C50.2767 14.9938 49.4561 14.1581 49.4561 13.128C49.4561 12.0978 50.2767 11.2631 51.2883 11.2631H75.1007C76.1123 11.2631 76.932 12.0978 76.932 13.128C76.9311 14.159 76.1114 14.9938 75.0999 14.9938ZM64.1097 33.6471C63.624 33.6471 63.1583 33.45 62.8147 33.101C62.4712 32.7511 62.2784 32.276 62.2784 31.7814V3.80172C62.2784 2.77159 63.0981 1.93594 64.1097 1.93594C65.1212 1.93594 65.9409 2.77159 65.9409 3.80172V31.7814C65.9409 32.276 65.7482 32.7502 65.4047 33.101C65.0611 33.4509 64.5954 33.6471 64.1097 33.6471Z" fill="black"/>
<path d="M2.38449 85H1.61551C0.723102 85 0 84.096 0 82.981V82.0197C0 80.904 0.723102 80 1.61551 80H2.38449C3.2769 80 4 80.904 4 82.0197V82.981C4 84.096 3.27635 85 2.38449 85Z" fill="black"/>
<path d="M10.3845 85H9.61551C8.7231 85 8 84.0961 8 82.9806V82.0194C8 80.9039 8.7231 80 9.61551 80H10.3845C11.2769 80 12 80.9039 12 82.0194V82.9806C12 84.0961 11.2764 85 10.3845 85Z" fill="black"/>
<path d="M18.9806 85H18.0194C16.9039 85 16 84.0961 16 82.9806V82.0194C16 80.9039 16.9039 80 18.0194 80H18.9806C20.0961 80 21 80.9039 21 82.0194V82.9806C21 84.0961 20.0954 85 18.9806 85Z" fill="black"/>
<path d="M26.9806 85H26.0194C24.9039 85 24 84.0961 24 82.9806V82.0194C24 80.9039 24.9039 80 26.0194 80H26.9806C28.0961 80 29 80.9039 29 82.0194V82.9806C29 84.0961 28.0961 85 26.9806 85Z" fill="black"/>
<path d="M51.3845 85H50.6155C49.7231 85 49 84.0961 49 82.9806V82.0194C49 80.9039 49.7231 80 50.6155 80H51.3845C52.2769 80 53 80.9039 53 82.0194V82.9806C53 84.0961 52.2769 85 51.3845 85Z" fill="black"/>
<path d="M75.3845 85H74.6155C73.7231 85 73 84.0961 73 82.9806V82.0194C73 80.9039 73.7231 80 74.6155 80H75.3845C76.2769 80 77 80.9039 77 82.0194V82.9806C77 84.0961 76.2769 85 75.3845 85Z" fill="black"/>
<path d="M43.3845 85H42.6155C41.7231 85 41 84.0961 41 82.9806V82.0194C41 80.9039 41.7231 80 42.6155 80H43.3845C44.2769 80 45 80.9039 45 82.0194V82.9806C45 84.0961 44.2769 85 43.3845 85Z" fill="black"/>
<path d="M67.3845 85H66.6155C65.7231 85 65 84.0961 65 82.9806V82.0194C65 80.9039 65.7231 80 66.6155 80H67.3845C68.2769 80 69 80.9039 69 82.0194V82.9806C69 84.0961 68.2769 85 67.3845 85Z" fill="black"/>
<path d="M34.9806 85H34.0194C32.9039 85 32 84.0961 32 82.9806V82.0194C32 80.9039 32.9039 80 34.0194 80H34.9806C36.0961 80 37 80.9039 37 82.0194V82.9806C37 84.0961 36.0961 85 34.9806 85Z" fill="black"/>
<path d="M58.9806 85H58.0194C56.9039 85 56 84.0961 56 82.9806V82.0194C56 80.9039 56.9039 80 58.0194 80H58.9806C60.0961 80 61 80.9039 61 82.0194V82.9806C61 84.0961 60.0961 85 58.9806 85Z" fill="black"/>
</svg>
