<svg width="92" height="93" viewBox="0 0 92 93" fill="none" xmlns="http://www.w3.org/2000/svg">
<g clip-path="url(#clip0_113_2141)">
<path d="M69.9967 46.9561C68.9812 46.9561 68.3041 47.6387 68.3041 48.6626C68.3041 49.6866 68.9812 50.3692 69.9967 50.3692C80.3213 50.3692 88.6149 58.7314 88.6149 69.1415C88.6149 70.1654 89.2919 70.848 90.3074 70.848C91.323 70.848 92 70.1654 92 69.1415C92 56.8542 82.1831 46.9561 69.9967 46.9561ZM69.9967 91.3268C71.0122 91.3268 71.6893 90.6442 71.6893 89.6203C71.6893 88.5963 71.0122 87.9137 69.9967 87.9137C59.6721 87.9137 51.3785 79.5515 51.3785 69.1415C51.3785 68.1175 50.7015 67.4349 49.6859 67.4349C48.6704 67.4349 47.9934 68.1175 47.9934 69.1415C47.9934 81.4287 57.8102 91.3268 69.9967 91.3268Z" fill="black"/>
<path d="M67.6273 59.5846C68.3044 60.2672 69.3199 60.2672 69.9969 59.5846C70.674 58.902 70.674 57.878 69.9969 57.1954L66.4426 53.6116C63.0574 50.1985 57.8105 50.1985 54.4254 53.6116C51.0402 57.0247 51.0402 62.3151 54.4254 65.7282L61.5341 72.8958C64.9192 76.309 70.1662 76.309 73.5513 72.8958C74.2283 72.2132 74.2283 71.1893 73.5513 70.5066C72.8743 69.824 71.8587 69.824 71.1817 70.5066C69.1507 72.5545 65.9348 72.5545 64.073 70.5066L56.9642 63.3391C54.9331 61.2912 54.9331 58.0487 56.9642 56.1715C58.9953 54.1236 62.2111 54.1236 64.073 56.1715L67.6273 59.5846Z" fill="black"/>
<path d="M72.3661 78.6982C71.6891 78.0156 70.6735 78.0156 69.9965 78.6982C69.3195 79.3809 69.3195 80.4048 69.9965 81.0874L73.5509 84.6712C76.936 88.0844 82.183 88.0844 85.5681 84.6712C88.9532 81.2581 88.9532 75.9677 85.5681 72.5546L78.4593 65.387C75.0742 61.9739 69.8273 61.9739 66.4421 65.387C65.7651 66.0696 65.7651 67.0936 66.4421 67.7762C67.1192 68.4588 68.1347 68.4588 68.8117 67.7762C70.8428 65.7283 74.0587 65.7283 75.9205 67.7762L83.0292 74.9438C85.0603 76.9917 85.0603 80.2342 83.0292 82.1114C80.9982 84.1593 77.7823 84.1593 75.9205 82.1114L72.3661 78.6982Z" fill="black"/>
<path d="M59.6799 15.725C58.9619 15.0011 58.0046 15.0011 57.2865 15.725C56.5685 16.449 56.5685 17.4143 57.2865 18.1382C64.587 25.4991 64.587 37.3251 57.2865 44.6867C56.5685 45.4107 56.5685 46.3759 57.2865 47.0999C58.0046 47.8239 58.9619 47.8239 59.6799 47.0999C68.2974 38.4117 68.2974 24.4132 59.6799 15.725ZM28.5626 47.0999C29.2806 47.8239 30.2386 47.8239 30.9566 47.0999C31.6746 46.3759 31.6746 45.41 30.9566 44.686C23.6561 37.3251 23.6561 25.4991 30.9566 18.1382C31.6746 17.4143 31.6746 16.4483 30.9566 15.7244C30.2386 15.0004 29.2806 15.0004 28.5626 15.7244C19.9457 24.4132 19.9457 38.4117 28.5626 47.0999Z" fill="black"/>
<path d="M49.1478 22.9652C49.1478 23.9305 49.8658 24.6545 50.8232 24.6545C51.7805 24.6545 52.4985 23.9305 52.4985 22.9652L52.4985 17.8969C52.4985 13.0698 48.7881 9.32935 44.0013 9.32934C39.2139 9.32934 35.5042 13.0698 35.5035 17.8975L35.5035 28.0336C35.5035 32.8607 39.2139 36.6018 44.0013 36.6018C44.9587 36.6018 45.6767 35.8778 45.6767 34.9125C45.6767 33.9473 44.9587 33.2226 44.0013 33.2233C41.1286 33.2233 38.8549 30.9308 38.9746 28.1549L38.9746 18.0182C38.9746 15.1217 41.2489 12.8291 44.0013 12.9498C46.8741 12.9498 49.1478 15.243 49.0281 18.0182L49.1478 22.9652Z" fill="black"/>
<path d="M39.095 39.8595C39.095 38.8942 38.3769 38.1703 37.4196 38.1703C36.4622 38.1703 35.7442 38.8942 35.7442 39.8595L35.7442 44.9279C35.7442 49.755 39.4546 53.4954 44.2414 53.4954C49.0288 53.4954 52.7393 49.7543 52.7393 44.9272L52.7393 34.7911C52.7393 29.9641 49.0288 26.2236 44.2421 26.2236C43.2847 26.2236 42.5667 26.9476 42.5667 27.9129C42.5667 28.8781 43.2847 29.6021 44.2421 29.6021C47.1141 29.6021 49.3885 31.8953 49.2688 34.6705L49.2688 44.8072C49.2688 47.7031 46.9951 49.9963 44.2421 49.8756C41.37 49.8756 39.0956 47.5831 39.2153 44.8072L39.095 39.8595Z" fill="black"/>
<path d="M0.0265865 70.7879C0.0265864 71.8119 0.703611 72.4945 1.71915 72.4945C2.73469 72.4945 3.41171 71.8119 3.41171 70.7879C3.41171 60.3779 11.7053 52.0157 22.0299 52.0157C23.0454 52.0157 23.7225 51.333 23.7225 50.3091C23.7225 49.2852 23.0454 48.6025 22.0299 48.6025C9.84344 48.6025 0.0265876 58.5006 0.0265865 70.7879ZM44.0332 70.7879C44.0332 69.764 43.3562 69.0814 42.3406 69.0814C41.3251 69.0814 40.6481 69.764 40.6481 70.7879C40.6481 81.198 32.3545 89.5602 22.0299 89.5602C21.0144 89.5602 20.3373 90.2428 20.3373 91.2668C20.3373 92.2907 21.0144 92.9733 22.0299 92.9733C34.2163 92.9733 44.0332 83.0752 44.0332 70.7879Z" fill="black"/>
<path d="M12.5516 73.1771C13.2287 72.4945 13.2287 71.4705 12.5516 70.7879C11.8746 70.1053 10.8591 70.1053 10.1821 70.7879L6.62768 74.3717C3.24256 77.7848 3.24256 83.0752 6.62768 86.4883C10.0128 89.9015 15.2597 89.9015 18.6449 86.4883L25.7536 79.3207C29.1388 75.9076 29.1388 70.6172 25.7536 67.2041C25.0766 66.5215 24.0611 66.5215 23.3841 67.2041C22.707 67.8867 22.707 68.9107 23.3841 69.5933C25.4151 71.6412 25.4151 74.8837 23.3841 76.7609L16.2753 83.9285C14.2442 85.9764 11.0283 85.9764 9.16653 83.9285C7.13545 81.8806 7.13545 78.6381 9.16653 76.7609L12.5516 73.1771Z" fill="black"/>
<path d="M31.5084 68.3987C30.8314 69.0813 30.8314 70.1052 31.5084 70.7879C32.1854 71.4705 33.2009 71.4705 33.878 70.7879L37.4323 67.2041C40.8175 63.7909 40.8175 58.5006 37.4323 55.0874C34.0472 51.6743 28.8003 51.6743 25.4152 55.0874L18.3064 62.255C14.9213 65.6682 14.9213 70.9585 18.3064 74.3717C18.9834 75.0543 19.999 75.0543 20.676 74.3717C21.353 73.689 21.353 72.6651 20.676 71.9825C18.6449 69.9346 18.6449 66.6921 20.676 64.8149L27.7847 57.6473C29.8158 55.5994 33.0317 55.5994 34.8935 57.6473C36.9246 59.6952 36.9246 62.9377 34.8935 64.8149L31.5084 68.3987Z" fill="black"/>
</g>
<defs>
<clipPath id="clip0_113_2141">
<rect width="92" height="93" fill="white" transform="matrix(-1 -8.74228e-08 -8.74228e-08 1 92 0)"/>
</clipPath>
</defs>
</svg>
