<svg width="64" height="57" viewBox="0 0 64 57" fill="none" xmlns="http://www.w3.org/2000/svg">
<g clip-path="url(#clip0_490_188)">
<path d="M43.881 47.26C43.881 46.2823 43.0731 45.4897 42.0766 45.4897H3.61071V11.5102H42.0709C43.0674 11.5102 43.8753 10.7176 43.8753 9.73987C43.8753 8.76214 43.0674 7.96948 42.0709 7.96948H1.8044C0.807884 7.96948 0 8.76214 0 9.73987V47.26C0 48.2378 0.807884 49.0304 1.8044 49.0304H42.0766C43.0731 49.0304 43.881 48.2378 43.881 47.26ZM62.1937 7.96948H56.952C55.9555 7.96948 55.1476 8.76214 55.1476 9.73987C55.1476 10.7176 55.9555 11.5102 56.952 11.5102H60.3893V45.4897H56.9901C55.9936 45.4897 55.1857 46.2823 55.1857 47.26C55.1857 48.2378 55.9936 49.0304 56.9901 49.0304H62.1956C63.1921 49.0304 64 48.2378 64 47.26V9.73987C64 8.76214 63.1921 7.96948 62.1937 7.96948Z" fill="#585959"/>
<path d="M55.0123 53.4592H51.3654V3.5426H54.9914C55.9879 3.5426 56.7958 2.74995 56.7958 1.77221C56.7958 0.794484 55.9879 0.00183105 54.9914 0.00183105H44.1097C43.1132 0.00183105 42.3053 0.794484 42.3053 1.77221C42.3053 2.74995 43.1132 3.5426 44.1097 3.5426H47.7566V53.4592H44.1097C43.1132 53.4592 42.3053 54.2518 42.3053 55.2296C42.3053 56.2073 43.1132 57 44.1097 57H55.0123C56.0088 57 56.8167 56.2073 56.8186 55.2296C56.8167 54.2518 56.0088 53.4592 55.0123 53.4592Z" fill="#EC6819"/>
</g>
<defs>
<clipPath id="clip0_490_188">
<rect width="64" height="57" fill="white"/>
</clipPath>
</defs>
</svg>
