<svg width="535" height="551" viewBox="0 0 535 551" fill="none" xmlns="http://www.w3.org/2000/svg">
<path fill-rule="evenodd" clip-rule="evenodd" d="M212.434 312.249C213.643 312.644 214.89 312.909 216.154 313.042C216.154 313.042 210.914 315.005 200.074 311.334C200.074 311.334 191.964 308.034 185.884 308.588C178.824 309.227 173.954 318.406 173.954 318.406C175.349 317.651 176.83 317.067 178.364 316.666C183.174 315.689 181.514 316.505 181.514 316.505C181.514 316.505 172.264 320.381 171.634 323.828C171.484 324.688 174.074 322.26 180.914 322.475C189.314 322.739 196.614 327.615 199.614 328.419C205.764 330.064 214.584 330.439 222.674 324.095C222.674 324.095 230.144 319.411 232.454 310.755C233.052 308.354 233.404 305.898 233.504 303.425C233.542 301.25 233.32 299.077 232.844 296.954C232.844 296.954 228.474 307.073 212.434 312.249Z" fill="white"/>
<path fill-rule="evenodd" clip-rule="evenodd" d="M371.304 407.19C387.6 386.761 396.474 361.404 396.474 335.273C396.474 309.141 387.6 283.784 371.304 263.355L475.694 251.873C475.694 251.873 486.544 281.63 489.404 297.541C489.774 299.58 490.414 303.687 490.414 303.687C490.414 303.687 474.224 342.998 449.364 364.599C415.954 393.633 371.304 407.19 371.304 407.19ZM124.11 405.756L84.0982 413.173C71.401 381.02 66.7614 346.249 70.5839 311.891C74.4065 277.533 86.5752 244.632 106.029 216.056C106.874 214.817 108.604 212.369 108.604 212.369L152.814 336.873L124.11 405.756Z" fill="url(#paint0_linear_74_53)"/>
<path fill-rule="evenodd" clip-rule="evenodd" d="M268.854 150.425C268.984 150.256 269.094 150.181 269.234 150.01C270.304 148.878 295.144 122.147 265.524 76.938C243.664 43.599 188.004 44.538 165.284 27.187C166.964 40.552 180.064 52.599 178.644 70.914C178.087 76.9499 176.959 82.9194 175.274 88.742C172.564 99.198 170.064 109.112 173.814 128.6C176.744 143.783 183.664 154.861 194.404 161.528C206.694 169.148 223.714 170.822 241.174 166.074C252.874 162.891 263.224 157.014 268.854 150.425Z" fill="url(#paint1_linear_74_53)"/>
<path fill-rule="evenodd" clip-rule="evenodd" d="M305.914 130.926C312.294 119.916 313.504 107.069 309.584 92.82C304.124 72.912 293.694 59.858 285.284 49.361C282.654 46.039 280.164 42.942 278.174 40.022C270.178 28.3065 266.732 14.0756 268.484 0C258.344 7.286 238.834 21.068 226.344 35.736C244.374 44.372 258.444 53.796 269.594 70.782C288.564 99.712 288.264 123.096 284.664 137.614C283.654 141.614 291.304 145.153 289.884 148.249C296.362 143.639 301.82 137.742 305.914 130.926Z" fill="url(#paint2_linear_74_53)"/>
<path fill-rule="evenodd" clip-rule="evenodd" d="M444.173 251.117C422.973 249.099 380.033 243.879 380.033 243.879C283.453 238.498 228.643 267.485 187.253 305.409C155.313 337.123 126.873 419.363 126.873 419.363L92.2793 417.486C92.2793 417.486 103.302 384.67 116.037 360.8C130.637 333.434 133.917 335.67 130.602 331.113C115.165 309.893 107.931 293.218 101.723 257.55C101.723 257.55 108.985 263.25 114.478 259.77C114.478 259.77 102.001 238.114 100.078 214.757C96.6693 173.351 116.061 116.834 116.511 115.53C116.326 116.123 115.288 120.983 126.668 128.236C127.482 124.812 128.345 121.464 129.257 118.194C133.269 98.6588 143.963 56.0208 165.363 27.1128C165.363 27.1128 177.333 68.9058 207.393 87.8628C265.913 124.778 302.553 124.976 302.553 124.976C385.223 134.22 420.523 174.776 420.523 174.776C479.853 238.776 533.743 238.176 533.743 238.176C514.383 256.688 444.173 251.117 444.173 251.117ZM116.511 115.53C116.517 115.509 116.524 115.489 116.532 115.469L116.511 115.53Z" fill="url(#paint3_linear_74_53)"/>
<path fill-rule="evenodd" clip-rule="evenodd" d="M534.754 238.185C534.754 238.185 526.344 284.742 482.234 290.172C482.234 290.172 322.294 289.14 310.634 434.435L307.924 475.252L116.049 419.331C116.049 419.331 134.143 357.639 173.684 308.109C173.684 308.109 240.844 213.23 432.234 238.231C432.234 238.231 454.584 242.731 485.944 245.668C512.444 248.149 534.754 238.185 534.754 238.185Z" fill="url(#paint4_linear_74_53)"/>
<path fill-rule="evenodd" clip-rule="evenodd" d="M425.934 216.043C425.934 216.043 384.384 194.432 332.704 196.472C332.704 196.472 360.814 174.506 398.804 179.872L425.934 216.043Z" fill="#722B00"/>
<path fill-rule="evenodd" clip-rule="evenodd" d="M320.894 414.523C320.894 414.523 334.404 423.848 355.864 418.895C355.864 418.895 321.194 438.995 248.124 411.436C248.124 411.436 172.764 377.728 119.754 385.414C85.6819 390.354 55.5539 417.424 37.3089 438.033C15.2649 462.933 18.0089 451.292 73.3689 444.441C86.6769 442.794 79.0128 446.579 79.0128 446.579C79.0128 446.579 5.05088 477.559 0.0528769 505.115C-1.19512 511.995 19.5359 492.58 74.2039 494.301C141.314 496.414 199.704 535.388 223.714 541.813C272.864 554.962 343.364 557.964 408.034 507.248C408.034 507.248 467.714 469.805 486.164 400.615C490.964 381.42 493.792 361.785 494.604 342.015C495.584 316.252 487.744 289.13 487.744 289.13C487.744 289.13 444.134 385.737 320.894 414.523Z" fill="url(#paint5_linear_74_53)"/>
<defs>
<linearGradient id="paint0_linear_74_53" x1="271.5" y1="206" x2="279.849" y2="413.173" gradientUnits="userSpaceOnUse">
<stop stop-color="#DADB48"/>
<stop offset="0.65625" stop-color="#637621"/>
</linearGradient>
<linearGradient id="paint1_linear_74_53" x1="280" y1="109.5" x2="178.5" y2="109.5" gradientUnits="userSpaceOnUse">
<stop stop-color="#EC6F01"/>
<stop offset="1" stop-color="#F4B23D"/>
</linearGradient>
<linearGradient id="paint2_linear_74_53" x1="288.5" y1="114" x2="282.5" y2="16" gradientUnits="userSpaceOnUse">
<stop stop-color="#F4B33E"/>
<stop offset="1" stop-color="#FB6F1B"/>
</linearGradient>
<linearGradient id="paint3_linear_74_53" x1="126.5" y1="114.5" x2="483.5" y2="255.5" gradientUnits="userSpaceOnUse">
<stop stop-color="#FB6D1A"/>
<stop offset="1" stop-color="#F3B23E"/>
</linearGradient>
<linearGradient id="paint4_linear_74_53" x1="164" y1="399.5" x2="503" y2="250.5" gradientUnits="userSpaceOnUse">
<stop stop-color="#F3B63F"/>
<stop offset="1" stop-color="#FB701C"/>
</linearGradient>
<linearGradient id="paint5_linear_74_53" x1="152" y1="550" x2="445.5" y2="367" gradientUnits="userSpaceOnUse">
<stop stop-color="#EC6F00"/>
<stop offset="1" stop-color="#F4B33E"/>
</linearGradient>
</defs>
</svg>
