<svg width="32" height="33" viewBox="0 0 32 33" fill="none" xmlns="http://www.w3.org/2000/svg">
<path fill-rule="evenodd" clip-rule="evenodd" d="M16.0002 33C12.8357 33 9.74234 32.0323 7.11116 30.2193C4.47997 28.4062 2.42893 25.8293 1.21793 22.8143C0.00692503 19.7993 -0.309918 16.4817 0.307445 13.281C0.924809 10.0803 2.44871 7.14031 4.68635 4.83275C6.92399 2.52518 9.77504 0.953706 12.8787 0.31705C15.9824 -0.319606 19.1996 0.00714922 22.1232 1.256C25.0468 2.50484 27.5454 4.61969 29.3035 7.3331C31.0616 10.0465 32.0002 13.2366 32.0002 16.5C32.0002 20.8761 30.3145 25.0729 27.314 28.1673C24.3134 31.2616 20.2436 33 16.0002 33ZM23.3068 11.1375C21.9893 10.1332 20.4105 9.55852 18.7736 9.48751V9.48063L18.827 9.46551H18.84H18.827H18.8003L18.7736 9.48063L18.7602 9.48751H18.7736L18.5334 9.72676C20.0101 10.096 21.3955 10.7803 22.6001 11.7356C21.0435 10.9457 19.3649 10.4426 17.6401 10.2493C16.5549 10.1186 15.4587 10.1186 14.3735 10.2493H14.1069C12.8255 10.3657 11.5699 10.6906 10.3869 11.2118C9.77354 11.4771 9.41357 11.6518 9.41357 11.6518C10.65 10.6324 12.1107 9.94247 13.6668 9.64289L13.4803 9.46551C11.8235 9.52563 10.2234 10.1045 8.89338 11.1251C7.38114 13.9371 6.55756 17.0871 6.49364 20.3019C7.07207 21.0815 7.82599 21.7039 8.69026 22.1153C9.55453 22.5267 10.503 22.7146 11.4536 22.6628C11.4536 22.6628 11.9733 21.9656 12.52 21.3524C11.4048 21.0758 10.4077 20.4312 9.68017 19.5168C9.83665 19.5935 9.98821 19.6808 10.1336 19.778H10.2C10.2155 19.7774 10.231 19.7807 10.2449 19.7877C10.2589 19.7946 10.2709 19.805 10.2801 19.8179V19.8248C10.2901 19.8366 10.3025 19.8463 10.3162 19.8531C10.33 19.86 10.3449 19.8639 10.3602 19.8646C10.8002 20.042 11.2401 20.218 11.6001 20.3871C12.3635 20.711 13.1596 20.9462 13.9735 21.0884C15.3832 21.308 16.8169 21.308 18.2267 21.0884C19.0382 20.936 19.8332 20.7016 20.6001 20.3885C21.2335 20.1008 21.8523 19.7796 22.4536 19.426C21.704 20.3541 20.6768 20.9997 19.5334 21.2616C19.9734 21.8708 20.5867 22.5693 20.5867 22.5693C21.5443 22.5734 22.4927 22.3753 23.3732 21.9873C24.2537 21.5992 25.0479 21.0294 25.7069 20.3129C25.641 17.0989 24.8172 13.9497 23.3068 11.1375ZM19.0535 18.7344C18.6044 18.7344 18.1738 18.5504 17.8563 18.2229C17.5387 17.8954 17.3602 17.4513 17.3602 16.9881C17.3602 16.525 17.5387 16.0808 17.8563 15.7534C18.1738 15.4259 18.6044 15.2419 19.0535 15.2419C19.4822 15.2723 19.8837 15.4693 20.1769 15.7932C20.4701 16.1171 20.633 16.5437 20.633 16.9868C20.633 17.4298 20.4701 17.8564 20.1769 18.1803C19.8837 18.5042 19.4822 18.7012 19.0535 18.7316V18.7344ZM13.0402 18.7344C12.5911 18.7344 12.1605 18.5504 11.8429 18.2229C11.5254 17.8954 11.3468 17.4513 11.3468 16.9881C11.3468 16.525 11.5254 16.0808 11.8429 15.7534C12.1605 15.4259 12.5911 15.2419 13.0402 15.2419H13.0535C13.4821 15.274 13.883 15.4727 14.175 15.7977C14.467 16.1228 14.6281 16.5501 14.6265 16.9932C14.6248 17.4363 14.4603 17.8622 14.1658 18.1849C13.8714 18.5076 13.469 18.703 13.0402 18.7316V18.7344Z" fill="#1E1E1E"/>
</svg>
