<svg width="32" height="33" viewBox="0 0 32 33" fill="none" xmlns="http://www.w3.org/2000/svg">
<path fill-rule="evenodd" clip-rule="evenodd" d="M32 16.5C32 13.2366 31.0615 10.0465 29.3034 7.3331C27.5453 4.61969 25.0467 2.50484 22.1231 1.25599C19.1995 0.0071491 15.9824 -0.319606 12.8787 0.31705C9.77499 0.953706 6.92396 2.52518 4.68633 4.83274C2.4487 7.14031 0.924804 10.0803 0.307444 13.281C-0.309917 16.4817 0.00692499 19.7993 1.21792 22.8143C2.42892 25.8293 4.47995 28.4062 7.11112 30.2193C9.7423 32.0323 12.8356 33 16.0001 33C20.2435 33 24.3133 31.2616 27.3138 28.1673C30.3144 25.0729 32 20.8761 32 16.5ZM7.38684 22.3699C8.31752 22.4908 9.26235 22.4116 10.1619 22.1373C11.0614 21.863 11.8961 21.3996 12.6134 20.7763C11.8562 20.7426 11.1292 20.4615 10.5372 19.9736C9.94519 19.4857 9.51883 18.8162 9.3201 18.062C9.53933 18.11 9.76266 18.1353 9.98676 18.1376C10.2979 18.1397 10.6077 18.0957 10.9067 18.007C10.0841 17.7914 9.35661 17.2945 8.84321 16.5974C8.32981 15.9004 8.06097 15.0445 8.08019 14.1694V14.1199C8.56311 14.4258 9.11387 14.599 9.68012 14.6231C8.92375 14.0341 8.39736 13.1848 8.19673 12.2295C7.9961 11.2742 8.13445 10.2764 8.5867 9.41738C9.43847 10.6095 10.5301 11.5977 11.7866 12.3144C13.0431 13.0311 14.4347 13.4594 15.8666 13.5699C15.8083 13.2803 15.7773 12.9856 15.7735 12.6899C15.7589 12.1999 15.8393 11.7119 16.0098 11.2544C16.1804 10.7969 16.4377 10.379 16.7667 10.0252C17.0957 9.67146 17.4897 9.38892 17.9258 9.19412C18.362 8.99933 18.8314 8.8962 19.3067 8.89076C19.7992 8.90093 20.2842 9.01797 20.7299 9.23427C21.1756 9.45057 21.5718 9.76128 21.8933 10.1461C22.6855 9.98855 23.4443 9.68635 24.1335 9.25376C23.8873 10.1253 23.3359 10.8715 22.5866 11.3479C23.2868 11.2657 23.9705 11.0723 24.6133 10.7745C24.144 11.5289 23.5479 12.1911 22.8532 12.7298V13.2248C22.8532 18.2861 19.3069 24.123 12.8002 24.1203C10.8652 24.1175 8.97692 23.507 7.38684 22.3699Z" fill="#1E1E1E"/>
</svg>
