<svg width="222" height="223" viewBox="0 0 222 223" fill="none" xmlns="http://www.w3.org/2000/svg">
<path d="M200.424 193.738L155.117 167.908L168.095 160.41C169.502 159.601 170.205 158.173 170.205 156.752C170.205 155.331 169.502 153.903 168.095 153.094L98.0267 112.64C94.9808 110.881 91.2245 110.881 88.1787 112.64L18.1103 153.094C16.7034 153.903 16 155.331 16 156.752C16 158.173 16.7034 159.594 18.1103 160.403L37.771 171.756L88.1787 200.864C91.2245 202.622 94.9808 202.622 98.0267 200.864L116.393 190.263L161.701 216.093C163.614 217.19 166.498 217.31 168.144 216.36L199.151 198.458L200.882 197.459C201.634 197.03 202 196.446 202 195.841C202 195.11 201.472 194.343 200.424 193.738Z" stroke="white" stroke-width="1.2" stroke-miterlimit="10" stroke-linecap="round" stroke-linejoin="round"/>
<path d="M170.205 109.186C170.205 110.607 169.502 112.035 168.095 112.844L148.434 124.197L98.0267 153.298C94.9808 155.057 91.2245 155.057 88.1787 153.298L37.771 124.19L18.1103 112.837C16.7034 112.028 16 110.607 16 109.186C16 107.765 16.7034 106.337 18.1103 105.528L88.1787 65.0743C91.2245 63.3157 94.9808 63.3157 98.0267 65.0743L168.095 105.528C169.502 106.337 170.205 107.765 170.205 109.186Z" fill="black" stroke="white" stroke-width="1.2" stroke-miterlimit="10" stroke-linecap="round" stroke-linejoin="round"/>
<path d="M147.295 87.1619V107.083C147.295 108.201 146.739 109.32 145.635 109.96L98.083 137.415C95.002 139.194 91.2036 139.194 88.1226 137.415L40.5709 109.96C39.4665 109.32 38.9109 108.201 38.9109 107.083V87.1619C38.9109 88.2803 39.4665 89.3988 40.5709 90.0389L88.1226 117.487C91.2036 119.266 95.002 119.266 98.083 117.487L145.635 90.0389C146.739 89.3988 147.288 88.2803 147.288 87.1619H147.295Z" fill="black" stroke="white" stroke-width="1.2" stroke-miterlimit="10" stroke-linecap="round" stroke-linejoin="round"/>
<path d="M147.288 87.1619C147.288 88.2803 146.739 89.3988 145.635 90.0389L98.0829 117.487C95.0019 119.266 91.2035 119.266 88.1225 117.487L40.5708 90.0389C39.4664 89.3988 38.9108 88.2803 38.9108 87.1619C38.9108 86.0434 39.4664 84.925 40.5708 84.2849L88.1225 56.8301C91.2035 55.0504 95.0019 55.0504 98.0829 56.8301L145.635 84.2849C146.739 84.925 147.288 86.0434 147.288 87.1619Z" fill="black" stroke="white" stroke-width="1.2" stroke-miterlimit="10" stroke-linecap="round" stroke-linejoin="round"/>
<path d="M122.555 113.582L140.218 103.376" stroke="white" stroke-width="1.2" stroke-miterlimit="10" stroke-linecap="round" stroke-linejoin="round"/>
<path d="M108.705 121.574L114.48 118.239" stroke="white" stroke-width="1.2" stroke-miterlimit="10" stroke-linecap="round" stroke-linejoin="round"/>
<path d="M49.1814 106.84C49.8571 106.552 49.993 105.351 49.4849 104.157C48.9767 102.963 48.017 102.228 47.3414 102.516C46.6657 102.804 46.53 104.005 47.0381 105.199C47.5462 106.393 48.5058 107.127 49.1814 106.84Z" fill="white"/>
<path d="M55.7531 110.64C56.4288 110.352 56.5645 109.151 56.0564 107.957C55.5483 106.763 54.5887 106.028 53.913 106.316C53.2374 106.603 53.1015 107.804 53.6096 108.998C54.1177 110.192 55.0775 110.927 55.7531 110.64Z" fill="white"/>
<path d="M62.3314 114.437C63.007 114.149 63.1428 112.948 62.6347 111.754C62.1265 110.56 61.167 109.825 60.4913 110.113C59.8156 110.4 59.6797 111.601 60.1879 112.795C60.696 113.989 61.6557 114.724 62.3314 114.437Z" fill="white"/>
<path d="M117.54 91.6569C116.344 93.8375 114.241 95.8985 111.23 97.6289C101.22 103.411 84.9782 103.411 74.9684 97.6289C71.9648 95.8985 69.8686 93.8375 68.6587 91.6569C65.8521 86.5429 67.9623 80.7397 74.9684 76.6879C84.9782 70.9058 101.22 70.9058 111.23 76.6879C118.25 80.7326 120.354 86.5429 117.54 91.6569Z" fill="black" stroke="white" stroke-width="1.2" stroke-miterlimit="10" stroke-linecap="round" stroke-linejoin="round"/>
<path d="M117.54 91.6566C116.344 93.8373 114.241 95.8983 111.23 97.6287C101.22 103.411 84.9782 103.411 74.9684 97.6287C71.9648 95.8983 69.8686 93.8373 68.6587 91.6566C69.8616 89.476 71.9577 87.415 74.9684 85.6845C84.9782 79.9024 101.22 79.9024 111.23 85.6845C114.241 87.415 116.344 89.476 117.54 91.6566Z" fill="#12FE74" stroke="white" stroke-width="1.2" stroke-miterlimit="10" stroke-linecap="round" stroke-linejoin="round"/>
<path d="M128.316 42.234L115.549 49.6059C113.825 49.0854 112.032 48.2976 110.189 47.2354C104.189 43.7675 98.7298 37.9853 94.6148 31.2887C91.6885 26.5335 87.2289 23.959 84.3097 25.3377C82.1079 26.3717 79.5193 26.7094 76.6774 26.2662C74.1943 25.8793 71.5213 24.9086 68.7216 23.2907C66.8787 22.2286 65.085 20.9483 63.3687 19.4852L76.1358 12.1133C77.8521 13.5764 79.6459 14.8566 81.4889 15.9188C87.4892 19.3867 92.9618 19.9073 97.0768 17.9658C99.996 16.5871 104.456 19.1616 107.382 23.9168C111.497 30.6134 116.963 36.3956 122.963 39.8635C124.799 40.9256 126.6 41.7135 128.316 42.234Z" fill="black" stroke="white" stroke-width="1.2" stroke-miterlimit="10" stroke-linecap="round" stroke-linejoin="round"/>
<path d="M128.45 46.6165C128.45 66.3265 116.801 91.5021 89.4517 89.6451C96.4086 89.3145 102.374 86.5641 106.841 81.6682C112.419 75.5766 115.682 66.1647 115.682 53.9884C115.682 52.5393 115.633 51.0762 115.549 49.606L128.316 42.2341C128.4 43.7043 128.45 45.1674 128.45 46.6165Z" fill="#12FE74" stroke="white" stroke-width="1.2" stroke-miterlimit="10" stroke-linecap="round" stroke-linejoin="round"/>
<path d="M115.682 53.9882C115.682 66.1645 112.419 75.5763 106.841 81.668C102.374 86.5639 96.4085 89.3143 89.4517 89.6449C89.4235 89.6097 89.3955 89.5745 89.3673 89.5394C73.8005 70.7719 63.2351 45.6174 63.2351 23.7127C63.2351 22.2636 63.2843 20.8568 63.3687 19.4851C65.0851 20.9482 66.8787 22.2285 68.7217 23.2906C71.5213 24.9085 74.1944 25.8793 76.6775 26.2661C79.5193 26.7093 82.108 26.3716 84.3097 25.3376C87.229 23.9589 91.6886 26.5334 94.6149 31.2886C98.7299 37.9852 104.189 43.7674 110.189 47.2353C112.032 48.2975 113.825 49.0853 115.549 49.6058C115.633 51.076 115.682 52.5391 115.682 53.9882Z" fill="black" stroke="white" stroke-width="1.2" stroke-miterlimit="10" stroke-linecap="round" stroke-linejoin="round"/>
<path d="M89.4588 81.4781C77.796 66.066 70.3678 47.2564 69.4323 30.7258C76.4736 34.5947 83.1913 35.3755 88.4107 32.9135C88.7835 32.7376 89.1915 32.8924 89.4658 33.0471C89.7402 33.2019 90.1481 33.5255 90.521 34.1304C95.7404 42.6208 102.451 49.5917 109.493 53.8545C108.55 69.3017 101.122 79.5366 89.4588 81.4781Z" fill="black" stroke="white" stroke-width="1.2" stroke-miterlimit="10" stroke-linecap="round" stroke-linejoin="round"/>
<path d="M87.3978 63.9559C86.7717 63.5971 86.1527 62.964 85.6744 62.134L81.0176 54.0657C80.068 52.4197 80.068 50.633 81.0176 50.0843C81.9673 49.5356 83.5149 50.429 84.4645 52.075L87.3978 57.1537L94.4461 53.0809C95.3957 52.5322 96.9432 53.4256 97.8928 55.0716C98.8425 56.7176 98.8425 58.5043 97.8928 59.053L89.1211 64.1176C88.6498 64.399 88.0238 64.3146 87.3978 63.9559Z" fill="black" stroke="white" stroke-width="1.2" stroke-miterlimit="10" stroke-linecap="round" stroke-linejoin="round"/>
<path d="M170.205 109.186V139.201C170.205 140.622 169.502 142.043 168.095 142.852L98.0267 183.306C94.9808 185.065 91.2245 185.065 88.1787 183.306L18.1103 142.852C16.7034 142.043 16 140.622 16 139.201V109.186C16 110.607 16.7034 112.028 18.1103 112.837L37.771 124.19L88.1787 153.298C91.2245 155.057 94.9808 155.057 98.0267 153.298L148.434 124.197L168.095 112.844C169.502 112.035 170.205 110.607 170.205 109.186Z" fill="black" stroke="white" stroke-width="1.2" stroke-miterlimit="10" stroke-linecap="round" stroke-linejoin="round"/>
<path d="M58.1214 135.938V148.902L52.4165 152.194V162.654" stroke="white" stroke-width="1.2" stroke-miterlimit="10" stroke-linecap="round" stroke-linejoin="round"/>
<path d="M67.3009 141.241V154.642L74.2016 166.593V175.231" stroke="white" stroke-width="1.2" stroke-miterlimit="10" stroke-linecap="round" stroke-linejoin="round"/>
<path d="M61.0475 167.634V161.472" stroke="white" stroke-width="1.2" stroke-miterlimit="10" stroke-linecap="round" stroke-linejoin="round"/>
<path d="M48.1395 142.268V130.176" stroke="white" stroke-width="1.2" stroke-miterlimit="10" stroke-linecap="round" stroke-linejoin="round"/>
<path d="M35.4145 152.841V146.587L39.5436 144.203V135.333L35.2668 127.925V122.741" stroke="white" stroke-width="1.2" stroke-miterlimit="10" stroke-linecap="round" stroke-linejoin="round"/>
<path d="M62.5085 161.625C63.3395 161.145 63.3376 159.586 62.5043 158.143C61.671 156.7 60.3218 155.919 59.4908 156.398C58.6598 156.878 58.6617 158.437 59.4951 159.88C60.3284 161.324 61.6775 162.105 62.5085 161.625Z" stroke="white" stroke-width="1.2" stroke-miterlimit="10" stroke-linecap="round" stroke-linejoin="round"/>
<path d="M49.5998 147.35C50.4308 146.87 50.4291 145.311 49.5958 143.868C48.7625 142.424 47.4131 141.643 46.5821 142.123C45.7511 142.603 45.7531 144.162 46.5864 145.605C47.4197 147.048 48.7689 147.829 49.5998 147.35Z" stroke="white" stroke-width="1.2" stroke-miterlimit="10" stroke-linecap="round" stroke-linejoin="round"/>
<path d="M154.983 143.478L111.596 168.464C110.752 168.949 109.689 168.344 109.689 167.367V155.894C109.689 154.684 110.336 153.565 111.385 152.96L154.772 127.975C155.616 127.489 156.678 128.094 156.678 129.072V140.545C156.678 141.755 156.031 142.873 154.983 143.478Z" fill="#12FE74" stroke="white" stroke-width="1.2" stroke-miterlimit="10" stroke-linecap="round" stroke-linejoin="round"/>
<path d="M201.409 164.996C201.409 165.601 201.043 166.185 200.291 166.614L198.56 167.613L167.553 185.515C165.907 186.465 163.016 186.352 161.103 185.248L117.314 159.966L116.048 159.235C115 158.63 114.466 157.856 114.466 157.125C114.466 156.52 114.831 155.943 115.584 155.507L148.322 136.606C149.975 135.656 152.866 135.769 154.772 136.88L199.826 162.893C200.875 163.491 201.409 164.264 201.409 164.996Z" fill="black" stroke="white" stroke-width="1.2" stroke-miterlimit="10" stroke-linecap="round" stroke-linejoin="round"/>
<path d="M135.175 154.874L153.724 144.168C154.631 143.64 154.519 142.726 153.471 142.121C152.423 141.516 150.833 141.445 149.919 141.973L131.369 152.679C130.462 153.207 130.574 154.121 131.622 154.726C132.678 155.331 134.267 155.394 135.175 154.874Z" fill="black" stroke="white" stroke-width="1.2" stroke-miterlimit="10" stroke-linecap="round" stroke-linejoin="round"/>
<path d="M136.666 162.513L161.089 148.416C161.996 147.889 161.884 146.974 160.836 146.369C159.788 145.764 158.198 145.694 157.283 146.221L132.86 160.325C131.953 160.853 132.065 161.767 133.114 162.372C134.169 162.977 135.759 163.04 136.666 162.513Z" fill="black" stroke="white" stroke-width="1.2" stroke-miterlimit="10" stroke-linecap="round" stroke-linejoin="round"/>
<path d="M156.939 159.312L168.454 152.665C169.361 152.137 169.249 151.223 168.2 150.618C167.152 150.013 165.563 149.943 164.648 150.47L153.133 157.118C152.226 157.645 152.338 158.56 153.386 159.165C154.434 159.777 156.024 159.84 156.939 159.312Z" fill="black" stroke="white" stroke-width="1.2" stroke-miterlimit="10" stroke-linecap="round" stroke-linejoin="round"/>
<path d="M155.947 168.393L175.818 156.921C176.726 156.393 176.613 155.479 175.565 154.874C174.517 154.269 172.927 154.198 172.013 154.726L152.141 166.199C151.234 166.726 151.346 167.641 152.394 168.246C153.443 168.851 155.032 168.914 155.947 168.393Z" fill="black" stroke="white" stroke-width="1.2" stroke-miterlimit="10" stroke-linecap="round" stroke-linejoin="round"/>
<path d="M176.839 173.951C176.332 174.239 175.636 174.422 174.869 174.422H168.665C167.124 174.422 165.879 173.705 165.879 172.811C165.879 171.925 167.124 171.2 168.665 171.2H172.083V165.411C172.083 164.525 173.328 163.8 174.869 163.8C176.409 163.8 177.655 164.518 177.655 165.411V172.811C177.655 173.254 177.345 173.655 176.839 173.951Z" fill="#12FE74" stroke="white" stroke-width="1.2" stroke-miterlimit="10" stroke-linecap="round" stroke-linejoin="round"/>
<path d="M201.409 164.996V170.448C201.409 171.053 201.043 171.629 200.291 172.058L167.553 190.96C165.907 191.916 163.016 191.797 161.103 190.692L116.055 164.68C115.007 164.075 114.473 163.308 114.473 162.569V157.118C114.473 157.849 115.007 158.616 116.055 159.228L117.322 159.96L161.11 185.241C163.023 186.338 165.907 186.458 167.56 185.508L198.567 167.606L200.298 166.607C201.044 166.185 201.409 165.601 201.409 164.996Z" fill="#12FE74" stroke="white" stroke-width="1.2" stroke-miterlimit="10" stroke-linecap="round" stroke-linejoin="round"/>
</svg>
