<svg width="223" height="223" viewBox="0 0 223 223" fill="none" xmlns="http://www.w3.org/2000/svg">
<path d="M183.563 163.536C183.563 163.536 183.456 163.463 183.286 163.331L189.106 159.973L191.246 158.734C192.971 157.74 193.839 155.985 193.839 154.24C193.839 152.495 192.971 150.74 191.246 149.746L105.138 100.031C101.394 97.8715 96.7779 97.8715 93.0343 100.031L6.93128 149.746C5.20083 150.74 4.33801 152.495 4.33801 154.24C4.33801 155.985 5.20083 157.73 6.93128 158.725L9.08089 159.968L31.0893 172.676L93.0343 208.449C96.7779 210.609 101.394 210.609 105.138 208.449L143.744 186.158C143.924 186.29 144.036 186.358 144.036 186.358L178.801 206.431L218.333 183.604L183.563 163.536Z" fill="black" stroke="white" stroke-width="1.2" stroke-miterlimit="10" stroke-linecap="round" stroke-linejoin="round"/>
<path d="M193.834 130.906C193.834 132.651 192.966 134.406 191.241 135.4L189.101 136.638L167.078 149.351L105.133 185.115C101.389 187.275 96.7732 187.275 93.0296 185.115L31.0845 149.341L9.07613 136.633L6.92652 135.39C5.19607 134.396 4.33325 132.651 4.33325 130.906C4.33325 129.161 5.19607 127.406 6.92652 126.412L93.0296 76.6967C96.7732 74.5373 101.389 74.5373 105.133 76.6967L191.241 126.412C192.966 127.406 193.834 129.161 193.834 130.906Z" fill="black" stroke="white" stroke-width="1.2" stroke-miterlimit="10" stroke-linecap="round" stroke-linejoin="round"/>
<path d="M193.834 130.911V142.371C193.834 144.116 192.966 145.87 191.241 146.865L167.078 160.816L105.133 196.58C101.389 198.739 96.7732 198.739 93.0296 196.58L31.0845 160.811L6.92652 146.855C5.19607 145.861 4.33325 144.116 4.33325 142.371V130.911C4.33325 132.656 5.19607 134.401 6.92652 135.395L9.07613 136.638L31.0845 149.346L93.0296 185.12C96.7732 187.279 101.389 187.279 105.133 185.12L167.078 149.356L189.101 136.643L191.241 135.405C192.966 134.411 193.834 132.656 193.834 130.911Z" fill="black" stroke="white" stroke-width="1.2" stroke-miterlimit="10" stroke-linecap="round" stroke-linejoin="round"/>
<path d="M173.771 60.45V130.911C173.771 132.285 173.088 133.665 171.728 134.45L103.851 173.636C100.902 175.337 97.2606 175.337 94.3116 173.636L26.4342 134.45C25.0694 133.665 24.3917 132.29 24.3917 130.911V60.45C24.3917 61.8246 25.0742 63.204 26.4342 63.9888L45.4788 74.9857L94.3067 103.185C97.2558 104.886 100.897 104.886 103.846 103.185L152.674 74.9955L171.719 63.9986C173.088 63.2138 173.771 61.8294 173.771 60.45Z" fill="black" stroke="white" stroke-width="1.2" stroke-miterlimit="10" stroke-linecap="round" stroke-linejoin="round"/>
<path d="M164.68 91.4956V123.589C164.68 126.811 162.715 130.555 160.298 131.954L114.853 158.193C112.435 159.587 110.475 158.106 110.475 154.884V122.79C110.475 119.568 112.435 115.819 114.853 114.425L158.489 89.2289L160.298 88.1858C162.715 86.7868 164.68 88.2687 164.68 91.4956Z" fill="black" stroke="white" stroke-width="1.2" stroke-miterlimit="10" stroke-linecap="round" stroke-linejoin="round"/>
<path d="M158.489 89.2288V120.031C158.489 123.258 156.53 127.001 154.112 128.395L110.475 153.596V122.79C110.475 119.568 112.435 115.819 114.853 114.425L158.489 89.2288Z" fill="#12FE74" stroke="white" stroke-width="1.2" stroke-miterlimit="10" stroke-linecap="round" stroke-linejoin="round"/>
<path d="M218.328 154.191L178.796 177.019L144.031 156.945C144.031 156.945 139.966 154.469 137.743 147.591C135.403 140.377 130.817 138.281 130.817 138.281L114.131 128.644L153.663 105.822L170.344 115.454C170.344 115.454 175.097 118.364 177.271 124.764C179.547 131.476 183.559 134.123 183.559 134.123L218.328 154.191Z" fill="black" stroke="white" stroke-width="1.2" stroke-miterlimit="10" stroke-linecap="round" stroke-linejoin="round"/>
<path d="M156.33 155.556L159.123 157.17H159.128L163.905 159.933L168.686 162.692L173.468 165.451L178.25 168.21" stroke="white" stroke-width="1.2" stroke-miterlimit="10" stroke-linecap="round" stroke-linejoin="round"/>
<path d="M140.297 135.215C140.59 135.459 140.941 135.775 141.331 136.165C142.364 137.213 143.636 138.783 144.601 140.908C144.816 141.376 145.011 141.873 145.191 142.39C145.64 143.711 146.147 144.9 146.683 145.968C147.638 147.864 148.681 149.37 149.642 150.516C151.236 152.432 152.581 153.363 152.844 153.538" stroke="white" stroke-width="1.2" stroke-miterlimit="10" stroke-linecap="round" stroke-linejoin="round"/>
<path d="M150.631 141.254C150.417 140.728 150.212 140.182 150.017 139.607C149.842 139.085 149.642 138.588 149.427 138.12C148.462 135.995 147.19 134.42 146.152 133.377C145.191 132.407 144.436 131.895 144.319 131.817L141.969 130.462L137.836 128.074L135.652 126.811C134.448 126.114 132.961 126.114 131.752 126.811L131.582 126.909C130.383 127.601 130.383 129.336 131.582 130.029L133.015 130.857L136.315 132.763" stroke="white" stroke-width="1.2" stroke-miterlimit="10" stroke-linecap="round" stroke-linejoin="round"/>
<path d="M170.173 157.979L168.73 157.145L163.948 154.386L158.431 151.203L157.748 150.808L157.67 150.755C157.407 150.579 156.062 149.648 154.463 147.728C153.863 147.011 153.234 146.153 152.61 145.149" stroke="white" stroke-width="1.2" stroke-miterlimit="10" stroke-linecap="round" stroke-linejoin="round"/>
<path d="M165.216 149.088L169.174 151.374L173.951 154.133L178.733 156.892H178.738L183.515 159.651L185.591 160.85C186.79 161.542 186.79 163.278 185.591 163.97L185.021 164.301C183.817 164.998 182.325 164.998 181.121 164.301L178.289 162.668L174.014 160.202" stroke="white" stroke-width="1.2" stroke-miterlimit="10" stroke-linecap="round" stroke-linejoin="round"/>
<path d="M147.721 127.752L149.535 128.795C149.647 128.873 150.407 129.39 151.372 130.36C152.411 131.408 153.678 132.978 154.648 135.103C154.858 135.571 155.058 136.063 155.233 136.585C155.681 137.911 156.188 139.105 156.729 140.163C157.685 142.064 158.728 143.565 159.688 144.711C160.717 145.944 161.638 146.772 162.238 147.25" stroke="white" stroke-width="1.2" stroke-miterlimit="10" stroke-linecap="round" stroke-linejoin="round"/>
<path d="M157.987 129.473C157.416 128.683 156.841 128.03 156.325 127.504C155.36 126.533 154.604 126.017 154.487 125.944L152.137 124.589L148.004 122.205L145.82 120.942C144.611 120.245 143.124 120.245 141.92 120.942L141.623 121.113C140.424 121.805 140.424 123.541 141.623 124.233L143.051 125.057L144.831 126.085" stroke="white" stroke-width="1.2" stroke-miterlimit="10" stroke-linecap="round" stroke-linejoin="round"/>
<path d="M177.075 150.219L174.121 148.513L168.604 145.329L167.911 144.93L167.833 144.876C167.57 144.701 166.225 143.77 164.631 141.854C163.675 140.708 162.632 139.207 161.672 137.306C161.136 136.239 160.629 135.049 160.18 133.728C160.005 133.207 159.805 132.714 159.591 132.246" stroke="white" stroke-width="1.2" stroke-miterlimit="10" stroke-linecap="round" stroke-linejoin="round"/>
<path d="M167.946 136.633C168.516 137.53 169.096 138.305 169.642 138.958C171.241 140.879 172.586 141.815 172.849 141.985L172.927 142.034L173.615 142.429L179.133 145.612L183.914 148.376L188.696 151.135L193.473 153.894L195.55 155.093C196.749 155.785 196.754 157.521 195.55 158.213L195.194 158.417C193.985 159.115 192.498 159.115 191.294 158.417L188.462 156.78L183.685 154.026L181.019 152.485" stroke="white" stroke-width="1.2" stroke-miterlimit="10" stroke-linecap="round" stroke-linejoin="round"/>
<path d="M159.498 123.053C159.615 123.131 160.371 123.643 161.326 124.613C162.364 125.656 163.632 127.23 164.602 129.356C164.816 129.829 165.016 130.321 165.192 130.847C165.382 131.403 165.581 131.939 165.786 132.446" stroke="white" stroke-width="1.2" stroke-miterlimit="10" stroke-linecap="round" stroke-linejoin="round"/>
<path d="M168.253 124.803C167.502 123.594 166.688 122.639 165.981 121.927C165.016 120.957 164.261 120.44 164.144 120.362L161.799 119.007L157.665 116.619L155.486 115.356C154.278 114.659 152.791 114.659 151.587 115.356C150.388 116.048 150.388 117.784 151.587 118.476L153.015 119.3L155.701 120.85" stroke="white" stroke-width="1.2" stroke-miterlimit="10" stroke-linecap="round" stroke-linejoin="round"/>
<path d="M188.56 145.7L183.778 142.936L178.265 139.753L177.573 139.353L177.495 139.3C177.231 139.124 175.886 138.193 174.292 136.282H174.287C173.332 135.132 172.289 133.636 171.333 131.734C170.924 130.925 170.534 130.043 170.173 129.083" stroke="white" stroke-width="1.2" stroke-miterlimit="10" stroke-linecap="round" stroke-linejoin="round"/>
<path d="M202.901 153.977L198.124 151.218L193.342 148.459" stroke="white" stroke-width="1.2" stroke-miterlimit="10" stroke-linecap="round" stroke-linejoin="round"/>
<path d="M218.328 154.191V159.436L178.796 182.263L143.066 161.63C142.876 161.513 138.387 158.71 135.974 151.257C133.946 145.008 130.188 143.136 130.027 143.058L114.136 133.889V128.644L130.821 138.281C130.821 138.281 135.413 140.377 137.748 147.591C139.976 154.474 144.036 156.945 144.036 156.945L178.801 177.019L218.328 154.191Z" fill="#12FE74" stroke="white" stroke-width="1.2" stroke-miterlimit="10" stroke-linecap="round" stroke-linejoin="round"/>
<path d="M173.771 60.4498C173.771 61.8244 173.088 63.2087 171.728 63.9935L152.684 74.9904L103.856 103.18C100.907 104.881 97.2655 104.881 94.3165 103.18L45.4886 74.9807L26.444 63.9838C25.0791 63.199 24.4015 61.8244 24.4015 60.4449C24.4015 59.0654 25.084 57.686 26.444 56.9012L94.3213 17.7151C97.2704 16.0139 100.912 16.0139 103.861 17.7151L171.738 56.9012C173.088 57.6909 173.771 59.0752 173.771 60.4498Z" fill="black" stroke="white" stroke-width="1.2" stroke-miterlimit="10" stroke-linecap="round" stroke-linejoin="round"/>
<path d="M18.3375 147.991L12.7465 144.764" stroke="white" stroke-width="1.2" stroke-miterlimit="10" stroke-linecap="round" stroke-linejoin="round"/>
<path d="M36.0371 158.213L23.9288 151.223" stroke="white" stroke-width="1.2" stroke-miterlimit="10" stroke-linecap="round" stroke-linejoin="round"/>
<path d="M53.0003 129.726V129.785C52.9857 132.939 51.9035 135.176 50.1487 136.282L49.8416 136.463C47.9942 137.447 45.4838 137.257 42.7199 135.659C37.0411 132.383 32.4396 124.408 32.4396 117.852C32.4396 114.688 33.512 112.427 35.2619 111.31L35.6373 111.096C37.4701 110.141 39.9463 110.326 42.6711 111.89C42.6906 111.895 42.7053 111.91 42.7248 111.92C48.3938 115.191 53.0003 123.165 53.0003 129.726Z" fill="#12FE74" stroke="white" stroke-width="1.2" stroke-miterlimit="10" stroke-linecap="round" stroke-linejoin="round"/>
<path d="M60.1706 125.622C60.1706 128.8 59.0884 131.062 57.3238 132.178L56.9973 132.363L50.1437 136.283C51.8985 135.176 52.9807 132.934 52.9953 129.785V129.726C52.9953 123.17 48.3889 115.191 42.7101 111.915C42.6906 111.905 42.676 111.895 42.6565 111.886C39.9317 110.326 37.4554 110.136 35.6226 111.091L42.4226 107.206L42.7978 106.992C44.6404 106.027 47.1361 106.226 49.8805 107.811C55.569 111.091 60.1706 119.061 60.1706 125.622Z" fill="black" stroke="white" stroke-width="1.2" stroke-miterlimit="10" stroke-linecap="round" stroke-linejoin="round"/>
<path d="M43.3828 130.823V130.862C43.3731 132.802 42.7101 134.182 41.6279 134.864L41.4379 134.971C40.3021 135.576 38.7569 135.464 37.0508 134.479C33.5509 132.461 30.7189 127.547 30.7189 123.511C30.7189 121.562 31.3768 120.172 32.4541 119.48L32.6832 119.349C33.8141 118.759 35.335 118.876 37.0167 119.836C37.0264 119.841 37.0362 119.846 37.0508 119.855C40.5459 121.869 43.3828 126.782 43.3828 130.823Z" fill="#12FE74" stroke="white" stroke-width="1.2" stroke-miterlimit="10" stroke-linecap="round" stroke-linejoin="round"/>
<path d="M39.8732 128.766V128.785C39.9073 129.697 39.6441 130.36 39.1859 130.696L39.108 130.75C38.6254 131.057 37.9526 131.028 37.1922 130.599C35.6324 129.712 34.3066 127.46 34.2286 125.559C34.1896 124.642 34.4479 123.979 34.9061 123.633L35.0036 123.565C35.4813 123.268 36.1443 123.297 36.8949 123.716C36.8998 123.716 36.9047 123.721 36.9096 123.726C38.4645 124.613 39.7903 126.87 39.8732 128.766Z" fill="black" stroke="white" stroke-width="1.2" stroke-miterlimit="10" stroke-linecap="round" stroke-linejoin="round"/>
<path d="M47.7989 128.293C47.7989 130.248 47.1312 131.647 46.0491 132.329L45.8491 132.441L41.6279 134.859C42.71 134.177 43.3778 132.797 43.3827 130.857V130.818C43.3827 126.777 40.5458 121.864 37.0508 119.846C37.041 119.841 37.0312 119.831 37.0166 119.826C35.3398 118.866 33.814 118.749 32.6831 119.339L36.8703 116.945L37.1043 116.814C38.2401 116.219 39.7755 116.341 41.467 117.321C44.9668 119.344 47.7989 124.252 47.7989 128.293Z" fill="black" stroke="white" stroke-width="1.2" stroke-miterlimit="10" stroke-linecap="round" stroke-linejoin="round"/>
<path d="M85.2305 147.942V148.001C85.2159 151.155 84.1338 153.392 82.379 154.499L82.0718 154.679C80.2244 155.664 77.7141 155.473 74.9503 153.875C69.2715 150.599 64.6699 142.624 64.6699 136.068C64.6699 132.904 65.7423 130.643 67.4923 129.526L67.8676 129.312C69.7004 128.357 72.1766 128.542 74.9015 130.107C74.921 130.111 74.9357 130.126 74.9552 130.136C80.6242 133.407 85.2305 141.381 85.2305 147.942Z" fill="black" stroke="white" stroke-width="1.2" stroke-miterlimit="10" stroke-linecap="round" stroke-linejoin="round"/>
<path d="M92.401 143.838C92.401 147.016 91.319 149.278 89.5544 150.394L89.2277 150.579L82.3743 154.498C84.1291 153.392 85.2112 151.15 85.2258 148.001V147.942C85.2258 141.386 80.6243 133.406 74.9407 130.131C74.9212 130.121 74.9065 130.111 74.887 130.101C72.1622 128.542 69.686 128.352 67.8531 129.307L74.653 125.422L75.0284 125.208C76.871 124.242 79.3667 124.442 82.111 126.026C87.7996 129.307 92.401 137.282 92.401 143.838Z" fill="black" stroke="white" stroke-width="1.2" stroke-miterlimit="10" stroke-linecap="round" stroke-linejoin="round"/>
<path d="M75.613 149.039V149.073C75.6033 151.013 74.9355 152.393 73.8583 153.075L73.6681 153.182C72.5324 153.787 70.9871 153.675 69.2811 152.69C65.7812 150.672 62.9491 145.759 62.9491 141.723C62.9491 139.773 63.6072 138.384 64.6844 137.691L64.9135 137.56C66.0444 136.97 67.5652 137.087 69.2469 138.047C69.2567 138.052 69.2664 138.057 69.2811 138.067C72.7761 140.085 75.613 144.998 75.613 149.039Z" fill="black" stroke="white" stroke-width="1.2" stroke-miterlimit="10" stroke-linecap="round" stroke-linejoin="round"/>
<path d="M72.0985 146.982V147.001C72.1326 147.913 71.8694 148.576 71.4112 148.912L71.3331 148.966C70.8506 149.273 70.1779 149.244 69.4175 148.815C67.8576 147.928 66.5317 145.676 66.4538 143.775C66.4148 142.858 66.678 142.195 67.1314 141.849L67.2288 141.781C67.7065 141.484 68.3694 141.513 69.1201 141.932C69.125 141.932 69.1299 141.937 69.1347 141.942C70.6946 142.829 72.0205 145.086 72.0985 146.982Z" fill="#12FE74" stroke="white" stroke-width="1.2" stroke-miterlimit="10" stroke-linecap="round" stroke-linejoin="round"/>
<path d="M80.0294 146.509C80.0294 148.464 79.3615 149.863 78.2794 150.545L78.0796 150.657L73.8583 153.075C74.9405 152.393 75.6082 151.013 75.6131 149.073V149.039C75.6131 144.998 72.7761 140.084 69.2811 138.066C69.2714 138.062 69.2616 138.052 69.2469 138.047C67.5652 137.087 66.0445 136.97 64.9136 137.559L69.1008 135.166L69.3348 135.034C70.4705 134.44 72.006 134.562 73.6974 135.541C77.1924 137.559 80.0294 142.468 80.0294 146.509Z" fill="black" stroke="white" stroke-width="1.2" stroke-miterlimit="10" stroke-linecap="round" stroke-linejoin="round"/>
<path d="M72.2741 105.9V105.963C72.2546 107.767 71.3431 108.81 70.0172 108.81C69.4712 108.81 68.8522 108.629 68.199 108.254L43.7437 94.1327C41.4917 92.8361 39.6686 89.6725 39.6686 87.0744C39.6686 85.2318 40.585 84.1643 41.9255 84.1643C42.413 84.1643 42.9588 84.3106 43.5389 84.6128C43.6071 84.642 43.6755 84.681 43.7437 84.72L68.199 98.8414C70.451 100.138 72.2741 103.302 72.2741 105.9Z" fill="black" stroke="white" stroke-width="1.2" stroke-miterlimit="10" stroke-linecap="round" stroke-linejoin="round"/>
<path d="M72.2739 105.9V105.963C72.2057 105.929 72.1325 105.89 72.0643 105.851L47.6138 91.7344C45.3618 90.4329 43.5387 87.2743 43.5387 84.6713V84.6128C43.6069 84.642 43.6753 84.681 43.7435 84.72L68.1988 98.8414C70.4508 100.138 72.2739 103.302 72.2739 105.9Z" fill="#12FE74" stroke="white" stroke-width="1.2" stroke-miterlimit="10" stroke-linecap="round" stroke-linejoin="round"/>
<path d="M84.9087 113.197C84.9087 113.504 84.8844 113.787 84.8307 114.05C84.5919 115.361 83.768 116.102 82.6566 116.102C82.1058 116.102 81.4867 115.927 80.8336 115.546C78.5815 114.25 76.7585 111.086 76.7585 108.488C76.7585 106.646 77.6749 105.578 79.0154 105.578C79.1031 105.578 79.1958 105.583 79.2884 105.593C79.7612 105.642 80.2876 105.817 80.8336 106.134C81.9596 106.787 82.9784 107.898 83.7145 109.176C84.4554 110.453 84.9087 111.895 84.9087 113.197Z" fill="black" stroke="white" stroke-width="1.2" stroke-miterlimit="10" stroke-linecap="round" stroke-linejoin="round"/>
<path d="M84.9088 113.197C84.9088 113.504 84.8845 113.787 84.8309 114.05C84.3532 114.006 83.8315 113.83 83.2856 113.514C81.0336 112.217 79.2106 109.053 79.2106 106.455C79.2106 106.143 79.2349 105.856 79.2885 105.593C79.7613 105.641 80.2878 105.817 80.8337 106.134C81.9597 106.787 82.9786 107.898 83.7146 109.175C84.4555 110.452 84.9088 111.895 84.9088 113.197Z" fill="#12FE74" stroke="white" stroke-width="1.2" stroke-miterlimit="10" stroke-linecap="round" stroke-linejoin="round"/>
<path d="M156.925 45.8995V46.1677C156.89 47.5325 156.193 48.8633 154.843 49.6383L150.997 51.861L104.07 78.9535C100.98 80.7376 97.1779 80.7376 94.0778 78.9535L47.1607 51.861L43.3147 49.6383C41.9255 48.8389 41.2333 47.4399 41.2333 46.0312C41.2333 44.6322 41.9255 43.2234 43.3147 42.424L94.0778 13.1186C97.1731 11.3296 100.98 11.3296 104.07 13.1186L154.843 42.424C156.193 43.2039 156.89 44.5444 156.925 45.8995Z" fill="black" stroke="white" stroke-width="1.2" stroke-miterlimit="10" stroke-linecap="round" stroke-linejoin="round"/>
<path d="M156.925 46.1675V57.8224C156.89 59.1873 156.193 60.518 154.843 61.2931L104.07 90.6082C100.98 92.3923 97.1779 92.3923 94.0778 90.6082L43.3147 61.2931C41.9255 60.4937 41.2333 59.0947 41.2333 57.6859V46.031C41.2333 47.4397 41.9255 48.8387 43.3147 49.6381L47.1607 51.8609L94.0778 78.9534C97.1731 80.7374 100.98 80.7374 104.07 78.9534L150.997 51.8609L154.843 49.6381C156.193 48.8631 156.89 47.5324 156.925 46.1675Z" fill="black" stroke="white" stroke-width="1.2" stroke-miterlimit="10" stroke-linecap="round" stroke-linejoin="round"/>
<path d="M67.1266 67.3569V71.393" stroke="white" stroke-width="1.2" stroke-miterlimit="10" stroke-linecap="round" stroke-linejoin="round"/>
<path d="M63.7485 65.4072V69.4433" stroke="white" stroke-width="1.2" stroke-miterlimit="10" stroke-linecap="round" stroke-linejoin="round"/>
<path d="M60.3705 63.4575V67.4936" stroke="white" stroke-width="1.2" stroke-miterlimit="10" stroke-linecap="round" stroke-linejoin="round"/>
<path d="M56.9926 61.5076V65.5437" stroke="white" stroke-width="1.2" stroke-miterlimit="10" stroke-linecap="round" stroke-linejoin="round"/>
<path d="M53.6144 59.5579V63.594" stroke="white" stroke-width="1.2" stroke-miterlimit="10" stroke-linecap="round" stroke-linejoin="round"/>
<path d="M92.1912 64.7834L66.605 50.0137L67.6725 41.4443L91.1286 27.903L105.967 27.2839L131.553 42.0585L130.49 50.6279L107.034 64.1692L92.1912 64.7834Z" fill="black" stroke="white" stroke-width="1.2" stroke-miterlimit="10" stroke-linecap="round" stroke-linejoin="round"/>
<path d="M99.079 35.8044C100.385 35.8044 101.443 35.1933 101.443 34.4395C101.443 33.6857 100.385 33.0747 99.079 33.0747C97.7733 33.0747 96.7148 33.6857 96.7148 34.4395C96.7148 35.1933 97.7733 35.8044 99.079 35.8044Z" fill="white"/>
<path d="M105.772 39.6699C107.077 39.6699 108.136 39.0589 108.136 38.3051C108.136 37.5513 107.077 36.9402 105.772 36.9402C104.466 36.9402 103.407 37.5513 103.407 38.3051C103.407 39.0589 104.466 39.6699 105.772 39.6699Z" fill="white"/>
<path d="M112.469 43.5354C113.775 43.5354 114.833 42.9243 114.833 42.1705C114.833 41.4167 113.775 40.8057 112.469 40.8057C111.164 40.8057 110.105 41.4167 110.105 42.1705C110.105 42.9243 111.164 43.5354 112.469 43.5354Z" fill="white"/>
<path d="M119.162 47.4007C120.467 47.4007 121.526 46.7896 121.526 46.0358C121.526 45.282 120.467 44.6709 119.162 44.6709C117.856 44.6709 116.798 45.282 116.798 46.0358C116.798 46.7896 117.856 47.4007 119.162 47.4007Z" fill="white"/>
<path d="M92.3863 39.6699C93.6919 39.6699 94.7503 39.0589 94.7503 38.3051C94.7503 37.5513 93.6919 36.9402 92.3863 36.9402C91.0806 36.9402 90.0221 37.5513 90.0221 38.3051C90.0221 39.0589 91.0806 39.6699 92.3863 39.6699Z" fill="white"/>
<path d="M99.079 43.5354C100.385 43.5354 101.443 42.9243 101.443 42.1705C101.443 41.4167 100.385 40.8057 99.079 40.8057C97.7733 40.8057 96.7148 41.4167 96.7148 42.1705C96.7148 42.9243 97.7733 43.5354 99.079 43.5354Z" fill="white"/>
<path d="M105.776 47.4007C107.082 47.4007 108.14 46.7896 108.14 46.0358C108.14 45.282 107.082 44.6709 105.776 44.6709C104.471 44.6709 103.412 45.282 103.412 46.0358C103.412 46.7896 104.471 47.4007 105.776 47.4007Z" fill="white"/>
<path d="M112.469 51.2663C113.775 51.2663 114.833 50.6553 114.833 49.9015C114.833 49.1477 113.775 48.5366 112.469 48.5366C111.164 48.5366 110.105 49.1477 110.105 49.9015C110.105 50.6553 111.164 51.2663 112.469 51.2663Z" fill="white"/>
<path d="M85.6935 43.5354C86.9992 43.5354 88.0577 42.9243 88.0577 42.1705C88.0577 41.4167 86.9992 40.8057 85.6935 40.8057C84.3879 40.8057 83.3295 41.4167 83.3295 42.1705C83.3295 42.9243 84.3879 43.5354 85.6935 43.5354Z" fill="white"/>
<path d="M92.3863 47.4007C93.6919 47.4007 94.7503 46.7896 94.7503 46.0358C94.7503 45.282 93.6919 44.6709 92.3863 44.6709C91.0806 44.6709 90.0221 45.282 90.0221 46.0358C90.0221 46.7896 91.0806 47.4007 92.3863 47.4007Z" fill="white"/>
<path d="M99.079 51.2663C100.385 51.2663 101.443 50.6553 101.443 49.9015C101.443 49.1477 100.385 48.5366 99.079 48.5366C97.7733 48.5366 96.7148 49.1477 96.7148 49.9015C96.7148 50.6553 97.7733 51.2663 99.079 51.2663Z" fill="white"/>
<path d="M105.776 55.1269C107.082 55.1269 108.14 54.5158 108.14 53.762C108.14 53.0082 107.082 52.3972 105.776 52.3972C104.471 52.3972 103.412 53.0082 103.412 53.762C103.412 54.5158 104.471 55.1269 105.776 55.1269Z" fill="white"/>
<path d="M79.0009 47.4007C80.3066 47.4007 81.3651 46.7896 81.3651 46.0358C81.3651 45.282 80.3066 44.6709 79.0009 44.6709C77.6952 44.6709 76.6368 45.282 76.6368 46.0358C76.6368 46.7896 77.6952 47.4007 79.0009 47.4007Z" fill="white"/>
<path d="M85.6935 51.2663C86.9992 51.2663 88.0577 50.6553 88.0577 49.9015C88.0577 49.1477 86.9992 48.5366 85.6935 48.5366C84.3879 48.5366 83.3295 49.1477 83.3295 49.9015C83.3295 50.6553 84.3879 51.2663 85.6935 51.2663Z" fill="white"/>
<path d="M92.3863 55.1269C93.6919 55.1269 94.7503 54.5158 94.7503 53.762C94.7503 53.0082 93.6919 52.3972 92.3863 52.3972C91.0806 52.3972 90.0221 53.0082 90.0221 53.762C90.0221 54.5158 91.0806 55.1269 92.3863 55.1269Z" fill="white"/>
<path d="M99.079 58.9924C100.385 58.9924 101.443 58.3814 101.443 57.6276C101.443 56.8738 100.385 56.2627 99.079 56.2627C97.7733 56.2627 96.7148 56.8738 96.7148 57.6276C96.7148 58.3814 97.7733 58.9924 99.079 58.9924Z" fill="white"/>
<path d="M150.903 58.7716C151.29 57.86 151.187 56.9432 150.672 56.724C150.157 56.5047 149.425 57.0659 149.037 57.9775C148.649 58.8892 148.752 59.806 149.267 60.0252C149.782 60.2445 150.515 59.6833 150.903 58.7716Z" fill="black"/>
<path d="M145.876 61.6788C146.263 60.7672 146.16 59.8504 145.645 59.6312C145.13 59.4119 144.398 59.9731 144.01 60.8848C143.622 61.7964 143.725 62.7132 144.24 62.9324C144.755 63.1517 145.488 62.5905 145.876 61.6788Z" fill="black"/>
<path d="M140.846 64.5795C141.234 63.6678 141.131 62.751 140.615 62.5317C140.1 62.3124 139.368 62.8738 138.98 63.7854C138.592 64.697 138.695 65.6138 139.211 65.8331C139.726 66.0523 140.458 65.4911 140.846 64.5795Z" fill="black"/>
<path d="M150.792 84.3836C150.792 85.2659 151.06 85.8996 151.504 86.2115L151.509 86.2164L151.694 86.3188L154.19 87.7518C153.873 87.5325 153.644 87.1474 153.542 86.6307C153.493 86.4162 153.473 86.1774 153.473 85.919C153.473 84.2032 154.521 82.2047 155.808 81.454C155.886 81.4053 155.959 81.3712 156.037 81.337C156.491 81.1372 156.91 81.1225 157.251 81.2882L154.653 79.7869L154.614 79.7674C154.214 79.5627 153.698 79.5968 153.132 79.9185C151.84 80.6643 150.792 82.6629 150.792 84.3836Z" fill="black" stroke="white" stroke-width="1.2" stroke-miterlimit="10" stroke-linecap="round" stroke-linejoin="round"/>
<path d="M153.473 85.9191C153.473 86.1725 153.493 86.4163 153.542 86.6308C153.644 87.1475 153.873 87.5325 154.19 87.7519C154.205 87.7665 154.219 87.7812 154.239 87.786L154.356 87.8543C154.755 88.0493 155.257 88.0054 155.808 87.6885C157.105 86.9378 158.143 84.9393 158.143 83.2235C158.143 82.3412 157.865 81.7027 157.427 81.3907C157.422 81.3858 157.412 81.3761 157.397 81.3712L157.246 81.2883C156.91 81.1226 156.491 81.1372 156.032 81.3371C155.955 81.3712 155.881 81.4053 155.803 81.4541C154.521 82.2096 153.473 84.2032 153.473 85.9191Z" fill="#12FE74" stroke="white" stroke-width="1.2" stroke-miterlimit="10" stroke-linecap="round" stroke-linejoin="round"/>
<path d="M141.126 89.8919C141.126 90.7741 141.394 91.4078 141.838 91.7198L141.843 91.7247L142.028 91.827L144.524 93.2601C144.207 93.0408 143.978 92.6557 143.875 92.139C143.827 91.9245 143.807 91.6857 143.807 91.4273C143.807 89.7115 144.855 87.713 146.142 86.9623C146.22 86.9135 146.293 86.8794 146.371 86.8453C146.825 86.6454 147.244 86.6308 147.585 86.7966L144.987 85.2952L144.948 85.2757C144.548 85.071 144.031 85.1051 143.466 85.4268C142.174 86.1726 141.126 88.1712 141.126 89.8919Z" fill="black" stroke="white" stroke-width="1.2" stroke-miterlimit="10" stroke-linecap="round" stroke-linejoin="round"/>
<path d="M143.807 91.432C143.807 91.6855 143.827 91.9292 143.875 92.1437C143.978 92.6604 144.207 93.0455 144.524 93.2648C144.538 93.2795 144.553 93.2941 144.572 93.2989L144.689 93.3672C145.089 93.5622 145.591 93.5183 146.142 93.2015C147.439 92.4508 148.477 90.4522 148.477 88.7364C148.477 87.8541 148.199 87.2156 147.76 86.9036C147.756 86.8987 147.746 86.889 147.731 86.8841L147.58 86.8013C147.244 86.6355 146.825 86.6501 146.366 86.85C146.288 86.8841 146.215 86.9182 146.137 86.967C144.855 87.7176 143.807 89.7162 143.807 91.432Z" fill="black" stroke="white" stroke-width="1.2" stroke-miterlimit="10" stroke-linecap="round" stroke-linejoin="round"/>
</svg>
