<svg width="222" height="223" viewBox="0 0 222 223" fill="none" xmlns="http://www.w3.org/2000/svg">
<path d="M201 142.864C201 144.012 200.163 145.234 198.519 146.189L176.467 158.918C173.468 160.659 168.936 160.836 166.322 159.34L95.6179 118.472C94.5219 117.842 93.9369 117.005 93.8777 116.117V115.732C93.9591 114.636 94.7959 113.525 96.3436 112.636L118.411 99.8921C121.41 98.1668 125.942 97.9742 128.541 99.47L199.26 140.332C200.437 141.005 201 141.909 201 142.864Z" fill="black" stroke="white" stroke-width="1.2" stroke-miterlimit="10" stroke-linecap="round"/>
<path d="M201 49.5078C201 50.6556 200.164 51.8774 198.52 52.8327L176.467 65.5621C173.468 67.3023 168.936 67.48 166.322 65.9842L95.6254 25.1227C94.5295 24.4933 93.9445 23.6565 93.8853 22.7679V22.3828C93.9667 21.2869 94.8035 20.1761 96.3511 19.2875L118.418 6.54326C121.417 4.81787 125.949 4.62534 128.549 6.12117L199.268 46.9826C200.438 47.6491 201 48.5525 201 49.5078Z" fill="black" stroke="white" stroke-width="1.2" stroke-miterlimit="10" stroke-linecap="round" stroke-linejoin="round"/>
<path d="M201 49.5078V125.388C201 126.536 200.164 127.758 198.52 128.713L176.467 141.442C173.468 143.183 168.936 143.36 166.322 141.864L95.6254 101.025C94.5295 100.396 93.9445 99.5442 93.8853 98.6556V22.7605C93.9519 23.6491 94.5295 24.4859 95.6254 25.1153L166.322 65.9768C168.936 67.48 173.468 67.3023 176.467 65.5547L198.52 52.8253C200.164 51.8774 201 50.6482 201 49.5078Z" fill="black" stroke="white" stroke-width="1.2" stroke-miterlimit="10" stroke-linecap="round"/>
<path d="M181.562 47.4639V42.0063C181.562 40.8067 180.717 40.318 179.681 40.9178L168.321 47.4787C167.285 48.0785 166.44 49.5373 166.44 50.737V56.1945" stroke="white" stroke-width="1.2" stroke-miterlimit="10" stroke-linecap="round" stroke-linejoin="round"/>
<path d="M176.415 44.502V39.0444C176.415 37.8448 175.571 37.3561 174.534 37.9559L163.175 44.5168C162.138 45.1166 161.294 46.5754 161.294 47.7751V53.2326" stroke="white" stroke-width="1.2" stroke-miterlimit="10" stroke-linecap="round" stroke-linejoin="round"/>
<path d="M171.268 41.5325V36.0749C171.268 34.8753 170.424 34.3866 169.387 34.9864L158.028 41.5473C156.991 42.1471 156.147 43.6059 156.147 44.8056V50.2631" stroke="white" stroke-width="1.2" stroke-miterlimit="10" stroke-linecap="round" stroke-linejoin="round"/>
<path d="M166.122 38.5704V33.1128C166.122 31.9132 165.277 31.4244 164.241 32.0242L152.881 38.5852C151.844 39.185 151 40.6438 151 41.8434V47.301" stroke="white" stroke-width="1.2" stroke-miterlimit="10" stroke-linecap="round" stroke-linejoin="round"/>
<path d="M160.975 35.6011V30.1435C160.975 28.9439 160.131 28.4552 159.094 29.055L147.735 35.6159C146.698 36.2157 145.854 37.6746 145.854 38.8742V44.3318" stroke="white" stroke-width="1.2" stroke-miterlimit="10" stroke-linecap="round" stroke-linejoin="round"/>
<path d="M155.828 32.639V27.1814C155.828 25.9818 154.984 25.493 153.947 26.0928L142.588 32.6538C141.551 33.2536 140.707 34.7124 140.707 35.912V41.3696" stroke="white" stroke-width="1.2" stroke-miterlimit="10" stroke-linecap="round" stroke-linejoin="round"/>
<path d="M150.682 29.6695V24.2119C150.682 23.0123 149.838 22.5235 148.801 23.1234L137.442 29.6843C136.405 30.2841 135.561 31.7429 135.561 32.9425V38.4001" stroke="white" stroke-width="1.2" stroke-miterlimit="10" stroke-linecap="round" stroke-linejoin="round"/>
<path d="M145.543 26.7074V21.2424C145.543 20.0428 144.699 19.5541 143.662 20.1539L132.303 26.7148C131.266 27.3146 130.422 28.7734 130.422 29.9731V35.4306" stroke="white" stroke-width="1.2" stroke-miterlimit="10" stroke-linecap="round" stroke-linejoin="round"/>
<path d="M140.396 23.7381V18.2805C140.396 17.0809 139.552 16.5921 138.515 17.192L127.156 23.7529C126.119 24.3527 125.275 25.8115 125.275 27.0111V32.4687" stroke="white" stroke-width="1.2" stroke-miterlimit="10" stroke-linecap="round" stroke-linejoin="round"/>
<path d="M135.249 20.7759V15.3183C135.249 14.1187 134.405 13.63 133.369 14.2298L122.009 20.7907C120.973 21.3905 120.128 22.8494 120.128 24.049V29.5066" stroke="white" stroke-width="1.2" stroke-miterlimit="10" stroke-linecap="round" stroke-linejoin="round"/>
<path d="M130.103 17.8064V12.3489C130.103 11.1492 129.259 10.6605 128.222 11.2603L116.863 17.8213C115.826 18.4211 114.982 19.8799 114.982 21.0795V26.5371" stroke="white" stroke-width="1.2" stroke-miterlimit="10" stroke-linecap="round" stroke-linejoin="round"/>
<path d="M180.051 74.5221V87.6958C180.051 88.0587 180.236 88.3475 180.495 88.5104L180.584 88.5622C180.865 88.7103 181.213 88.7252 181.517 88.54L193.232 81.7792C193.906 81.3867 194.328 80.661 194.328 79.8686V66.7097C194.328 66.3617 194.158 66.0729 193.906 65.91L193.765 65.8211C193.491 65.6952 193.151 65.6878 192.862 65.8581L190.455 67.2503L189.952 67.5391L187.819 68.7758L181.154 72.6264C180.473 73.0189 180.051 73.7446 180.051 74.5221Z" fill="#12FE74" stroke="white" stroke-width="1.2" stroke-miterlimit="10" stroke-linecap="round" stroke-linejoin="round"/>
<path d="M180.051 74.5221V81.2681L186.716 77.4175C187.397 77.0176 187.819 76.2993 187.819 75.507V68.7683L181.154 72.619C180.473 73.0188 180.051 73.7445 180.051 74.5221Z" fill="black" stroke="white" stroke-width="1.2" stroke-miterlimit="10" stroke-linecap="round" stroke-linejoin="round"/>
<path d="M180.051 95.227V108.401C180.051 108.764 180.236 109.052 180.495 109.215L180.584 109.267C180.865 109.415 181.213 109.43 181.517 109.245L193.232 102.484C193.906 102.092 194.328 101.366 194.328 100.574V87.4072C194.328 87.0592 194.158 86.7704 193.906 86.6075L193.765 86.5186C193.491 86.3927 193.151 86.3853 192.862 86.5556L190.455 87.9478L189.952 88.2366L187.819 89.4733L181.154 93.3239C180.473 93.7164 180.051 94.4421 180.051 95.227Z" fill="#12FE74" stroke="white" stroke-width="1.2" stroke-miterlimit="10" stroke-linecap="round" stroke-linejoin="round"/>
<path d="M180.051 95.2272V101.973L186.716 98.1226C187.397 97.7227 187.819 97.0044 187.819 96.2121V89.4734L181.154 93.324C180.473 93.7165 180.051 94.4422 180.051 95.2272Z" fill="black" stroke="white" stroke-width="1.2" stroke-miterlimit="10" stroke-linecap="round" stroke-linejoin="round"/>
<path d="M180.051 115.924V129.098C180.051 129.461 180.236 129.75 180.495 129.913L180.584 129.964C180.865 130.113 181.213 130.127 181.517 129.942L193.232 123.181C193.906 122.789 194.328 122.063 194.328 121.271V108.105C194.328 107.756 194.158 107.468 193.906 107.305L193.765 107.216C193.491 107.09 193.151 107.083 192.862 107.253L190.455 108.645L189.952 108.934L187.819 110.171L181.154 114.021C180.473 114.414 180.051 115.147 180.051 115.924Z" fill="#12FE74" stroke="white" stroke-width="1.2" stroke-miterlimit="10" stroke-linecap="round" stroke-linejoin="round"/>
<path d="M180.051 115.924V122.67L186.716 118.82C187.397 118.42 187.819 117.701 187.819 116.909V110.17L181.154 114.021C180.473 114.414 180.051 115.147 180.051 115.924Z" fill="black" stroke="white" stroke-width="1.2" stroke-miterlimit="10" stroke-linecap="round" stroke-linejoin="round"/>
<path d="M158.561 167.183C158.561 168.33 157.724 169.552 156.081 170.508L134.021 183.23C131.022 184.97 126.49 185.147 123.876 183.652L53.1789 142.79C52.0829 142.161 51.498 141.324 51.4387 140.435V140.05C51.5202 138.954 52.357 137.844 53.9047 136.955L75.9719 124.211C78.971 122.485 83.5029 122.293 86.1021 123.789L156.821 164.65C157.991 165.324 158.561 166.227 158.561 167.183Z" fill="black" stroke="white" stroke-width="1.2" stroke-miterlimit="10" stroke-linecap="round"/>
<path d="M158.561 73.8262C158.561 74.974 157.724 76.1959 156.081 77.1511L134.021 89.8731C131.022 91.6133 126.49 91.791 123.876 90.2952L53.1789 49.4337C52.0829 48.8043 51.498 47.9675 51.4387 47.0789V46.6939C51.5202 45.5979 52.357 44.4871 53.9047 43.5985L75.9719 30.8543C78.971 29.1289 83.5029 28.9364 86.1021 30.4322L156.821 71.2937C157.991 71.9675 158.561 72.871 158.561 73.8262Z" fill="black" stroke="white" stroke-width="1.2" stroke-miterlimit="10" stroke-linecap="round" stroke-linejoin="round"/>
<path d="M158.561 73.8262V149.706C158.561 150.854 157.724 152.076 156.081 153.031L134.021 165.753C131.022 167.494 126.49 167.671 123.876 166.175L53.1789 125.336C52.0829 124.707 51.498 123.855 51.4387 122.967V47.0789C51.5054 47.9675 52.0829 48.8043 53.1789 49.4337L123.876 90.2951C126.49 91.7984 131.022 91.6207 134.021 89.8731L156.073 77.1437C157.717 76.1958 158.561 74.9665 158.561 73.8262Z" fill="black" stroke="white" stroke-width="1.2" stroke-miterlimit="10" stroke-linecap="round"/>
<path d="M139.115 71.7823V66.3247C139.115 65.1251 138.271 64.6363 137.234 65.2361L125.875 71.7971C124.838 72.3969 123.994 73.8557 123.994 75.0553V80.5129" stroke="white" stroke-width="1.2" stroke-miterlimit="10" stroke-linecap="round" stroke-linejoin="round"/>
<path d="M133.969 68.8201V63.3625C133.969 62.1629 133.124 61.6742 132.088 62.274L120.728 68.8349C119.692 69.4347 118.847 70.8935 118.847 72.0932V77.5508" stroke="white" stroke-width="1.2" stroke-miterlimit="10" stroke-linecap="round" stroke-linejoin="round"/>
<path d="M128.829 65.8506V60.3931C128.829 59.1934 127.985 58.7047 126.948 59.3045L115.589 65.8654C114.552 66.4653 113.708 67.9241 113.708 69.1237V74.5813" stroke="white" stroke-width="1.2" stroke-miterlimit="10" stroke-linecap="round" stroke-linejoin="round"/>
<path d="M123.683 62.8887V57.4311C123.683 56.2315 122.839 55.7428 121.802 56.3426L110.443 62.9035C109.406 63.5033 108.562 64.9621 108.562 66.1618V71.6193" stroke="white" stroke-width="1.2" stroke-miterlimit="10" stroke-linecap="round" stroke-linejoin="round"/>
<path d="M118.536 59.9192V54.4617C118.536 53.262 117.692 52.7733 116.656 53.3731L105.296 59.934C104.259 60.5339 103.415 61.9927 103.415 63.1923V68.6499" stroke="white" stroke-width="1.2" stroke-miterlimit="10" stroke-linecap="round" stroke-linejoin="round"/>
<path d="M113.39 56.9571V51.4995C113.39 50.2999 112.546 49.8111 111.509 50.4109L100.15 56.9719C99.113 57.5717 98.2688 59.0305 98.2688 60.2301V65.6877" stroke="white" stroke-width="1.2" stroke-miterlimit="10" stroke-linecap="round" stroke-linejoin="round"/>
<path d="M108.243 53.9878V48.5303C108.243 47.3306 107.399 46.8419 106.362 47.4417L95.003 54.0026C93.9663 54.6025 93.1221 56.0613 93.1221 57.2609V62.7185" stroke="white" stroke-width="1.2" stroke-miterlimit="10" stroke-linecap="round" stroke-linejoin="round"/>
<path d="M103.097 51.0257V45.5681C103.097 44.3685 102.253 43.8797 101.216 44.4796L89.8564 51.0405C88.8197 51.6403 87.9755 53.0991 87.9755 54.2987V59.7563" stroke="white" stroke-width="1.2" stroke-miterlimit="10" stroke-linecap="round" stroke-linejoin="round"/>
<path d="M97.9503 48.0564V42.5989C97.9503 41.3992 97.1061 40.9105 96.0693 41.5103L84.7099 48.0713C83.6732 48.6711 82.829 50.1299 82.829 51.3295V56.7871" stroke="white" stroke-width="1.2" stroke-miterlimit="10" stroke-linecap="round" stroke-linejoin="round"/>
<path d="M92.8111 45.094V39.6365C92.8111 38.4368 91.967 37.9481 90.9303 38.5479L79.5708 45.1088C78.5341 45.7087 77.6899 47.1675 77.6899 48.3671V53.8247" stroke="white" stroke-width="1.2" stroke-miterlimit="10" stroke-linecap="round" stroke-linejoin="round"/>
<path d="M87.6646 42.1248V36.6672C87.6646 35.4676 86.8204 34.9789 85.7837 35.5787L74.4243 42.1396C73.3875 42.7394 72.5433 44.1982 72.5433 45.3979V50.8554" stroke="white" stroke-width="1.2" stroke-miterlimit="10" stroke-linecap="round" stroke-linejoin="round"/>
<path d="M137.612 98.8406V112.014C137.612 112.377 137.797 112.666 138.056 112.829L138.145 112.881C138.427 113.029 138.767 113.044 139.078 112.858L150.793 106.098C151.467 105.705 151.889 104.979 151.889 104.187V91.0208C151.889 90.6727 151.719 90.3839 151.467 90.221L151.326 90.1321C151.052 90.0063 150.712 89.9989 150.423 90.1692L148.016 91.5613L147.513 91.8501L145.38 93.0868L138.716 96.9375C138.034 97.3373 137.612 98.063 137.612 98.8406Z" fill="#12FE74" stroke="white" stroke-width="1.2" stroke-miterlimit="10" stroke-linecap="round" stroke-linejoin="round"/>
<path d="M137.612 98.8407V105.587L144.277 101.736C144.958 101.336 145.38 100.618 145.38 99.8256V93.0869L138.716 96.9376C138.034 97.3375 137.612 98.0632 137.612 98.8407Z" fill="black" stroke="white" stroke-width="1.2" stroke-miterlimit="10" stroke-linecap="round" stroke-linejoin="round"/>
<path d="M137.612 119.545V132.719C137.612 133.082 137.797 133.371 138.056 133.534L138.145 133.585C138.427 133.734 138.767 133.748 139.078 133.563L150.793 126.802C151.467 126.41 151.889 125.684 151.889 124.892V111.733C151.889 111.385 151.719 111.096 151.467 110.933L151.326 110.844C151.052 110.718 150.712 110.711 150.423 110.881L148.016 112.274L147.513 112.562L145.38 113.799L138.716 117.65C138.034 118.035 137.612 118.76 137.612 119.545Z" fill="#12FE74" stroke="white" stroke-width="1.2" stroke-miterlimit="10" stroke-linecap="round" stroke-linejoin="round"/>
<path d="M137.612 119.545V126.291L144.277 122.441C144.958 122.041 145.38 121.323 145.38 120.53V113.792L138.716 117.642C138.034 118.035 137.612 118.76 137.612 119.545Z" fill="black" stroke="white" stroke-width="1.2" stroke-miterlimit="10" stroke-linecap="round" stroke-linejoin="round"/>
<path d="M137.612 140.243V153.416C137.612 153.779 137.797 154.068 138.056 154.231L138.145 154.283C138.427 154.431 138.767 154.446 139.078 154.261L150.793 147.5C151.467 147.107 151.889 146.382 151.889 145.589V132.423C151.889 132.075 151.719 131.786 151.467 131.623L151.326 131.534C151.052 131.408 150.712 131.401 150.423 131.571L148.016 132.963L147.513 133.252L145.38 134.489L138.716 138.34C138.034 138.732 137.612 139.465 137.612 140.243Z" fill="#12FE74" stroke="white" stroke-width="1.2" stroke-miterlimit="10" stroke-linecap="round" stroke-linejoin="round"/>
<path d="M137.612 140.243V146.989L144.277 143.138C144.958 142.738 145.38 142.02 145.38 141.228V134.489L138.716 138.34C138.034 138.732 137.612 139.465 137.612 140.243Z" fill="black" stroke="white" stroke-width="1.2" stroke-miterlimit="10" stroke-linecap="round" stroke-linejoin="round"/>
<path d="M116.115 191.501C116.115 192.649 115.278 193.871 113.634 194.826L91.5818 207.555C88.5828 209.296 84.0509 209.473 81.4369 207.978L10.7402 167.116C9.64423 166.487 9.05924 165.65 9 164.761V164.376C9.08146 163.28 9.9182 162.169 11.4659 161.281L33.5332 148.537C36.5322 146.811 41.0641 146.619 43.6633 148.115L114.382 188.976C115.552 189.642 116.115 190.546 116.115 191.501Z" fill="black" stroke="white" stroke-width="1.2" stroke-miterlimit="10" stroke-linecap="round"/>
<path d="M116.115 98.1447C116.115 99.2925 115.278 100.514 113.634 101.47L91.5818 114.199C88.5828 115.939 84.0509 116.117 81.4369 114.621L10.7402 73.7597C9.64423 73.1302 9.05924 72.2935 9 71.4048V71.0198C9.08146 69.9238 9.9182 68.8131 11.4659 67.9244L33.5332 55.1802C36.5322 53.4548 41.0641 53.2623 43.6633 54.7581L114.382 95.6196C115.552 96.286 116.115 97.1895 116.115 98.1447Z" fill="black" stroke="white" stroke-width="1.2" stroke-miterlimit="10" stroke-linecap="round" stroke-linejoin="round"/>
<path d="M116.115 98.1448V174.025C116.115 175.173 115.278 176.395 113.634 177.35L91.5818 190.079C88.5828 191.82 84.0509 191.997 81.4369 190.501L10.7402 149.662C9.64423 149.033 9.05924 148.181 9 147.293V71.3975C9.06665 72.2861 9.64423 73.1229 10.7402 73.7523L81.4369 114.614C84.0509 116.117 88.5828 115.939 91.5818 114.192L113.634 101.462C115.278 100.514 116.115 99.2852 116.115 98.1448Z" fill="black" stroke="white" stroke-width="1.2" stroke-miterlimit="10" stroke-linecap="round"/>
<path d="M96.6765 96.1009V90.6433C96.6765 89.4437 95.8324 88.9549 94.7957 89.5547L83.4361 96.1157C82.3994 96.7155 81.5553 98.1743 81.5553 99.3739V104.832" stroke="white" stroke-width="1.2" stroke-miterlimit="10" stroke-linecap="round" stroke-linejoin="round"/>
<path d="M91.53 93.139V87.6814C91.53 86.4818 90.6858 85.993 89.649 86.5928L78.2896 93.1538C77.2529 93.7536 76.4087 95.2124 76.4087 96.412V101.87" stroke="white" stroke-width="1.2" stroke-miterlimit="10" stroke-linecap="round" stroke-linejoin="round"/>
<path d="M86.3835 90.1692V84.7117C86.3835 83.512 85.5393 83.0233 84.5026 83.6231L73.1431 90.184C72.1064 90.7839 71.2622 92.2427 71.2622 93.4423V98.8999" stroke="white" stroke-width="1.2" stroke-miterlimit="10" stroke-linecap="round" stroke-linejoin="round"/>
<path d="M81.2368 87.2073V81.7497C81.2368 80.5501 80.3927 80.0614 79.356 80.6612L67.9964 87.2221C66.9597 87.8219 66.1156 89.2807 66.1156 90.4804V95.938" stroke="white" stroke-width="1.2" stroke-miterlimit="10" stroke-linecap="round" stroke-linejoin="round"/>
<path d="M76.0977 84.2381V78.7805C76.0977 77.5809 75.2535 77.0921 74.2168 77.692L62.8574 84.2529C61.8207 84.8527 60.9764 86.3115 60.9764 87.5112V92.9687" stroke="white" stroke-width="1.2" stroke-miterlimit="10" stroke-linecap="round" stroke-linejoin="round"/>
<path d="M70.9509 81.2759V75.8183C70.9509 74.6187 70.1068 74.13 69.0701 74.7298L57.7106 81.2907C56.6738 81.8905 55.8297 83.3494 55.8297 84.549V90.0066" stroke="white" stroke-width="1.2" stroke-miterlimit="10" stroke-linecap="round" stroke-linejoin="round"/>
<path d="M65.8046 78.3064V72.8489C65.8046 71.6492 64.9604 71.1605 63.9237 71.7603L52.5643 78.3213C51.5276 78.9211 50.6833 80.3799 50.6833 81.5795V87.0371" stroke="white" stroke-width="1.2" stroke-miterlimit="10" stroke-linecap="round" stroke-linejoin="round"/>
<path d="M60.6579 75.3445V69.887C60.6579 68.6873 59.8137 68.1986 58.777 68.7984L47.4176 75.3593C46.3808 75.9592 45.5366 77.418 45.5366 78.6176V84.0752" stroke="white" stroke-width="1.2" stroke-miterlimit="10" stroke-linecap="round" stroke-linejoin="round"/>
<path d="M55.5115 72.3748V66.9172C55.5115 65.7176 54.6672 65.2289 53.6305 65.8287L42.2711 72.3896C41.2344 72.9894 40.3903 74.4482 40.3903 75.6479V81.1054" stroke="white" stroke-width="1.2" stroke-miterlimit="10" stroke-linecap="round" stroke-linejoin="round"/>
<path d="M50.3648 69.4129V63.9553C50.3648 62.7557 49.5206 62.2669 48.4839 62.8668L37.1245 69.4277C36.0877 70.0275 35.2435 71.4863 35.2435 72.6859V78.1435" stroke="white" stroke-width="1.2" stroke-miterlimit="10" stroke-linecap="round" stroke-linejoin="round"/>
<path d="M45.2182 66.4434V60.9858C45.2182 59.7862 44.3741 59.2975 43.3374 59.8973L31.9779 66.4582C30.9412 67.058 30.097 68.5168 30.097 69.7165V75.174" stroke="white" stroke-width="1.2" stroke-miterlimit="10" stroke-linecap="round" stroke-linejoin="round"/>
<path d="M95.1733 123.159V136.333C95.1733 136.696 95.3584 136.985 95.6176 137.147L95.7065 137.199C95.9879 137.347 96.3359 137.362 96.6395 137.177L108.354 130.416C109.028 130.024 109.45 129.298 109.45 128.506V115.339C109.45 114.991 109.28 114.703 109.028 114.54L108.888 114.451C108.614 114.325 108.273 114.317 107.984 114.488L105.577 115.88L105.074 116.169L102.941 117.405L96.2767 121.256C95.588 121.656 95.1733 122.382 95.1733 123.159Z" fill="#12FE74" stroke="white" stroke-width="1.2" stroke-miterlimit="10" stroke-linecap="round" stroke-linejoin="round"/>
<path d="M95.1735 123.159V129.905L101.838 126.054C102.519 125.655 102.941 124.936 102.941 124.144V117.405L96.2768 121.256C95.5881 121.656 95.1735 122.382 95.1735 123.159Z" fill="black" stroke="white" stroke-width="1.2" stroke-miterlimit="10" stroke-linecap="round" stroke-linejoin="round"/>
<path d="M95.1733 143.864V157.038C95.1733 157.401 95.3584 157.689 95.6176 157.852L95.7065 157.904C95.9879 158.052 96.3359 158.067 96.6395 157.882L108.354 151.121C109.028 150.729 109.45 150.003 109.45 149.211V136.044C109.45 135.696 109.28 135.407 109.028 135.244L108.888 135.156C108.614 135.03 108.273 135.022 107.984 135.193L105.577 136.585L105.074 136.874L102.941 138.11L96.2767 141.961C95.588 142.353 95.1733 143.079 95.1733 143.864Z" fill="#12FE74" stroke="white" stroke-width="1.2" stroke-miterlimit="10" stroke-linecap="round" stroke-linejoin="round"/>
<path d="M95.1735 143.864V150.61L101.838 146.76C102.519 146.36 102.941 145.641 102.941 144.849V138.11L96.2768 141.961C95.5881 142.353 95.1735 143.079 95.1735 143.864Z" fill="black" stroke="white" stroke-width="1.2" stroke-miterlimit="10" stroke-linecap="round" stroke-linejoin="round"/>
<path d="M95.1733 164.561V177.735C95.1733 178.098 95.3584 178.387 95.6176 178.55L95.7065 178.601C95.9879 178.749 96.3359 178.764 96.6395 178.579L108.354 171.818C109.028 171.426 109.45 170.7 109.45 169.908V156.741C109.45 156.393 109.28 156.105 109.028 155.942L108.888 155.853C108.614 155.727 108.273 155.72 107.984 155.89L105.577 157.282L105.074 157.571L102.941 158.807L96.2767 162.658C95.588 163.051 95.1733 163.784 95.1733 164.561Z" fill="#12FE74" stroke="white" stroke-width="1.2" stroke-miterlimit="10" stroke-linecap="round" stroke-linejoin="round"/>
<path d="M95.1735 164.561V171.307L101.838 167.457C102.519 167.057 102.941 166.338 102.941 165.546V158.807L96.2768 162.658C95.5881 163.051 95.1735 163.784 95.1735 164.561Z" fill="black" stroke="white" stroke-width="1.2" stroke-miterlimit="10" stroke-linecap="round" stroke-linejoin="round"/>
<path d="M73.9575 175.077L22.9584 145.634C20.2334 144.064 18.0266 139.843 18.0266 136.215V95.6789C18.0266 92.0504 20.2334 90.3842 22.9584 91.9541L73.9575 121.397C76.6826 122.967 78.8893 127.188 78.8893 130.816V171.352C78.8819 174.98 76.6752 176.646 73.9575 175.077Z" fill="black" stroke="white" stroke-width="1.2" stroke-miterlimit="10" stroke-linecap="round" stroke-linejoin="round"/>
<path d="M32.148 107.231V105.653C32.148 104.713 31.489 103.565 30.667 103.091L25.3575 100.026C24.5429 99.5516 23.8765 99.9367 23.8765 100.877V112C23.8765 112.94 24.5355 114.088 25.3575 114.562L38.931 122.396C39.7456 122.87 40.4121 122.485 40.4121 121.545V115.413C40.4121 114.473 39.753 113.325 38.931 112.851L33.6216 109.785C32.8145 109.326 32.148 108.179 32.148 107.231Z" fill="black" stroke="white" stroke-width="1.2" stroke-miterlimit="10" stroke-linecap="round" stroke-linejoin="round"/>
<path d="M64.7604 126.062V124.485C64.7604 123.544 64.1013 122.396 63.2793 121.923L57.9699 118.857C57.1554 118.383 56.4889 118.768 56.4889 119.708V130.831C56.4889 131.771 57.1479 132.919 57.9699 133.393L71.5435 141.228C72.358 141.702 73.0245 141.317 73.0245 140.376V134.245C73.0245 133.304 72.3654 132.156 71.5435 131.682L66.234 128.617C65.4194 128.15 64.7604 127.002 64.7604 126.062Z" fill="#12FE74" stroke="white" stroke-width="1.2" stroke-miterlimit="10" stroke-linecap="round" stroke-linejoin="round"/>
<path d="M45.8773 121.419L51.0313 124.396" stroke="white" stroke-width="1.2" stroke-miterlimit="10" stroke-linecap="round" stroke-linejoin="round"/>
<path d="M49.7134 125.159L51.0315 124.396L49.7134 122.108" stroke="white" stroke-width="1.2" stroke-miterlimit="10" stroke-linecap="round" stroke-linejoin="round"/>
<path d="M69.2924 147.418L73.0246 149.573" stroke="white" stroke-width="1.2" stroke-miterlimit="10" stroke-linecap="round" stroke-linejoin="round"/>
<path d="M49.7135 136.111L65.1606 145.034" stroke="white" stroke-width="1.2" stroke-miterlimit="10" stroke-linecap="round" stroke-linejoin="round"/>
<path d="M33.6812 126.854L45.2554 133.541" stroke="white" stroke-width="1.2" stroke-miterlimit="10" stroke-linecap="round" stroke-linejoin="round"/>
<path d="M23.8843 121.204L27.9571 123.552" stroke="white" stroke-width="1.2" stroke-miterlimit="10" stroke-linecap="round" stroke-linejoin="round"/>
<path d="M60.5767 149.877L73.0247 157.06" stroke="white" stroke-width="1.2" stroke-miterlimit="10" stroke-linecap="round" stroke-linejoin="round"/>
<path d="M41.3752 138.792L55.9411 147.196" stroke="white" stroke-width="1.2" stroke-miterlimit="10" stroke-linecap="round" stroke-linejoin="round"/>
<path d="M23.8843 128.691L36.8581 136.185" stroke="white" stroke-width="1.2" stroke-miterlimit="10" stroke-linecap="round" stroke-linejoin="round"/>
<path d="M69.8032 162.695L73.0244 164.554" stroke="white" stroke-width="1.2" stroke-miterlimit="10" stroke-linecap="round" stroke-linejoin="round"/>
<path d="M49.7135 151.091L65.6049 160.266" stroke="white" stroke-width="1.2" stroke-miterlimit="10" stroke-linecap="round" stroke-linejoin="round"/>
<path d="M32.1484 140.954L45.2555 148.522" stroke="white" stroke-width="1.2" stroke-miterlimit="10" stroke-linecap="round" stroke-linejoin="round"/>
<path d="M23.8843 136.185L27.2536 138.132" stroke="white" stroke-width="1.2" stroke-miterlimit="10" stroke-linecap="round" stroke-linejoin="round"/>
<path d="M213 154.61C213 155.44 212.835 156.274 212.508 157.09C211.675 159.164 209.791 161.133 206.846 162.745C198.648 167.236 185.352 167.236 177.154 162.745C174.209 161.137 172.322 159.164 171.492 157.09C171.165 156.274 171 155.44 171 154.61C171 151.667 173.049 148.728 177.15 146.481C185.349 141.991 198.644 141.991 206.843 146.481C210.948 148.728 213 151.667 213 154.61Z" fill="black" stroke="white" stroke-width="1.2" stroke-miterlimit="10" stroke-linecap="round" stroke-linejoin="round"/>
<path d="M186.566 157.565C186.662 157.469 186.794 157.414 186.93 157.414H199.541C199.773 157.414 199.885 157.692 199.723 157.854L197.233 160.343C197.137 160.44 197.005 160.495 196.869 160.495H184.259C184.026 160.495 183.915 160.217 184.077 160.055L186.566 157.565Z" fill="black" stroke="white" stroke-width="1.2" stroke-miterlimit="10" stroke-linecap="round" stroke-linejoin="round"/>
<path d="M186.566 148.265C186.667 148.169 186.799 148.113 186.93 148.113H199.541C199.773 148.113 199.885 148.392 199.723 148.554L197.233 151.043C197.137 151.139 197.005 151.195 196.869 151.195H184.259C184.026 151.195 183.915 150.917 184.077 150.755L186.566 148.265Z" fill="black" stroke="white" stroke-width="1.2" stroke-miterlimit="10" stroke-linecap="round" stroke-linejoin="round"/>
<path d="M197.238 152.885C197.142 152.789 197.01 152.733 196.874 152.733H184.259C184.026 152.733 183.915 153.012 184.077 153.174L186.566 155.663C186.662 155.759 186.794 155.815 186.93 155.815H199.541C199.773 155.815 199.885 155.537 199.723 155.375L197.238 152.885Z" fill="black" stroke="white" stroke-width="1.2" stroke-miterlimit="10" stroke-linecap="round" stroke-linejoin="round"/>
<path d="M132.058 204.153C132.058 205.077 131.87 206.004 131.498 206.911C130.55 209.218 128.406 211.408 125.054 213.201C115.723 218.195 100.59 218.195 91.2587 213.201C87.9071 211.412 85.7591 209.218 84.8146 206.911C84.4427 206.004 84.2546 205.077 84.2546 204.153C84.2546 200.881 86.5865 197.613 91.2545 195.114C100.586 190.12 115.718 190.12 125.05 195.114C129.722 197.613 132.058 200.881 132.058 204.153Z" fill="black" stroke="white" stroke-width="1.2" stroke-miterlimit="10" stroke-linecap="round" stroke-linejoin="round"/>
<path d="M119.881 197.383L118.125 200.927L114.335 208.566L105.601 205.633L111.986 201.943H111.991L119.881 197.383Z" fill="black" stroke="white" stroke-width="1.2" stroke-miterlimit="10" stroke-linecap="round" stroke-linejoin="round"/>
<path d="M119.881 197.383L111.991 201.943H111.986L105.601 205.633L103.328 203.372L100.519 200.589L119.881 197.383Z" fill="black" stroke="white" stroke-width="1.2" stroke-miterlimit="10" stroke-linecap="round" stroke-linejoin="round"/>
<path d="M112.142 209.833L109.062 210.046L104.126 210.388L97.118 210.877L96.4326 210.927L103.407 206.899L103.704 206.995L105.601 207.63L112.142 209.833Z" fill="black" stroke="white" stroke-width="1.2" stroke-miterlimit="10" stroke-linecap="round" stroke-linejoin="round"/>
<path d="M103.407 206.899L96.4326 210.923L98.3257 201.855L103.407 206.899Z" fill="black" stroke="white" stroke-width="1.2" stroke-miterlimit="10" stroke-linecap="round" stroke-linejoin="round"/>
<path d="M155.612 173.06C155.624 173.305 155.475 173.553 155.179 173.81L153.128 174.996L152.692 174.745V170.896L154.782 172.105C155.327 172.415 155.601 172.732 155.612 173.06Z" fill="black" stroke="white" stroke-width="1.2" stroke-miterlimit="10" stroke-linecap="round" stroke-linejoin="round"/>
<path d="M139.803 185.059L136.484 186.978C135.186 186.228 134 185.535 134 185.535V181.686C134 181.686 136.199 182.966 137.89 183.944C138.891 184.529 139.718 185.011 139.803 185.059Z" fill="black" stroke="white" stroke-width="1.2" stroke-miterlimit="10" stroke-linecap="round" stroke-linejoin="round"/>
<path d="M137.901 189.508V193.357L135.001 191.683V187.834L137.901 189.508Z" fill="black" stroke="white" stroke-width="1.2" stroke-miterlimit="10" stroke-linecap="round" stroke-linejoin="round"/>
<path d="M143.102 192.51V196.357L140.202 194.683V190.836L141.232 191.432L143.102 192.51Z" fill="black" stroke="white" stroke-width="1.2" stroke-miterlimit="10" stroke-linecap="round" stroke-linejoin="round"/>
<path d="M172.406 179.442C172.257 179.262 172.095 179.091 171.918 178.917C171.43 178.446 170.823 177.945 170.096 177.428C169.97 177.34 169.839 177.243 169.702 177.155L174.45 174.414L171.55 172.735L169.257 174.064L168.214 174.66L166.933 175.404C166.506 175.153 165.873 174.802 165.04 174.343C164.903 174.266 164.755 174.183 164.598 174.098L169.257 171.412L166.352 169.732L161.604 172.478C161.182 172.247 155.784 169.113 155.784 169.113L152.698 170.901L154.789 172.11C155.33 172.421 155.604 172.735 155.616 173.063C155.627 173.308 155.479 173.556 155.182 173.813L153.132 174.999L142.182 181.321C141.438 181.632 140.759 181.606 140.126 181.244L138.036 180.04L134.004 181.691C134.004 181.691 136.202 182.972 137.893 183.95C138.894 184.534 139.721 185.016 139.807 185.065L136.487 186.984L135.005 187.842L137.905 189.516L139.376 188.664L142.652 186.776C143.166 187.087 143.927 187.531 144.934 188.11L142.652 189.428L140.203 190.845L141.232 191.441L143.103 192.519L144.497 191.709L147.905 189.744C148.989 190.309 149.995 190.788 150.931 191.167C151.866 191.544 152.85 191.857 153.868 192.108C154.891 192.359 155.869 192.502 156.799 192.53C157.729 192.559 158.692 192.47 159.693 192.262C160.689 192.054 161.678 191.72 162.659 191.256C163.666 190.774 164.441 190.283 164.977 189.779C165.114 189.653 165.24 189.528 165.348 189.396C165.605 189.08 165.77 188.758 165.841 188.438C165.858 188.361 165.87 188.284 165.884 188.207V187.814C165.841 187.129 165.473 186.431 164.775 185.704C164.686 185.61 164.584 185.513 164.484 185.418C164.703 185.461 164.926 185.495 165.14 185.521C167.695 185.866 169.916 185.373 171.818 184.038C172.092 183.847 172.331 183.651 172.534 183.454C172.89 183.109 173.141 182.758 173.284 182.393C173.386 182.136 173.438 181.88 173.438 181.617C173.438 181.295 173.361 180.973 173.198 180.645C173.007 180.232 172.739 179.832 172.406 179.442ZM158.419 186.756C158.259 187.067 157.948 187.352 157.495 187.614C157.381 187.68 157.264 187.74 157.144 187.794C156.893 187.914 156.631 188.002 156.357 188.068C155.946 188.162 155.541 188.222 155.142 188.233C154.737 188.25 154.301 188.216 153.831 188.13C153.36 188.048 152.932 187.951 152.539 187.845C152.151 187.731 151.717 187.583 151.233 187.392C150.745 187.201 150.335 187.021 149.992 186.861C149.867 186.801 149.736 186.742 149.599 186.67C149.359 186.551 149.105 186.419 148.817 186.271C148.37 186.032 148.025 185.849 147.788 185.712C147.549 185.575 147.252 185.396 146.896 185.182C146.539 184.968 146.311 184.831 146.211 184.777L152.579 181.096C152.681 181.155 152.984 181.327 153.491 181.603C154.004 181.883 154.409 182.116 154.723 182.293C155.028 182.473 155.413 182.715 155.898 183.032C155.921 183.049 155.946 183.06 155.969 183.08C156.482 183.42 156.893 183.725 157.195 183.978C157.409 184.164 157.617 184.372 157.826 184.603C157.908 184.697 157.994 184.794 158.076 184.894C158.367 185.239 158.536 185.561 158.59 185.846C158.638 186.143 158.587 186.445 158.419 186.756ZM165.99 180.893C165.83 181.167 165.542 181.423 165.126 181.66C164.946 181.763 164.769 181.857 164.578 181.928C164.393 182.005 164.196 182.071 163.993 182.119C163.594 182.222 163.184 182.262 162.762 182.245C162.345 182.228 161.94 182.191 161.558 182.136C161.17 182.082 160.754 181.971 160.295 181.808C159.836 181.649 159.442 181.498 159.114 181.366C159.049 181.344 158.989 181.312 158.918 181.284C158.638 181.164 158.327 181.016 157.977 180.83C157.54 180.599 157.215 180.425 156.993 180.306C156.771 180.186 156.48 180.021 156.117 179.798C155.755 179.584 155.539 179.453 155.479 179.416L161.216 176.111L161.265 176.082C161.319 176.111 161.444 176.185 161.641 176.296C161.749 176.351 161.872 176.422 162.017 176.505C162.434 176.736 162.779 176.927 163.055 177.083C163.335 177.232 163.68 177.454 164.105 177.739C164.521 178.024 164.86 178.281 165.111 178.495C165.362 178.714 165.605 178.971 165.838 179.276C166.069 179.573 166.195 179.849 166.215 180.097C166.229 180.351 166.158 180.619 165.99 180.893Z" fill="#12FE74" stroke="white" stroke-width="1.2" stroke-miterlimit="10" stroke-linecap="round" stroke-linejoin="round"/>
<path d="M166.211 180.1C166.229 180.351 166.157 180.619 165.992 180.893C165.832 181.167 165.544 181.423 165.128 181.66C164.948 181.763 164.771 181.857 164.58 181.928C164.438 181.82 164.275 181.708 164.104 181.589C163.682 181.304 163.337 181.081 163.055 180.933C162.781 180.779 162.436 180.588 162.017 180.354C161.606 180.123 161.35 179.978 161.267 179.932L161.218 176.114L161.267 176.085C161.321 176.114 161.447 176.188 161.643 176.299C161.752 176.353 161.874 176.425 162.02 176.507C162.436 176.738 162.781 176.929 163.058 177.086C163.337 177.234 163.682 177.457 164.107 177.742C164.523 178.027 164.863 178.284 165.114 178.498C165.365 178.717 165.607 178.974 165.841 179.279C166.066 179.578 166.191 179.852 166.211 180.1Z" fill="black" stroke="white" stroke-width="1.2" stroke-miterlimit="10" stroke-linecap="round" stroke-linejoin="round"/>
<path d="M161.267 179.935L158.92 181.286C158.64 181.167 158.33 181.018 157.979 180.833C157.543 180.602 157.218 180.428 156.995 180.308C156.773 180.189 156.482 180.023 156.12 179.801C155.758 179.587 155.541 179.456 155.481 179.419L161.218 176.114L161.267 179.935Z" fill="black" stroke="white" stroke-width="1.2" stroke-miterlimit="10" stroke-linecap="round" stroke-linejoin="round"/>
<path d="M152.581 181.095V184.951L149.601 186.673C149.361 186.553 149.108 186.422 148.82 186.274C148.372 186.034 148.027 185.852 147.79 185.715C147.551 185.578 147.254 185.398 146.898 185.185C146.541 184.971 146.313 184.834 146.213 184.78L152.581 181.095Z" fill="black" stroke="white" stroke-width="1.2" stroke-miterlimit="10" stroke-linecap="round" stroke-linejoin="round"/>
<path d="M158.418 186.756C158.258 187.067 157.947 187.352 157.494 187.614C157.38 187.68 157.263 187.74 157.143 187.794C156.847 187.537 156.453 187.252 155.969 186.93C155.455 186.59 155.039 186.328 154.722 186.148C154.406 185.963 154.001 185.732 153.491 185.458C152.983 185.179 152.681 185.005 152.578 184.951V181.095C152.681 181.155 152.983 181.326 153.491 181.603C154.004 181.882 154.409 182.116 154.722 182.293C155.027 182.473 155.412 182.715 155.897 183.032C155.92 183.049 155.946 183.06 155.969 183.08C156.482 183.419 156.892 183.725 157.195 183.978C157.409 184.164 157.617 184.372 157.825 184.603C157.908 184.697 157.993 184.794 158.076 184.894C158.367 185.239 158.535 185.561 158.589 185.846C158.638 186.143 158.586 186.445 158.418 186.756Z" fill="black" stroke="white" stroke-width="1.2" stroke-miterlimit="10" stroke-linecap="round" stroke-linejoin="round"/>
<path d="M174.45 174.411V178.261L172.405 179.442C172.257 179.262 172.094 179.091 171.917 178.917C171.43 178.446 170.822 177.944 170.095 177.428C169.97 177.34 169.839 177.243 169.702 177.155L174.45 174.411Z" fill="black" stroke="white" stroke-width="1.2" stroke-miterlimit="10" stroke-linecap="round" stroke-linejoin="round"/>
<path d="M169.254 171.409V174.061L168.21 174.657L166.93 175.401C166.502 175.15 165.869 174.799 165.037 174.34C164.9 174.263 164.751 174.18 164.595 174.095L169.254 171.409Z" fill="black" stroke="white" stroke-width="1.2" stroke-miterlimit="10" stroke-linecap="round" stroke-linejoin="round"/>
<path d="M173.437 181.609V185.458C173.437 185.721 173.383 185.977 173.283 186.234C173.058 186.807 172.568 187.355 171.818 187.879C170.101 189.083 168.131 189.607 165.884 189.445V187.808C165.841 187.124 165.473 186.425 164.774 185.698C164.686 185.604 164.583 185.507 164.483 185.413C164.703 185.455 164.925 185.49 165.139 185.515C167.694 185.86 169.916 185.367 171.818 184.032C172.091 183.841 172.331 183.645 172.533 183.448C172.89 183.103 173.141 182.752 173.283 182.387C173.383 182.128 173.437 181.871 173.437 181.609Z" fill="black" stroke="white" stroke-width="1.2" stroke-miterlimit="10" stroke-linecap="round" stroke-linejoin="round"/>
<path d="M165.884 188.196V192.045C165.872 192.122 165.861 192.199 165.841 192.276C165.627 193.24 164.566 194.181 162.658 195.094C161.675 195.558 160.688 195.892 159.693 196.1C158.692 196.308 157.728 196.397 156.798 196.368C155.869 196.34 154.894 196.203 153.867 195.952C152.849 195.701 151.865 195.387 150.93 195.005C149.995 194.623 148.988 194.153 147.904 193.588L143.102 196.357V192.507L144.497 191.698L147.904 189.733C148.988 190.297 149.995 190.776 150.93 191.156C151.865 191.532 152.849 191.846 153.867 192.097C154.891 192.348 155.869 192.49 156.798 192.519C157.728 192.547 158.692 192.459 159.693 192.251C160.688 192.043 161.677 191.709 162.658 191.244C163.665 190.762 164.441 190.272 164.977 189.767C165.114 189.642 165.239 189.516 165.347 189.385C165.604 189.068 165.769 188.746 165.841 188.427C165.858 188.353 165.869 188.276 165.884 188.196Z" fill="black" stroke="white" stroke-width="1.2" stroke-miterlimit="10" stroke-linecap="round" stroke-linejoin="round"/>
<path d="M144.93 188.102L142.649 189.419L140.199 190.837V192.028L137.901 193.357V189.508L139.373 188.655L142.649 186.767C143.162 187.078 143.924 187.523 144.93 188.102Z" fill="black" stroke="white" stroke-width="1.2" stroke-miterlimit="10" stroke-linecap="round" stroke-linejoin="round"/>
</svg>
