<svg width="223" height="223" viewBox="0 0 223 223" fill="none" xmlns="http://www.w3.org/2000/svg">
<path d="M173.027 70.4597C173.027 71.3789 172.575 72.3049 171.655 72.8331L99.3077 114.484C97.6134 115.465 95.5212 115.465 93.8201 114.484L52.0385 90.3592C51.1194 89.8311 50.6666 88.9119 50.6666 87.9859C50.6666 87.0598 51.1194 86.1406 52.0385 85.6124L124.386 43.9613C126.081 42.9804 128.173 42.9804 129.874 43.9613L171.655 68.0794C172.575 68.6076 173.027 69.5337 173.027 70.4597Z" fill="black" stroke="white" stroke-width="1.2" stroke-miterlimit="10" stroke-linecap="round" stroke-linejoin="round"/>
<path d="M173.027 173.353C173.027 174.272 172.575 175.198 171.655 175.726L99.3077 217.378C97.6134 218.359 95.5212 218.359 93.8201 217.378L52.0385 193.253C51.1194 192.724 50.6666 191.805 50.6666 190.879C50.6666 189.953 51.1194 189.034 52.0385 188.506L124.386 146.855C126.081 145.874 128.173 145.874 129.874 146.855L171.655 170.973C172.575 171.501 173.027 172.427 173.027 173.353Z" fill="black" stroke="white" stroke-width="1.2" stroke-miterlimit="10" stroke-linecap="round" stroke-linejoin="round"/>
<path d="M159.98 57.4128C159.98 58.1056 159.637 58.8052 158.945 59.2031L151.927 63.2434L98.9579 93.7341C97.4762 94.5915 95.6447 94.5915 94.1631 93.7341L71.7597 80.7969L64.7424 76.743C64.0565 76.352 63.7135 75.6591 63.7135 74.9663C63.7135 74.2735 64.0565 73.5738 64.7424 73.176L124.729 38.645C126.211 37.7876 128.035 37.7876 129.524 38.645L158.951 55.6361C159.637 56.0271 159.98 56.7199 159.98 57.4128Z" fill="black" stroke="white" stroke-width="1.2" stroke-miterlimit="10" stroke-linecap="round" stroke-linejoin="round"/>
<path d="M144.937 59.3542L132.583 66.4676L98.9647 85.8183C97.6889 86.5455 96.166 86.6484 94.8215 86.1202C94.5952 86.0379 94.3757 85.935 94.1631 85.8115L88.1266 82.3269L78.7496 76.9147C77.2542 76.0504 77.2542 73.8896 78.7564 73.0253L88.1266 67.6337L94.8215 63.7786L116.848 51.0953L119.729 49.4422L124.729 46.5612C126.211 45.7106 128.035 45.7106 129.524 46.568L132.583 48.3309L144.937 55.4648C146.433 56.3291 146.433 58.4899 144.937 59.3542Z" fill="#12FE74" stroke="white" stroke-width="1.2" stroke-miterlimit="10" stroke-linecap="round" stroke-linejoin="round"/>
<path d="M173.027 70.4597V157.192C173.027 158.118 172.575 159.044 171.655 159.572L99.3077 201.223C97.6134 202.204 95.5212 202.204 93.8201 201.223L52.0385 177.105C51.1194 176.577 50.6666 175.651 50.6666 174.725V87.9859C50.6666 88.9119 51.1194 89.8311 52.0385 90.3592L93.8201 114.484C95.5212 115.465 97.6134 115.465 99.3077 114.484L171.655 72.8331C172.575 72.3049 173.027 71.3789 173.027 70.4597Z" fill="black" stroke="white" stroke-width="1.2" stroke-miterlimit="10" stroke-linecap="round" stroke-linejoin="round"/>
<path d="M78.2351 157.13V157.192C78.2214 160.313 77.1513 162.536 75.409 163.633L75.1072 163.811C73.2757 164.786 70.7925 164.6 68.0487 163.016C62.417 159.764 57.8623 151.869 57.8623 145.366C57.8623 142.231 58.9255 139.988 60.6541 138.884L61.0245 138.671C62.8423 137.725 65.2912 137.91 67.9939 139.453C68.0145 139.46 68.0281 139.474 68.0487 139.481C73.6736 142.725 78.2351 150.627 78.2351 157.13Z" fill="black" stroke="white" stroke-width="1.2" stroke-miterlimit="10" stroke-linecap="round" stroke-linejoin="round"/>
<path d="M86.1374 152.5V152.576C86.1374 155.724 85.0673 157.967 83.3181 159.072L82.9958 159.257L75.4022 163.633C77.1445 162.536 78.2147 160.313 78.2284 157.192V157.13C78.2284 150.627 73.6667 142.725 68.035 139.481C68.0145 139.467 68.0008 139.46 67.9802 139.453C65.2775 137.91 62.8286 137.718 61.0109 138.671L68.5426 134.329L68.9131 134.117C70.7377 133.163 73.214 133.362 75.9304 134.933C75.9853 134.967 76.047 135.001 76.1019 135.036C81.6444 138.315 86.1031 146.08 86.1374 152.5Z" fill="black" stroke="white" stroke-width="1.2" stroke-miterlimit="10" stroke-linecap="round" stroke-linejoin="round"/>
<path d="M67.9183 157.645L56.3256 156.554L54.453 151.135L63.1166 151.67L66.0388 151.855L66.4366 153.09L67.9183 157.645Z" fill="black" stroke="white" stroke-width="1.2" stroke-miterlimit="10" stroke-linecap="round" stroke-linejoin="round"/>
<path d="M75.1071 153.913L67.9183 157.645L66.4366 153.09L66.0388 151.855L63.1166 151.67L54.453 151.135L61.6349 147.397L73.2276 148.117L75.1071 153.913Z" fill="#12FE74" stroke="white" stroke-width="1.2" stroke-miterlimit="10" stroke-linecap="round" stroke-linejoin="round"/>
<path d="M66.0389 151.855L73.2277 148.117" stroke="white" stroke-width="1.2" stroke-miterlimit="10" stroke-linecap="round" stroke-linejoin="round"/>
<path d="M84.2099 130.303L62.616 117.832C62.177 117.578 61.9026 117.112 61.9026 116.604V109.751C61.9026 109.024 62.6914 108.565 63.3225 108.928L84.9164 121.399C85.3554 121.653 85.6297 122.119 85.6297 122.627V129.479C85.6297 130.213 84.8409 130.666 84.2099 130.303Z" fill="black" stroke="white" stroke-width="1.2" stroke-miterlimit="10" stroke-linecap="round" stroke-linejoin="round"/>
<path d="M72.1506 118.682L81.2259 123.923" stroke="white" stroke-width="1.2" stroke-miterlimit="10" stroke-linecap="round" stroke-linejoin="round"/>
<path d="M66.3132 115.307L69.3589 117.07" stroke="white" stroke-width="1.2" stroke-miterlimit="10" stroke-linecap="round" stroke-linejoin="round"/>
<path d="M65.5382 179.437C64.523 178.854 63.7067 177.428 63.7067 176.261V169.388C63.7067 168.215 64.5298 167.742 65.5382 168.332C66.5534 168.915 67.3696 170.342 67.3696 171.508V178.381C67.3696 179.547 66.5534 180.027 65.5382 179.437Z" fill="black" stroke="white" stroke-width="1.2" stroke-miterlimit="10" stroke-linecap="round" stroke-linejoin="round"/>
<path d="M73.7696 184.205C72.7544 183.622 71.9381 182.195 71.9381 181.029V174.155C71.9381 172.982 72.7613 172.509 73.7696 173.099C74.7849 173.682 75.6011 175.109 75.6011 176.275V183.148C75.6011 184.314 74.7849 184.795 73.7696 184.205Z" fill="black" stroke="white" stroke-width="1.2" stroke-miterlimit="10" stroke-linecap="round" stroke-linejoin="round"/>
<path d="M82.0011 188.965C80.9859 188.382 80.1696 186.955 80.1696 185.789V178.916C80.1696 177.743 80.9927 177.27 82.0011 177.86C83.0163 178.443 83.8325 179.869 83.8325 181.036V187.909C83.8325 189.075 83.0163 189.548 82.0011 188.965Z" fill="black" stroke="white" stroke-width="1.2" stroke-miterlimit="10" stroke-linecap="round" stroke-linejoin="round"/>
<path d="M116.258 154.215C116.258 159.908 117.719 164.367 120.223 167.365C121.066 168.38 122.04 169.224 123.117 169.882L123.741 170.239C128.152 172.619 134.147 172.18 140.767 168.359C154.301 160.539 165.276 141.538 165.276 125.912C165.276 118.161 162.573 112.694 158.197 110.108C156.969 109.381 155.611 108.887 154.15 108.626C150.302 107.94 145.706 108.914 140.76 111.768C127.226 119.581 116.258 138.589 116.258 154.215Z" fill="black" stroke="white" stroke-width="1.2" stroke-miterlimit="10" stroke-linecap="round" stroke-linejoin="round"/>
<path d="M109.096 150.072C109.096 157.693 111.71 163.105 115.949 165.746L116.539 166.089L123.11 169.875C122.04 169.21 121.066 168.373 120.216 167.358C117.712 164.367 116.251 159.908 116.251 154.208C116.251 138.575 127.226 119.574 140.76 111.761C145.699 108.908 150.302 107.933 154.15 108.619C155.611 108.88 156.962 109.374 158.197 110.101L151.159 106.033L150.912 105.889C146.481 103.344 140.362 103.715 133.605 107.611C120.072 115.445 109.096 134.453 109.096 150.072Z" fill="#12FE74" stroke="white" stroke-width="1.2" stroke-miterlimit="10" stroke-linecap="round" stroke-linejoin="round"/>
<path d="M130.697 154.702C130.697 158.804 131.746 162.014 133.551 164.175C134.161 164.909 134.861 165.513 135.636 165.993L136.082 166.253C139.258 167.968 143.579 167.653 148.347 164.902C158.094 159.27 166.003 145.579 166.003 134.322C166.003 128.738 164.055 124.801 160.907 122.935C160.022 122.414 159.048 122.057 157.991 121.865C155.22 121.371 151.907 122.071 148.347 124.129C138.599 129.754 130.697 143.445 130.697 154.702Z" fill="black" stroke="white" stroke-width="1.2" stroke-miterlimit="10" stroke-linecap="round" stroke-linejoin="round"/>
<path d="M158.986 135.564C158.986 143.734 152.997 154.098 145.918 158.187C143.826 159.401 142.324 159.648 141.439 159.648C140.863 159.648 140.362 159.545 139.95 159.325L139.717 159.195C139.498 159.051 139.292 158.866 139.114 158.653C138.729 158.2 138.421 157.604 138.201 156.89C137.893 155.937 137.735 154.771 137.735 153.46C137.735 145.284 143.716 134.926 150.795 130.838C151.92 130.193 152.874 129.816 153.649 129.603C154.321 129.425 154.877 129.363 155.288 129.363C155.535 129.363 155.762 129.383 155.981 129.418C156.331 129.479 156.633 129.589 156.907 129.754C158.204 130.529 158.986 132.703 158.986 135.564Z" fill="black" stroke="white" stroke-width="1.2" stroke-miterlimit="10" stroke-linecap="round" stroke-linejoin="round"/>
<path d="M154.109 133.033C154.109 141.209 148.12 151.567 141.041 155.662C139.923 156.307 138.97 156.677 138.195 156.897C137.886 155.943 137.728 154.777 137.728 153.467C137.728 145.291 143.71 134.933 150.789 130.844C151.914 130.2 152.867 129.822 153.642 129.61C153.951 130.549 154.109 131.715 154.109 133.033Z" fill="#12FE74" stroke="white" stroke-width="1.2" stroke-miterlimit="10" stroke-linecap="round" stroke-linejoin="round"/>
<path d="M123.11 150.25C123.11 155.738 124.99 159.641 128.049 161.541L128.475 161.788L135.643 165.986C134.868 165.506 134.168 164.902 133.557 164.168C131.753 162.014 130.704 158.797 130.704 154.695C130.704 143.432 138.606 129.747 148.36 124.115C151.921 122.064 155.234 121.358 158.005 121.852C159.054 122.037 160.035 122.394 160.92 122.922L153.416 118.525L153.237 118.422C150.048 116.584 145.637 116.858 140.774 119.664C131.013 125.309 123.11 139.001 123.11 150.25Z" fill="black" stroke="white" stroke-width="1.2" stroke-miterlimit="10" stroke-linecap="round" stroke-linejoin="round"/>
<path d="M158.883 94.2074C158.883 95.6479 159.322 96.6768 160.042 97.1844L160.056 97.1982L160.358 97.3697L164.432 99.7088C163.918 99.3521 163.547 98.721 163.376 97.8773C163.3 97.5274 163.266 97.1364 163.266 96.718C163.266 93.9193 164.974 90.661 167.073 89.44C167.197 89.3646 167.32 89.3028 167.444 89.2479C168.185 88.9187 168.87 88.8981 169.419 89.1725L165.18 86.7236L165.111 86.6893C164.46 86.3532 163.616 86.4081 162.697 86.9363C160.584 88.1436 158.883 91.4019 158.883 94.2074Z" fill="black" stroke="white" stroke-width="1.2" stroke-miterlimit="10" stroke-linecap="round" stroke-linejoin="round"/>
<path d="M163.252 96.7112C163.252 97.1296 163.287 97.5206 163.362 97.8705C163.534 98.7142 163.904 99.3453 164.419 99.7019C164.439 99.7225 164.467 99.75 164.494 99.7568L164.686 99.8666C165.338 100.182 166.161 100.114 167.06 99.5991C169.172 98.3712 170.867 95.1129 170.867 92.3211C170.867 90.8806 170.414 89.8379 169.7 89.3303C169.687 89.3166 169.68 89.3097 169.652 89.296L169.405 89.1588C168.857 88.8913 168.171 88.9119 167.43 89.2343C167.306 89.2892 167.183 89.344 167.06 89.4264C164.961 90.6542 163.252 93.9125 163.252 96.7112Z" fill="#12FE74" stroke="white" stroke-width="1.2" stroke-miterlimit="10" stroke-linecap="round" stroke-linejoin="round"/>
<path d="M104.946 181.619C104.946 183.059 105.385 184.088 106.106 184.596L106.119 184.61L106.421 184.781L110.496 187.12C109.981 186.763 109.611 186.132 109.439 185.289C109.364 184.939 109.33 184.548 109.33 184.129C109.33 181.331 111.038 178.072 113.137 176.851C113.26 176.776 113.384 176.714 113.507 176.659C114.248 176.33 114.934 176.309 115.483 176.584L111.243 174.135L111.175 174.101C110.523 173.765 109.679 173.819 108.76 174.348C106.654 175.555 104.946 178.813 104.946 181.619Z" fill="black" stroke="white" stroke-width="1.2" stroke-miterlimit="10" stroke-linecap="round" stroke-linejoin="round"/>
<path d="M109.323 184.129C109.323 184.548 109.357 184.939 109.433 185.289C109.604 186.132 109.974 186.763 110.489 187.12C110.509 187.141 110.537 187.168 110.564 187.175L110.756 187.285C111.408 187.6 112.231 187.532 113.13 187.017C115.242 185.789 116.937 182.531 116.937 179.739C116.937 178.299 116.484 177.256 115.771 176.749C115.757 176.735 115.75 176.728 115.723 176.714L115.476 176.577C114.927 176.31 114.241 176.33 113.5 176.653C113.377 176.707 113.253 176.762 113.13 176.845C111.031 178.072 109.323 181.331 109.323 184.129Z" fill="black" stroke="white" stroke-width="1.2" stroke-miterlimit="10" stroke-linecap="round" stroke-linejoin="round"/>
<path d="M159.98 57.4131V69.0743C159.98 69.7671 159.637 70.4668 158.945 70.8647L98.9579 105.396C97.4762 106.253 95.6447 106.253 94.1631 105.396L64.7424 88.4045C64.0565 88.0135 63.7135 87.3207 63.7135 86.6279V74.9667C63.7135 75.6595 64.0565 76.3523 64.7424 76.7433L71.7597 80.7973L94.1631 93.7344C95.6447 94.5919 97.4762 94.5919 98.9579 93.7344L151.927 63.2437L158.945 59.2034C159.637 58.8056 159.98 58.1059 159.98 57.4131Z" fill="black" stroke="white" stroke-width="1.2" stroke-miterlimit="10" stroke-linecap="round" stroke-linejoin="round"/>
<path d="M132.583 10.5348V66.4676L98.9647 85.8184C97.6889 86.5455 96.166 86.6484 94.8215 86.1202V32.3345C94.8284 31.1546 95.2194 29.8787 95.8367 28.8087C96.3443 27.9169 97.0097 27.1761 97.7437 26.7508L125.888 10.5005L129.668 8.31918C130.34 7.92818 130.965 7.88017 131.458 8.10653L131.692 8.23687L131.712 8.2506C132.254 8.64845 132.59 9.44413 132.583 10.5348Z" fill="black" stroke="white" stroke-width="1.2" stroke-miterlimit="10" stroke-linecap="round" stroke-linejoin="round"/>
<path d="M107.834 31.3261L125.923 20.8858C126.808 20.3714 127.528 18.9995 127.528 17.8128C127.528 16.6261 126.808 16.0842 125.923 16.5986L107.834 27.0388C106.949 27.5533 106.229 28.9252 106.229 30.1119C106.229 31.2986 106.949 31.8405 107.834 31.3261Z" fill="black" stroke="white" stroke-width="1.2" stroke-miterlimit="10" stroke-linecap="round" stroke-linejoin="round"/>
<path d="M102.106 42.9256L125.923 29.1791C126.808 28.6646 127.528 27.2927 127.528 26.106C127.528 24.9193 126.808 24.3774 125.923 24.8918L102.106 38.6384C101.222 39.1529 100.501 40.5248 100.501 41.7115C100.501 42.8982 101.222 43.4401 102.106 42.9256Z" fill="black" stroke="white" stroke-width="1.2" stroke-miterlimit="10" stroke-linecap="round" stroke-linejoin="round"/>
<path d="M114.694 43.9545L125.923 37.4723C126.808 36.9578 127.528 35.5859 127.528 34.3992C127.528 33.2125 126.808 32.6706 125.923 33.185L114.694 39.6673C113.809 40.1818 113.089 41.5537 113.089 42.7404C113.089 43.9202 113.809 44.4622 114.694 43.9545Z" fill="black" stroke="white" stroke-width="1.2" stroke-miterlimit="10" stroke-linecap="round" stroke-linejoin="round"/>
<path d="M106.545 56.9463L125.923 45.7584C126.808 45.2439 127.528 43.872 127.528 42.6853C127.528 41.4986 126.808 40.9567 125.923 41.4712L106.545 52.6591C105.66 53.1736 104.939 54.5455 104.939 55.7322C104.939 56.9189 105.66 57.4608 106.545 56.9463Z" fill="black" stroke="white" stroke-width="1.2" stroke-miterlimit="10" stroke-linecap="round" stroke-linejoin="round"/>
<path d="M112.039 70.9605C111.545 71.2418 111.058 71.3104 110.681 71.0977L107.656 69.3485C106.908 68.9164 106.908 67.5102 107.656 66.2069C108.403 64.9036 109.624 64.2039 110.372 64.636L112.039 65.5964L116.93 57.1248C117.678 55.8215 118.899 55.1218 119.646 55.554C120.394 55.9861 120.394 57.3923 119.646 58.6957L113.397 69.52C113.027 70.1785 112.533 70.6793 112.039 70.9605Z" fill="#12FE74" stroke="white" stroke-width="1.2" stroke-miterlimit="10" stroke-linecap="round" stroke-linejoin="round"/>
<path d="M131.458 8.10647C130.965 7.8801 130.34 7.92812 129.668 8.31911L125.888 10.5004L97.7437 26.7507C97.0097 27.176 96.3443 27.9168 95.8367 28.8086C95.2194 29.8787 94.8284 31.1546 94.8215 32.3344V86.1201C94.5951 86.0378 94.3757 85.9349 94.163 85.8114L88.1266 82.3268V28.4725C88.1334 27.2926 88.5176 26.0167 89.1349 24.9467C89.6494 24.0618 90.3148 23.3141 91.0488 22.8957L122.973 4.46405C123.673 4.05934 124.311 4.01818 124.818 4.27198L124.894 4.32001L131.458 8.10647Z" fill="#12FE74" stroke="white" stroke-width="1.2" stroke-miterlimit="10" stroke-linecap="round" stroke-linejoin="round"/>
</svg>
