<svg width="223" height="223" viewBox="0 0 223 223" fill="none" xmlns="http://www.w3.org/2000/svg">
<path d="M207.333 163.439C207.333 164.597 206.761 165.761 205.613 166.42L115.926 218.204C113.085 219.842 109.581 219.842 106.741 218.204L17.0539 166.42C15.9052 165.761 15.3333 164.597 15.3333 163.439C15.3333 162.28 15.9052 161.117 17.0539 160.453L106.741 108.669C109.581 107.031 113.085 107.031 115.926 108.669L205.613 160.453C206.761 161.117 207.333 162.276 207.333 163.439Z" fill="black" stroke="white" stroke-width="1.2" stroke-miterlimit="10" stroke-linecap="round"/>
<path d="M207.333 61.0726C207.333 62.231 206.761 63.3943 205.613 64.0534L115.926 115.838C113.085 117.476 109.581 117.476 106.741 115.838L17.0539 64.0534C15.9052 63.3943 15.3333 62.231 15.3333 61.0726C15.3333 59.9142 15.9052 58.7509 17.0539 58.0869L106.741 6.30266C109.581 4.66441 113.085 4.66441 115.926 6.30266L205.613 58.0869C206.761 58.7557 207.333 59.9142 207.333 61.0726Z" fill="black" stroke="white" stroke-width="1.2" stroke-miterlimit="10" stroke-linecap="round" stroke-linejoin="round"/>
<path d="M178.397 61.0724C178.397 61.8818 177.995 62.6913 177.19 63.1517L160.28 72.9182L153.848 76.6309L114.539 99.3289C112.552 100.473 110.105 100.473 108.122 99.3289L68.809 76.6309L62.3772 72.9182L45.4663 63.1517C44.6666 62.6913 44.2643 61.8818 44.2643 61.0724C44.2643 60.2629 44.6666 59.4487 45.4663 58.9834L108.122 22.811C110.105 21.6672 112.552 21.6672 114.539 22.811L177.19 58.9834C177.995 59.4487 178.397 60.2629 178.397 61.0724Z" fill="black" stroke="white" stroke-width="1.2" stroke-miterlimit="10" stroke-linecap="round" stroke-linejoin="round"/>
<path d="M160.28 72.9183L153.848 76.631L114.539 99.3291C112.552 100.473 110.105 100.473 108.122 99.3291L68.809 76.631L62.3772 72.9183L108.122 46.5076C110.105 45.3637 112.552 45.3637 114.539 46.5076L160.28 72.9183Z" fill="#12FE74" stroke="white" stroke-width="1.2" stroke-miterlimit="10" stroke-linecap="round" stroke-linejoin="round"/>
<path d="M79.7193 75.0413C80.849 75.0413 81.7647 74.5118 81.7647 73.8586C81.7647 73.2055 80.849 72.676 79.7193 72.676C78.5897 72.676 77.6738 73.2055 77.6738 73.8586C77.6738 74.5118 78.5897 75.0413 79.7193 75.0413Z" fill="#4C917E"/>
<path d="M87.0769 70.7906C88.2065 70.7906 89.1222 70.2611 89.1222 69.6079C89.1222 68.9548 88.2065 68.4253 87.0769 68.4253C85.9472 68.4253 85.0315 68.9548 85.0315 69.6079C85.0315 70.2611 85.9472 70.7906 87.0769 70.7906Z" fill="#4C917E"/>
<path d="M87.0769 79.2872C88.2065 79.2872 89.1222 78.7577 89.1222 78.1045C89.1222 77.4514 88.2065 76.9219 87.0769 76.9219C85.9472 76.9219 85.0315 77.4514 85.0315 78.1045C85.0315 78.7577 85.9472 79.2872 87.0769 79.2872Z" fill="#4C917E"/>
<path d="M131.227 70.7906C132.357 70.7906 133.273 70.2611 133.273 69.6079C133.273 68.9548 132.357 68.4253 131.227 68.4253C130.098 68.4253 129.182 68.9548 129.182 69.6079C129.182 70.2611 130.098 70.7906 131.227 70.7906Z" fill="#4C917E"/>
<path d="M131.227 79.2872C132.357 79.2872 133.273 78.7577 133.273 78.1045C133.273 77.4514 132.357 76.9219 131.227 76.9219C130.098 76.9219 129.182 77.4514 129.182 78.1045C129.182 78.7577 130.098 79.2872 131.227 79.2872Z" fill="#4C917E"/>
<path d="M138.585 75.0413C139.715 75.0413 140.63 74.5118 140.63 73.8586C140.63 73.2055 139.715 72.676 138.585 72.676C137.455 72.676 136.54 73.2055 136.54 73.8586C136.54 74.5118 137.455 75.0413 138.585 75.0413Z" fill="#4C917E"/>
<path d="M207.333 61.0725V151.913C207.333 153.071 206.761 154.235 205.613 154.899L115.926 206.678C113.085 208.321 109.581 208.321 106.741 206.678L17.0539 154.899C15.9052 154.235 15.3333 153.071 15.3333 151.913V61.0725C15.3333 62.2309 15.9052 63.3942 17.0539 64.0534L106.741 115.838C109.581 117.476 113.085 117.476 115.926 115.838L205.613 64.0534C206.761 63.3942 207.333 62.2358 207.333 61.0725Z" fill="black" stroke="white" stroke-width="1.2" stroke-miterlimit="10" stroke-linecap="round"/>
<path d="M25.2549 97.5016C25.2549 100.55 25.9335 103.812 27.121 106.997C27.407 107.763 28.071 108.349 28.5653 108.267L31.0615 107.845C31.5025 107.772 31.6334 107.191 31.391 106.512C30.6446 104.447 30.223 102.344 30.223 100.371C30.223 94.2348 34.2943 91.5496 39.495 94.0118C40.0185 94.259 40.4257 94.007 40.4257 93.4011V89.9793C40.4257 89.3055 39.9313 88.4767 39.3497 88.1907C31.4735 84.2793 25.2549 88.2586 25.2549 97.5016Z" fill="#12FE74" stroke="white" stroke-width="1.2" stroke-miterlimit="10" stroke-linecap="round" stroke-linejoin="round"/>
<path d="M41.7925 119.817C41.7295 119.196 41.2932 118.503 40.7843 118.227C40.6631 118.164 40.5468 118.096 40.4256 118.028C38.1233 116.7 36.0003 114.592 34.2894 112.125C33.8774 111.528 33.3006 111.243 32.9565 111.485L30.9596 112.881C30.5719 113.152 30.6155 113.962 31.0711 114.64C33.6496 118.46 36.8971 121.726 40.4256 123.762C40.6873 123.912 40.9442 124.053 41.1962 124.189C41.7875 124.494 42.2287 124.145 42.156 123.428L41.7925 119.817Z" fill="black" stroke="white" stroke-width="1.2" stroke-miterlimit="10" stroke-linecap="round" stroke-linejoin="round"/>
<path d="M49.5136 116.85C48.5442 118.489 46.9883 119.39 45.0883 119.419C44.6279 119.424 44.4098 119.923 44.6037 120.587L45.7185 124.416C45.9366 125.168 46.5716 125.822 47.095 125.832C50.1292 125.866 52.5913 124.436 54.0697 121.785C54.3265 121.324 54.0697 120.447 53.5269 119.885L50.764 117.015C50.2842 116.511 49.7463 116.453 49.5136 116.85Z" fill="#12FE74" stroke="white" stroke-width="1.2" stroke-miterlimit="10" stroke-linecap="round" stroke-linejoin="round"/>
<path d="M44.0802 92.6352L43.3143 95.5046C43.1786 96.0087 43.4598 96.7648 43.9542 97.2543C47.8511 101.156 50.6284 107.079 50.6284 112.149C50.6284 112.27 50.6283 112.391 50.6235 112.512C50.609 113.094 50.9918 113.816 51.5007 114.18L54.4476 116.283C55.0244 116.695 55.5528 116.501 55.5819 115.847C55.5916 115.576 55.6013 115.294 55.6013 115.013C55.6013 107.355 51.3311 98.3739 45.384 92.5722C44.8217 92.039 44.2304 92.0778 44.0802 92.6352Z" fill="black" stroke="white" stroke-width="1.2" stroke-miterlimit="10" stroke-linecap="round" stroke-linejoin="round"/>
<path d="M97.7644 139.408C97.7644 136.359 97.0858 133.097 95.8983 129.913C95.6124 129.147 94.9483 128.56 94.454 128.643L91.9579 129.064C91.5168 129.137 91.3858 129.719 91.6282 130.397C92.3746 132.462 92.7964 134.566 92.7964 136.538C92.7964 142.675 88.7249 145.36 83.5242 142.898C83.0007 142.65 82.5936 142.902 82.5936 143.508V146.93C82.5936 147.604 83.088 148.433 83.6696 148.719C91.541 152.635 97.7644 148.651 97.7644 139.408Z" fill="black" stroke="white" stroke-width="1.2" stroke-miterlimit="10" stroke-linecap="round" stroke-linejoin="round"/>
<path d="M81.2268 117.093C81.2898 117.713 81.7261 118.406 82.235 118.683C82.3562 118.746 82.4725 118.813 82.5937 118.881C84.896 120.209 87.0189 122.318 88.7298 124.785C89.1418 125.381 89.7186 125.667 90.0627 125.425L92.0597 124.029C92.4474 123.757 92.4038 122.948 91.9482 122.269C89.3697 118.45 86.1222 115.183 82.5937 113.147C82.332 112.997 82.075 112.857 81.823 112.721C81.2317 112.416 80.7906 112.765 80.8633 113.482L81.2268 117.093Z" fill="#12FE74" stroke="white" stroke-width="1.2" stroke-miterlimit="10" stroke-linecap="round" stroke-linejoin="round"/>
<path d="M73.5056 120.059C74.475 118.421 76.0308 117.519 77.9308 117.49C78.3912 117.485 78.6093 116.986 78.4155 116.322L77.3006 112.493C77.0825 111.742 76.4477 111.087 75.9242 111.078C72.89 111.044 70.4278 112.474 68.9495 115.125C68.6926 115.585 68.9495 116.463 69.4924 117.025L72.2551 119.894C72.7301 120.398 73.2681 120.456 73.5056 120.059Z" fill="black" stroke="white" stroke-width="1.2" stroke-miterlimit="10" stroke-linecap="round" stroke-linejoin="round"/>
<path d="M78.939 144.274L79.7049 141.405C79.8406 140.901 79.5595 140.145 79.0651 139.655C75.1682 135.753 72.3909 129.83 72.3909 124.76C72.3909 124.639 72.3909 124.518 72.3957 124.397C72.4103 123.815 72.0273 123.093 71.5184 122.73L68.5716 120.626C67.9948 120.214 67.4665 120.408 67.4374 121.062C67.4277 121.334 67.418 121.615 67.418 121.896C67.418 129.554 71.6881 138.535 77.6353 144.337C78.1927 144.87 78.7888 144.831 78.939 144.274Z" fill="#12FE74" stroke="white" stroke-width="1.2" stroke-miterlimit="10" stroke-linecap="round" stroke-linejoin="round"/>
<path d="M47.6718 142.602L33.1796 134.236C32.0454 133.582 31.1245 131.822 31.1245 130.31C31.1245 128.798 32.0454 128.1 33.1796 128.754L47.6718 137.12C48.8059 137.774 49.7268 139.534 49.7268 141.046C49.7268 142.563 48.8059 143.256 47.6718 142.602Z" fill="black" stroke="white" stroke-width="1.2" stroke-miterlimit="10" stroke-linecap="round" stroke-linejoin="round"/>
<path d="M51.5201 154.2L29.3262 141.385C28.192 140.731 27.2711 138.972 27.2711 137.459C27.2711 135.947 28.192 135.249 29.3262 135.903L51.5201 148.714C52.6543 149.368 53.5752 151.127 53.5752 152.64C53.5752 154.162 52.6543 154.855 51.5201 154.2Z" fill="#12FE74" stroke="white" stroke-width="1.2" stroke-miterlimit="10" stroke-linecap="round" stroke-linejoin="round"/>
<path d="M43.7603 159.101L37.0861 155.247C35.9519 154.593 35.031 152.834 35.031 151.321C35.031 149.809 35.9519 149.111 37.0861 149.765L43.7603 153.619C44.8944 154.273 45.8153 156.033 45.8153 157.545C45.8153 159.057 44.8944 159.755 43.7603 159.101Z" fill="black" stroke="white" stroke-width="1.2" stroke-miterlimit="10" stroke-linecap="round" stroke-linejoin="round"/>
<path d="M92.0692 168.363L73.1178 157.419C72.003 156.774 71.1016 155.049 71.1016 153.566C71.1016 152.082 72.003 151.399 73.1178 152.044L92.0692 162.988C93.184 163.633 94.0855 165.353 94.0855 166.841C94.0855 168.324 93.184 169.003 92.0692 168.363Z" fill="black" stroke="white" stroke-width="1.2" stroke-miterlimit="10" stroke-linecap="round" stroke-linejoin="round"/>
<path d="M87.2806 174.795L77.9066 169.381C76.7919 168.736 75.8904 167.016 75.8904 165.528C75.8904 164.045 76.7919 163.361 77.9066 164.001L87.2806 169.415C88.3954 170.06 89.2968 171.785 89.2968 173.268C89.2968 174.756 88.3954 175.44 87.2806 174.795Z" fill="#12FE74" stroke="white" stroke-width="1.2" stroke-miterlimit="10" stroke-linecap="round" stroke-linejoin="round"/>
<path d="M89.7815 185.439L75.4057 177.141C74.2909 176.496 73.3894 174.776 73.3894 173.288C73.3894 171.805 74.2909 171.121 75.4057 171.766L89.7815 180.064C90.8963 180.708 91.7979 182.434 91.7979 183.917C91.7979 185.4 90.8963 186.084 89.7815 185.439Z" fill="black" stroke="white" stroke-width="1.2" stroke-miterlimit="10" stroke-linecap="round" stroke-linejoin="round"/>
<path d="M126.618 148.409C126.618 148.409 137.853 129.932 146.747 142.156C155.641 154.38 168.636 143.76 173.783 131.919C178.291 121.557 182.934 105.475 193.883 99.2708V135.041L126.618 173.879V148.409Z" fill="#12FE74" stroke="white" stroke-width="1.2" stroke-miterlimit="10" stroke-linecap="round" stroke-linejoin="round"/>
<path d="M126.618 168.644C126.618 168.644 138.207 161.33 144.993 139.427C151.783 117.524 162.664 102.373 175.659 112.232C183.777 118.392 188.944 119.24 193.883 116.414V135.046L126.618 173.884V168.644Z" fill="black" stroke="white" stroke-width="1.2" stroke-miterlimit="10" stroke-linecap="round" stroke-linejoin="round"/>
<path d="M126.618 125.9V178.721" stroke="white" stroke-width="1.2" stroke-miterlimit="10" stroke-linecap="round"/>
<path d="M129.705 185.657L123.53 189.224C122.605 189.757 121.853 189.19 121.853 187.954V187.949C121.853 186.714 122.605 185.279 123.53 184.741L129.705 181.174C130.631 180.64 131.382 181.207 131.382 182.443V182.448C131.387 183.689 130.636 185.124 129.705 185.657Z" fill="black" stroke="white" stroke-width="1.2" stroke-miterlimit="10" stroke-linecap="round" stroke-linejoin="round"/>
<path d="M149.151 112.891V165.712" stroke="white" stroke-width="1.2" stroke-miterlimit="10" stroke-linecap="round"/>
<path d="M152.239 172.648L146.064 176.215C145.138 176.749 144.387 176.181 144.387 174.946V174.941C144.387 173.705 145.138 172.27 146.064 171.732L152.239 168.165C153.164 167.632 153.916 168.199 153.916 169.435V169.44C153.916 170.68 153.164 172.115 152.239 172.648Z" fill="#12FE74" stroke="white" stroke-width="1.2" stroke-miterlimit="10" stroke-linecap="round" stroke-linejoin="round"/>
<path d="M171.684 99.8813V152.703" stroke="white" stroke-width="1.2" stroke-miterlimit="10" stroke-linecap="round"/>
<path d="M174.772 159.639L168.597 163.206C167.671 163.739 166.92 163.172 166.92 161.936V161.931C166.92 160.695 167.671 159.261 168.597 158.723L174.772 155.155C175.698 154.622 176.449 155.189 176.449 156.425V156.43C176.449 157.671 175.698 159.106 174.772 159.639Z" fill="black" stroke="white" stroke-width="1.2" stroke-miterlimit="10" stroke-linecap="round" stroke-linejoin="round"/>
<path d="M193.883 139.883V87.0615" stroke="white" stroke-width="1.2" stroke-miterlimit="10" stroke-linecap="round"/>
<path d="M197.305 146.63L191.13 150.197C190.204 150.73 189.453 150.163 189.453 148.927V148.922C189.453 147.686 190.204 146.252 191.13 145.714L197.305 142.146C198.231 141.613 198.982 142.18 198.982 143.416V143.421C198.982 144.662 198.231 146.097 197.305 146.63Z" fill="#12FE74" stroke="white" stroke-width="1.2" stroke-miterlimit="10" stroke-linecap="round" stroke-linejoin="round"/>
<path d="M149.422 90.3523L144.464 87.4878" stroke="white" stroke-width="1.2" stroke-miterlimit="10" stroke-linecap="round" stroke-linejoin="round"/>
<path d="M152.408 88.6319L147.45 85.7673" stroke="white" stroke-width="1.2" stroke-miterlimit="10" stroke-linecap="round" stroke-linejoin="round"/>
<path d="M155.389 86.9112L150.431 84.0466" stroke="white" stroke-width="1.2" stroke-miterlimit="10" stroke-linecap="round" stroke-linejoin="round"/>
<path d="M158.375 85.1856L153.411 82.321" stroke="white" stroke-width="1.2" stroke-miterlimit="10" stroke-linecap="round" stroke-linejoin="round"/>
<path d="M161.356 83.4648L156.397 80.6003" stroke="white" stroke-width="1.2" stroke-miterlimit="10" stroke-linecap="round" stroke-linejoin="round"/>
<path d="M164.341 81.7444L159.378 78.8799" stroke="white" stroke-width="1.2" stroke-miterlimit="10" stroke-linecap="round" stroke-linejoin="round"/>
<path d="M66.3323 80.6006L61.3739 83.4651" stroke="white" stroke-width="1.2" stroke-miterlimit="10" stroke-linecap="round" stroke-linejoin="round"/>
<path d="M69.3178 82.321L64.3546 85.1856" stroke="white" stroke-width="1.2" stroke-miterlimit="10" stroke-linecap="round" stroke-linejoin="round"/>
<path d="M72.2987 84.0466L67.3403 86.9112" stroke="white" stroke-width="1.2" stroke-miterlimit="10" stroke-linecap="round" stroke-linejoin="round"/>
<path d="M75.2795 85.7673L70.3212 88.6319" stroke="white" stroke-width="1.2" stroke-miterlimit="10" stroke-linecap="round" stroke-linejoin="round"/>
<path d="M78.2652 87.488L73.3068 90.3526" stroke="white" stroke-width="1.2" stroke-miterlimit="10" stroke-linecap="round" stroke-linejoin="round"/>
<path d="M81.2461 89.2136L76.2877 92.0781" stroke="white" stroke-width="1.2" stroke-miterlimit="10" stroke-linecap="round" stroke-linejoin="round"/>
<path d="M146.684 29.4658L141.726 32.3303" stroke="white" stroke-width="1.2" stroke-miterlimit="10" stroke-linecap="round" stroke-linejoin="round"/>
<path d="M149.67 31.1912L144.706 34.0557" stroke="white" stroke-width="1.2" stroke-miterlimit="10" stroke-linecap="round" stroke-linejoin="round"/>
<path d="M152.651 32.9119L147.692 35.7764" stroke="white" stroke-width="1.2" stroke-miterlimit="10" stroke-linecap="round" stroke-linejoin="round"/>
<path d="M155.631 34.6326L150.673 37.4971" stroke="white" stroke-width="1.2" stroke-miterlimit="10" stroke-linecap="round" stroke-linejoin="round"/>
<path d="M158.617 36.3579L153.659 39.2224" stroke="white" stroke-width="1.2" stroke-miterlimit="10" stroke-linecap="round" stroke-linejoin="round"/>
<path d="M161.598 38.0786L156.64 40.9431" stroke="white" stroke-width="1.2" stroke-miterlimit="10" stroke-linecap="round" stroke-linejoin="round"/>
<path d="M65.3436 41.4471L60.3853 38.5825" stroke="white" stroke-width="1.2" stroke-miterlimit="10" stroke-linecap="round" stroke-linejoin="round"/>
<path d="M68.3293 39.7265L63.366 36.8621" stroke="white" stroke-width="1.2" stroke-miterlimit="10" stroke-linecap="round" stroke-linejoin="round"/>
<path d="M71.3102 38.0059L66.3518 35.1414" stroke="white" stroke-width="1.2" stroke-miterlimit="10" stroke-linecap="round" stroke-linejoin="round"/>
<path d="M74.2959 36.2805L69.3326 33.416" stroke="white" stroke-width="1.2" stroke-miterlimit="10" stroke-linecap="round" stroke-linejoin="round"/>
<path d="M77.2767 34.5598L72.3184 31.6953" stroke="white" stroke-width="1.2" stroke-miterlimit="10" stroke-linecap="round" stroke-linejoin="round"/>
<path d="M80.2574 32.8391L75.2991 29.9746" stroke="white" stroke-width="1.2" stroke-miterlimit="10" stroke-linecap="round" stroke-linejoin="round"/>
<path d="M108.888 75.0459L136.419 34.0994L91.8755 35.7328L108.888 75.0459Z" stroke="white" stroke-width="1.2" stroke-miterlimit="10" stroke-linecap="round" stroke-linejoin="round"/>
<path d="M125.28 62.9433C125.28 63.2535 125.091 63.554 124.703 63.777L110.429 72.0167C109.576 72.5111 108.088 72.4481 107.104 71.881L93.31 63.9175C92.8059 63.6267 92.5297 63.2584 92.4957 62.9046V62.7737C92.52 62.478 92.709 62.2066 93.0725 61.9982L107.347 53.7585C108.2 53.2641 109.688 53.3271 110.672 53.8942L124.466 61.8576C125.004 62.1678 125.28 62.5653 125.28 62.9433Z" fill="black" stroke="white" stroke-width="1.2" stroke-miterlimit="10" stroke-linecap="round" stroke-linejoin="round"/>
<path d="M125.28 62.9435V83.0242C125.28 83.3344 125.091 83.6349 124.703 83.8579L110.429 92.0976C109.576 92.592 108.088 92.529 107.104 91.9619L93.31 83.9936C92.8059 83.7028 92.5297 83.3344 92.4957 82.9806V62.8999C92.5297 63.2537 92.801 63.6221 93.31 63.9129L107.104 71.8764C108.088 72.4434 109.576 72.5065 110.429 72.0121L124.703 63.7724C125.091 63.5543 125.28 63.2537 125.28 62.9435Z" fill="black" stroke="white" stroke-width="1.2" stroke-miterlimit="10" stroke-linecap="round" stroke-linejoin="round"/>
<path d="M105.519 76.9073V85.5784C105.519 85.811 105.403 86.0049 105.229 86.1164L105.17 86.1503C104.986 86.2472 104.758 86.2521 104.555 86.1357L96.8483 81.6863C96.4024 81.4294 96.1261 80.9496 96.1261 80.431V71.7647C96.1261 71.5369 96.2376 71.3479 96.4024 71.2364L96.4993 71.1831C96.6787 71.1007 96.8968 71.0959 97.0955 71.2073L98.6804 72.1234L99.01 72.3124L104.807 75.6567C105.248 75.9136 105.519 76.3887 105.519 76.9073Z" fill="black" stroke="white" stroke-width="1.2" stroke-miterlimit="10" stroke-linecap="round" stroke-linejoin="round"/>
<path d="M105.519 76.9073V83.3439L99.7224 79.9996C99.2765 79.7428 99.0002 79.2629 99.0002 78.7442V72.3076L104.797 75.6519C105.248 75.9137 105.519 76.3887 105.519 76.9073Z" fill="#12FE74" stroke="white" stroke-width="1.2" stroke-miterlimit="10" stroke-linecap="round" stroke-linejoin="round"/>
<path d="M112.257 76.9073V85.5784C112.257 85.811 112.373 86.0049 112.548 86.1164L112.606 86.1503C112.79 86.2472 113.018 86.2521 113.221 86.1357L120.928 81.6863C121.374 81.4294 121.65 80.9496 121.65 80.431V71.7647C121.65 71.5369 121.539 71.3479 121.374 71.2364L121.277 71.1831C121.098 71.1007 120.879 71.0959 120.681 71.2073L119.096 72.1234L118.766 72.3124L112.969 75.6567C112.533 75.9136 112.257 76.3887 112.257 76.9073Z" fill="black" stroke="white" stroke-width="1.2" stroke-miterlimit="10" stroke-linecap="round" stroke-linejoin="round"/>
<path d="M112.257 76.9073V83.3439L118.054 79.9996C118.499 79.7428 118.776 79.2629 118.776 78.7442V72.3076L112.979 75.6519C112.533 75.9137 112.257 76.3887 112.257 76.9073Z" fill="#12FE74" stroke="white" stroke-width="1.2" stroke-miterlimit="10" stroke-linecap="round" stroke-linejoin="round"/>
<path d="M147.251 28.9617C147.251 29.1701 147.125 29.3688 146.868 29.5143L137.397 34.9816C136.83 35.3063 135.846 35.2675 135.192 34.8894L126.036 29.6063C125.702 29.4124 125.518 29.1701 125.498 28.9327V28.8454C125.513 28.6515 125.639 28.4673 125.881 28.3316L135.352 22.8643C135.919 22.5396 136.903 22.5783 137.557 22.9564L146.713 28.2395C147.067 28.4479 147.251 28.7145 147.251 28.9617Z" fill="black" stroke="white" stroke-width="1.2" stroke-miterlimit="10" stroke-linecap="round" stroke-linejoin="round"/>
<path d="M147.251 28.9616V42.2857C147.251 42.4942 147.125 42.6929 146.868 42.8383L137.397 48.3056C136.83 48.6304 135.846 48.5915 135.192 48.2135L126.036 42.9256C125.702 42.7317 125.518 42.4893 125.498 42.2518V28.9277C125.523 29.1604 125.702 29.4076 126.036 29.6015L135.192 34.8845C135.846 35.2626 136.83 35.3014 137.397 34.9766L146.868 29.5093C147.125 29.3688 147.251 29.1701 147.251 28.9616Z" fill="black" stroke="white" stroke-width="1.2" stroke-miterlimit="10" stroke-linecap="round" stroke-linejoin="round"/>
<path d="M134.135 38.2289V43.9821C134.135 44.1372 134.058 44.2632 133.942 44.3408L133.903 44.365C133.782 44.4281 133.631 44.4329 133.496 44.3553L128.382 41.4036C128.087 41.234 127.902 40.914 127.902 40.5699V34.8166C127.902 34.6664 127.975 34.5404 128.086 34.4677L128.15 34.4289C128.271 34.3707 128.416 34.3708 128.542 34.4435L129.594 35.0493L129.812 35.1754L133.656 37.3952C133.956 37.5697 134.135 37.8896 134.135 38.2289Z" fill="black" stroke="white" stroke-width="1.2" stroke-miterlimit="10" stroke-linecap="round" stroke-linejoin="round"/>
<path d="M138.609 38.2289V43.9821C138.609 44.1372 138.687 44.2632 138.803 44.3408L138.842 44.365C138.963 44.4281 139.113 44.4329 139.249 44.3553L144.362 41.4036C144.658 41.234 144.842 40.914 144.842 40.5699V34.8166C144.842 34.6664 144.77 34.5404 144.658 34.4677L144.595 34.4289C144.474 34.3707 144.328 34.3708 144.202 34.4435L143.151 35.0493L142.933 35.1754L139.089 37.3952C138.788 37.5697 138.609 37.8896 138.609 38.2289Z" fill="#12FE74" stroke="white" stroke-width="1.2" stroke-miterlimit="10" stroke-linecap="round" stroke-linejoin="round"/>
<path d="M104.429 28.0602C104.429 28.2928 104.288 28.511 104.002 28.6757L93.4506 34.7683C92.8205 35.1318 91.7203 35.0882 90.9932 34.6665L80.7955 28.7775C80.4223 28.5643 80.2187 28.288 80.1945 28.0263V27.9293C80.209 27.7112 80.3495 27.5077 80.6209 27.3526L91.1726 21.26C91.8027 20.8965 92.903 20.9401 93.63 21.3618L103.828 27.2507C104.221 27.4834 104.429 27.7791 104.429 28.0602Z" fill="black" stroke="white" stroke-width="1.2" stroke-miterlimit="10" stroke-linecap="round" stroke-linejoin="round"/>
<path d="M104.429 28.0603V42.9063C104.429 43.139 104.288 43.3571 104.002 43.5219L93.4506 49.6144C92.8205 49.9779 91.7203 49.9343 90.9932 49.5126L80.7955 43.6236C80.4223 43.4104 80.2187 43.1341 80.1945 42.8723V28.0264C80.2187 28.2881 80.4223 28.5595 80.7955 28.7776L90.9932 34.6666C91.7203 35.0883 92.8205 35.1319 93.4506 34.7684L104.002 28.6758C104.288 28.511 104.429 28.2881 104.429 28.0603Z" fill="black" stroke="white" stroke-width="1.2" stroke-miterlimit="10" stroke-linecap="round" stroke-linejoin="round"/>
<path d="M89.8154 38.3839V44.7963C89.8154 44.9708 89.7282 45.1113 89.6022 45.1937L89.5585 45.218C89.4228 45.2907 89.2532 45.2955 89.1029 45.2083L83.403 41.9221C83.0734 41.733 82.8699 41.3793 82.8699 40.9915V34.5839C82.8699 34.4142 82.9522 34.2737 83.0734 34.1913L83.1461 34.1525C83.2818 34.0895 83.4418 34.0847 83.5872 34.1719L84.7601 34.8505L85.0025 34.9911L89.2872 37.463C89.6167 37.6471 89.8154 38.001 89.8154 38.3839Z" fill="black" stroke="white" stroke-width="1.2" stroke-miterlimit="10" stroke-linecap="round" stroke-linejoin="round"/>
<path d="M94.7981 38.3839V44.7963C94.7981 44.9708 94.8853 45.1113 95.0113 45.1937L95.055 45.218C95.1907 45.2907 95.3603 45.2955 95.5106 45.2083L101.211 41.9221C101.54 41.733 101.744 41.3793 101.744 40.9915V34.5839C101.744 34.4142 101.661 34.2737 101.54 34.1913L101.467 34.1525C101.332 34.0895 101.172 34.0847 101.026 34.1719L99.8534 34.8505L99.611 34.9911L95.3264 37.463C95.0017 37.6471 94.7981 38.001 94.7981 38.3839Z" fill="#12FE74" stroke="white" stroke-width="1.2" stroke-miterlimit="10" stroke-linecap="round" stroke-linejoin="round"/>
<path d="M198.711 60.5441C198.711 60.8592 198.653 61.1742 198.536 61.4844C198.236 62.2696 197.562 63.016 196.501 63.6267C193.554 65.328 188.775 65.328 185.828 63.6267C184.771 63.016 184.093 62.2696 183.792 61.4844C183.676 61.1742 183.618 60.8592 183.618 60.5441C183.618 59.4293 184.354 58.3145 185.828 57.4615C188.775 55.7602 193.554 55.7602 196.501 57.4615C197.974 58.3145 198.711 59.4293 198.711 60.5441Z" fill="black" stroke="white" stroke-width="1.2" stroke-miterlimit="10" stroke-linecap="round"/>
<path d="M195.357 53.7585C195.357 51.4417 193.481 49.5659 191.164 49.5659C188.847 49.5659 186.971 51.4417 186.971 53.7585V60.5441C186.971 60.6605 187.005 60.7816 187.068 60.898C187.233 61.1936 187.611 61.4748 188.198 61.7026C189.836 62.3424 192.487 62.3424 194.125 61.7026C194.712 61.4748 195.09 61.1936 195.255 60.898C195.318 60.7816 195.352 60.6653 195.352 60.5441V53.7585H195.357Z" fill="black" stroke="white" stroke-width="1.2" stroke-miterlimit="10" stroke-linecap="round" stroke-linejoin="round"/>
<path d="M191.164 53.8022V62.1874" stroke="white" stroke-width="1.2" stroke-miterlimit="10" stroke-linecap="round" stroke-linejoin="round"/>
<path d="M118.882 107.661C118.882 107.976 118.824 108.291 118.708 108.601C118.407 109.386 117.734 110.132 116.672 110.743C113.725 112.444 108.946 112.444 105.999 110.743C104.943 110.132 104.264 109.386 103.964 108.601C103.847 108.291 103.789 107.976 103.789 107.661C103.789 106.546 104.526 105.431 105.999 104.578C108.946 102.877 113.725 102.877 116.672 104.578C118.146 105.431 118.882 106.546 118.882 107.661Z" fill="black" stroke="white" stroke-width="1.2" stroke-miterlimit="10" stroke-linecap="round"/>
<path d="M115.523 100.87C115.523 98.5535 113.648 96.6777 111.331 96.6777C109.014 96.6777 107.138 98.5535 107.138 100.87V107.656C107.138 107.772 107.172 107.893 107.235 108.01C107.4 108.305 107.778 108.587 108.364 108.814C110.003 109.454 112.654 109.454 114.292 108.814C114.879 108.587 115.257 108.305 115.422 108.01C115.485 107.893 115.518 107.777 115.518 107.656V100.87H115.523Z" fill="black" stroke="white" stroke-width="1.2" stroke-miterlimit="10" stroke-linecap="round" stroke-linejoin="round"/>
<path d="M111.331 100.914V109.299" stroke="white" stroke-width="1.2" stroke-miterlimit="10" stroke-linecap="round" stroke-linejoin="round"/>
<path d="M118.882 14.0915C118.882 14.4066 118.824 14.7216 118.708 15.0318C118.407 15.817 117.734 16.5634 116.672 17.1742C113.725 18.8754 108.946 18.8754 105.999 17.1742C104.943 16.5634 104.264 15.817 103.964 15.0318C103.847 14.7216 103.789 14.4066 103.789 14.0915C103.789 12.9767 104.526 11.8619 105.999 11.0089C108.946 9.3076 113.725 9.3076 116.672 11.0089C118.146 11.8619 118.882 12.9767 118.882 14.0915Z" fill="black" stroke="white" stroke-width="1.2" stroke-miterlimit="10" stroke-linecap="round"/>
<path d="M115.523 7.30586C115.523 4.98904 113.648 3.11328 111.331 3.11328C109.014 3.11328 107.138 4.98904 107.138 7.30586V14.0915C107.138 14.2078 107.172 14.329 107.235 14.4453C107.4 14.741 107.778 15.0221 108.364 15.2499C110.003 15.8897 112.654 15.8897 114.292 15.2499C114.879 15.0221 115.257 14.741 115.422 14.4453C115.485 14.329 115.518 14.2127 115.518 14.0915V7.30586H115.523Z" fill="black" stroke="white" stroke-width="1.2" stroke-miterlimit="10" stroke-linecap="round" stroke-linejoin="round"/>
<path d="M111.331 7.34937V15.7296" stroke="white" stroke-width="1.2" stroke-miterlimit="10" stroke-linecap="round" stroke-linejoin="round"/>
<path d="M38.2397 60.5441C38.2397 60.8592 38.1814 61.1742 38.0651 61.4844C37.7646 62.2696 37.0909 63.016 36.0294 63.6267C33.0825 65.328 28.3035 65.328 25.3566 63.6267C24.3 63.016 23.6214 62.2696 23.3209 61.4844C23.2046 61.1742 23.1464 60.8592 23.1464 60.5441C23.1464 59.4293 23.8831 58.3145 25.3566 57.4615C28.3035 55.7602 33.0825 55.7602 36.0294 57.4615C37.5029 58.3145 38.2397 59.4293 38.2397 60.5441Z" fill="black" stroke="white" stroke-width="1.2" stroke-miterlimit="10" stroke-linecap="round"/>
<path d="M34.8858 53.7585C34.8858 51.4417 33.0099 49.5659 30.6931 49.5659C28.3763 49.5659 26.5006 51.4417 26.5006 53.7585V60.5441C26.5006 60.6605 26.5345 60.7816 26.5975 60.898C26.7623 61.1936 27.1404 61.4748 27.7269 61.7026C29.3651 62.3424 32.0164 62.3424 33.6546 61.7026C34.2411 61.4748 34.6191 61.1936 34.7839 60.898C34.8469 60.7816 34.8809 60.6653 34.8809 60.5441V53.7585H34.8858Z" fill="black" stroke="white" stroke-width="1.2" stroke-miterlimit="10" stroke-linecap="round" stroke-linejoin="round"/>
<path d="M30.693 53.8022V62.1874" stroke="white" stroke-width="1.2" stroke-miterlimit="10" stroke-linecap="round" stroke-linejoin="round"/>
</svg>
