<svg width="75" height="72" viewBox="0 0 75 72" fill="none" xmlns="http://www.w3.org/2000/svg">
<path d="M73.5806 33.2237C73.7789 37.0568 73.4485 40.7578 72.5232 44.2605C69.6153 55.6939 61.2881 64.8141 50.4496 67.9203H50.3835C48.9295 68.3168 42.9815 69.9691 41.4615 70.2334C40.6023 70.3656 39.8753 70.4978 39.2145 70.5639C36.5709 70.9604 35.3152 71.0265 35.3152 71.0265L34.8526 68.1186C21.7009 64.7481 11.3911 52.6538 10.1354 37.3873C9.01187 23.9052 15.3564 11.6787 25.4019 5.26813L25.1375 3.48374L32.3412 2.22805C34.5222 1.50107 37.6283 1.30281 40.0075 1.10454C57.455 -0.349414 71.9945 13.5292 73.5145 32.3645C73.5806 32.6289 73.5806 32.9593 73.5806 33.2237Z" fill="#FFF34B" stroke="white" stroke-width="0.833294" stroke-miterlimit="10"/>
<path d="M72.5226 44.2637C69.6147 55.697 61.2875 64.8173 50.449 67.9235H50.3829C48.9289 68.32 42.9809 69.9722 41.4609 70.2366C40.6017 70.3688 39.8748 70.5009 39.2139 70.567C41.7913 68.6504 57.1239 57.2171 63.0719 46.709L72.5226 44.2637Z" fill="#C19700" stroke="white" stroke-width="0.833294" stroke-miterlimit="10"/>
<path d="M35.3827 71.0884C31.153 71.4188 26.9894 70.8901 23.1562 69.5022C17.6709 67.5857 12.8464 64.149 9.07931 59.5889C-1.75925 45.7764 0.818211 30.9064 2.6687 25.2228C4.58527 19.4069 7.88971 14.3181 12.3177 10.4189C17.1421 6.18919 23.1562 3.41346 29.8973 2.88475C33.4661 2.62039 36.9027 2.95084 40.141 3.87608C53.0284 7.37879 63.0739 19.4069 64.2634 34.4091C64.8582 41.4806 63.3382 48.2877 60.3642 53.9714C55.4076 63.4882 46.2873 70.2292 35.3827 71.0884Z" fill="black" stroke="white" stroke-width="0.833294" stroke-miterlimit="10"/>
<path d="M60.3637 54.0465L53.2261 51.9316C56.2001 47.1072 57.7201 41.2913 57.1914 35.079C56.2662 23.4474 48.5338 14.1288 38.5544 11.3531L40.0744 3.95117C52.9617 7.45388 63.0072 19.482 64.1968 34.4842C64.7916 41.5557 63.3377 48.2968 60.3637 54.0465Z" fill="black" stroke="white" stroke-width="0.833294" stroke-miterlimit="10"/>
<path d="M36.6983 63.2318C36.0374 63.3639 35.3765 63.43 34.7156 63.4961C21.1674 64.6196 9.20531 53.6489 8.01571 38.9772C6.82611 24.3054 16.8716 11.5503 30.4859 10.4929C31.0146 10.4268 31.4772 10.4268 32.0059 10.4268C44.9594 10.2285 56.0623 20.9349 57.2519 35.0118C58.3093 48.8905 49.3212 61.1169 36.6983 63.2318Z" fill="black" stroke="white" stroke-width="0.833294" stroke-miterlimit="10"/>
<path d="M53.2284 51.8593C49.5936 57.8073 43.7117 62.037 36.7062 63.2265C24.0833 62.9622 13.3108 52.388 12.1873 38.5754C11.0638 24.895 19.7214 12.8669 31.9478 10.3555C34.1949 10.2894 36.4419 10.6199 38.5567 11.2147C48.47 13.9904 56.2024 23.3089 57.1938 34.9405C57.7225 41.219 56.2024 47.1009 53.2284 51.8593Z" fill="black" stroke="white" stroke-width="0.833294" stroke-miterlimit="10"/>
<path d="M32.2129 24.1691C32.7416 24.5656 33.3364 24.9622 33.8651 25.4248C34.2617 25.7552 34.4599 25.6892 34.6582 25.2926C35.253 24.3013 35.98 23.376 36.5748 22.3847C36.8391 21.9882 37.0374 21.9221 37.5 22.1864C39.4166 23.5743 39.2183 23.0456 38.0948 24.7639C37.6322 25.4909 37.1696 26.1518 36.707 26.8787C36.4426 27.2092 36.5748 27.4075 36.9052 27.6718C38.4914 28.9275 38.4914 28.9275 39.4827 27.4075C39.9453 26.7466 40.4079 26.0196 40.8705 25.3587C41.1349 24.9622 41.3332 24.9622 41.7297 25.2265C43.448 26.35 43.448 26.35 42.3906 27.8701C41.928 28.531 41.5314 29.2579 41.0027 29.8527C40.6723 30.3154 40.7384 30.5136 41.201 30.9102C44.6376 33.8181 44.902 38.5104 41.6636 40.8235C41.201 41.1539 40.7384 41.3522 40.2097 41.4844C39.8131 41.5505 39.8131 41.7487 39.9453 42.0792C40.9366 44.921 39.8792 47.3002 37.6322 48.622C35.7156 49.7455 33.3364 49.2828 31.2216 47.3663C29.8337 46.1767 29.8337 46.1767 28.9085 47.4324C28.4459 48.0932 27.9832 48.7541 27.5867 49.415C27.3884 49.7455 27.1902 49.7455 26.8597 49.415C25.3397 48.0932 25.3397 48.0932 26.331 46.7054C26.7936 46.0445 27.2563 45.3175 27.7189 44.6566C27.9171 44.3923 27.9172 44.194 27.5867 43.9297C26.1988 42.4757 26.1988 42.4757 25.2075 43.9297C24.811 44.5245 24.3483 45.1193 24.0179 45.7801C23.7536 46.1767 23.5553 46.1767 23.2248 45.8462C21.6387 44.2601 21.7709 44.7888 22.7622 43.2027C23.1588 42.6079 23.4892 42.0131 23.9518 41.4844C24.3484 41.0217 24.2162 40.7574 23.7536 40.3609C22.7622 39.5017 21.9031 38.6426 20.9778 37.7834C20.5813 37.453 20.5813 37.1886 20.9117 36.8582C21.11 36.6599 21.3744 36.5277 21.5065 36.3294C21.837 35.9329 22.1013 35.9329 22.564 36.1973C23.4892 36.6599 24.4144 36.4616 24.9432 35.6025C26.5954 33.1572 28.2476 30.6458 29.8998 28.0683C30.6268 27.0109 30.3624 25.7552 29.305 24.7639C28.9085 24.3674 28.9085 24.1691 29.1728 23.7065C30.2303 22.1864 29.8337 22.3186 31.2877 23.376C31.552 23.7065 31.8825 23.9048 32.2129 24.1691ZM30.0981 41.7487C30.759 42.2774 31.3538 42.8722 32.0147 43.4009C33.1382 44.3262 34.526 44.1279 35.253 43.0705C35.98 42.0131 35.7156 40.493 34.6582 39.5678C33.4686 38.4443 32.2129 37.453 31.0233 36.4616C30.759 36.1973 30.5607 36.1312 30.3624 36.4616C29.7015 37.519 28.9746 38.5104 28.3137 39.5017C28.1154 39.7661 28.1815 39.9643 28.4459 40.1626C28.9085 40.6913 29.5033 41.22 30.0981 41.7487ZM36.2443 31.7032C35.7817 31.3067 35.3191 30.9763 34.8565 30.5797C34.526 30.3154 34.3278 30.3154 34.1295 30.6458C33.4686 31.6371 32.8077 32.6285 32.1468 33.6198C31.9486 33.9503 31.9486 34.1485 32.279 34.4129C33.1382 35.0738 33.9973 35.8007 34.8565 36.5277C36.0461 37.453 37.5661 37.3208 38.2931 36.2634C39.0201 35.1398 38.6235 33.5537 37.4339 32.6285C37.0374 32.298 36.6409 32.0337 36.2443 31.7032Z" fill="#FFF34B" stroke="white" stroke-width="0.833294" stroke-miterlimit="10"/>
</svg>
