<svg width="332" height="178" viewBox="0 0 332 178" fill="none" xmlns="http://www.w3.org/2000/svg">
<path d="M254.619 141.561C254.619 141.561 148.679 157.951 122.243 158.215C121.252 158.215 120.327 158.215 119.534 158.149C98.7819 157.091 95.7418 144.667 95.7418 144.667C95.7418 144.667 85.1676 48.4414 84.6389 41.1717C84.1101 33.8358 87.3485 26.8304 87.3485 26.8304C87.3485 26.8304 91.8425 36.5455 106.118 40.7751C107.77 41.2378 109.554 41.7004 111.471 41.9647C130.042 44.7405 253.033 26.2356 253.033 26.2356L259.51 133.432C259.312 140.107 254.619 141.561 254.619 141.561Z" fill="#12FE64" stroke="white" stroke-width="0.833294" stroke-miterlimit="10" stroke-linecap="round" stroke-linejoin="round"/>
<path fill-rule="evenodd" clip-rule="evenodd" d="M198.087 60.3971C193.455 58.2099 189.83 54.1615 188.243 49.1693C187.896 50.7338 187.755 52.3651 187.831 54.0371C187.891 55.3419 188.088 56.6022 188.398 57.8193C188.398 57.8193 188.398 57.8193 188.398 57.832C188.399 57.8447 188.413 57.8694 188.413 57.8821C188.831 59.5132 189.459 61.0457 190.273 62.4556C188.623 61.3506 187.14 60.0094 185.877 58.4805C184.847 70.9294 189.933 83.6061 198.542 91.717C209.843 103.716 200.919 125.361 184.173 125.568C160.52 126.854 154.872 92.1918 177.322 85.681L177.306 85.6182C183.271 83.3778 185.928 79.3085 186.188 74.1684C177.772 81.6492 163.563 73.5026 165.923 62.3765C133.854 80.0282 148.436 131.862 185.598 129.514C201.799 128.773 215.015 117.43 218.837 102.492C223.422 85.0696 213.895 67.1631 198.087 60.3971Z" fill="#00D856" stroke="black" stroke-width="0.829303" stroke-linejoin="round"/>
<path fill-rule="evenodd" clip-rule="evenodd" d="M202.45 60.397C197.818 58.2098 194.193 54.1614 192.606 49.1692C192.259 50.7337 192.118 52.365 192.194 54.037C192.254 55.3417 192.451 56.6021 192.761 57.8192C192.761 57.8192 192.761 57.8192 192.762 57.8319C192.762 57.8445 192.776 57.8693 192.777 57.882C193.194 59.5131 193.823 61.0456 194.636 62.4555C192.986 61.3505 191.503 60.0093 190.24 58.4804C189.21 70.9292 194.296 83.606 202.906 91.7169C214.206 103.716 205.283 125.361 188.536 125.568C164.883 126.854 159.236 92.1917 181.685 85.6809L181.669 85.6181C187.634 83.3777 190.291 79.3084 190.551 74.1682C182.135 81.6491 167.926 73.5024 170.286 62.3763C138.217 80.028 152.8 131.862 189.961 129.514C206.162 128.773 219.378 117.43 223.201 102.492C227.786 85.0695 218.259 67.163 202.45 60.397Z" fill="black"/>
<path d="M227.849 76.5309L229.897 97.6132C230.096 99.3315 231.616 100.587 233.334 100.389L257.39 97.481C257.39 97.481 260.1 97.481 260.959 95.1018C261.818 92.7887 258.448 59.6782 258.448 59.6782C258.448 59.6782 257.919 56.8364 254.879 56.8364L255.342 64.5027C255.342 64.5027 255.342 64.5688 255.342 64.701C255.408 68.0715 252.83 70.9133 249.46 71.2438L230.492 73.1604C228.906 73.3586 227.65 74.8787 227.849 76.5309Z" fill="black" stroke="white" stroke-width="0.833294" stroke-miterlimit="10"/>
<path d="M122.243 158.224C121.186 158.224 120.327 158.224 119.534 158.158C98.7819 157.1 95.7418 144.675 95.7418 144.675C95.7418 144.675 85.1676 48.4501 84.6389 41.1804C84.1101 33.8445 87.3485 26.8391 87.3485 26.8391C87.3485 26.8391 91.8425 36.5542 106.118 40.7839L108.827 43.6918L122.243 158.224Z" fill="black" stroke="white" stroke-width="0.833294" stroke-miterlimit="10" stroke-linecap="round" stroke-linejoin="round"/>
<path d="M258.782 119.891C240.277 130.862 218.931 141.237 195.667 150.159C193.354 151.019 191.041 151.944 188.728 152.803C98.3185 185.913 14.8483 185.12 2.35756 151.019C-6.43225 126.962 22.3164 92.8605 71.6186 63.1866C76.2448 60.4109 81.0693 57.7012 86.026 54.9916C86.753 61.8648 87.6782 70.7207 88.7356 80.1053L87.7443 80.7001C85.2329 82.2862 82.7876 83.8724 80.4084 85.4585C53.1138 103.831 38.0455 122.799 42.9361 136.083C47.5623 148.772 69.4377 153.662 99.8385 150.952C123.168 148.904 151.454 142.427 180.996 131.588C211.396 120.486 237.898 106.607 257.196 92.7283C281.054 75.5452 293.875 58.2299 289.315 45.8052C286.275 37.478 275.899 32.5214 260.567 30.8692C258.319 30.6048 255.94 30.4726 253.429 30.3405L253.165 26.1769L251.116 21.4185C251.116 21.4185 249.794 21.5506 247.481 21.8811L247.613 14.0165C247.613 14.0165 244.771 10.7121 242.656 10.5138C242.656 10.5138 227.654 10.646 208.092 10.8443C231.554 6.21805 253.231 4.23538 271.669 4.96236C302.401 6.15196 324.012 14.8757 329.96 30.9353C338.75 55.322 309.208 90.0186 258.782 119.891Z" fill="black" stroke="white" stroke-width="0.833294" stroke-miterlimit="10" stroke-linecap="round" stroke-linejoin="round"/>
<path d="M247.348 21.94C244.902 22.2043 241.333 22.667 236.906 23.1957C234.725 23.46 232.345 23.7244 229.768 24.0548C229.041 24.1209 228.314 24.2531 227.521 24.3192C226.794 24.3853 226.133 24.5174 225.406 24.5835C220.251 25.1783 214.501 25.8392 208.487 26.5662C205.712 26.8966 202.936 27.2271 200.028 27.5575C198.971 27.6897 197.979 27.8219 196.922 27.888C195.864 28.0202 194.873 28.1523 193.816 28.2184C190.181 28.6149 186.546 29.0776 182.845 29.4741C180.4 29.7385 177.954 30.0028 175.575 30.3333C172.403 30.6637 169.231 31.0602 166.124 31.3907C150.594 33.109 135.988 34.6951 125.414 35.7525C116.888 36.6117 111.006 37.0743 109.42 37.0082C100.895 36.6117 96.3347 32.2498 98.7138 26.8966C101.027 21.7417 107.636 17.5781 124.753 16.3224C124.819 16.3224 124.819 16.3224 124.819 16.3224C125.612 16.2563 126.405 16.1903 127.198 16.1903C132.485 15.9259 150.924 15.5294 171.808 15.1989C174.65 15.1328 177.558 15.1328 180.466 15.0667C183.638 15.0007 186.876 14.9346 190.049 14.9346C199.499 14.8024 208.752 14.6702 217.079 14.6041C218.665 14.6041 220.185 14.6041 221.639 14.538C221.969 14.538 222.234 14.538 222.498 14.538C225.935 14.4719 229.173 14.4719 232.081 14.4059C232.213 14.4059 232.279 14.4059 232.411 14.4059C235.914 14.3398 238.954 14.3398 241.4 14.2737C241.598 14.2737 241.796 14.2737 241.928 14.2737C242.523 14.2737 243.052 14.2737 243.514 14.2737C243.779 14.2737 244.043 14.2737 244.307 14.2737C244.77 14.2737 245.167 14.2737 245.497 14.2737C245.629 14.2737 245.761 14.2737 245.828 14.2737C245.96 14.2737 246.026 14.2737 246.158 14.2737C246.356 14.2737 246.488 14.2737 246.687 14.2737C246.753 14.2737 246.819 14.2737 246.885 14.2737C247.017 14.2737 247.083 14.2737 247.149 14.2737C247.149 14.2737 247.149 14.2737 247.215 14.2737C247.348 14.2737 247.348 14.2737 247.348 14.2737V21.94Z" fill="#777E90" stroke="white" stroke-width="0.833294" stroke-miterlimit="10" stroke-linecap="round" stroke-linejoin="round"/>
<path d="M125.418 35.6865C116.893 36.5456 111.011 37.0082 109.425 36.9421C100.899 36.5456 96.3392 32.1837 98.7184 26.8306C101.032 21.6756 107.64 17.512 124.757 16.2563C124.823 16.2563 124.824 16.2563 124.824 16.2563L125.418 35.6865Z" fill="#E6E8EC" stroke="white" stroke-width="0.833294" stroke-miterlimit="10" stroke-linecap="round" stroke-linejoin="round"/>
<path d="M208.551 26.5105C214.631 25.7835 220.381 25.1226 225.536 24.5278C226.263 24.4617 226.99 24.3295 227.717 24.2635C228.51 24.1974 229.237 24.0652 229.964 23.9991C232.541 23.6687 234.921 23.4043 237.102 23.14C241.463 22.6112 244.966 22.2147 247.345 21.9504C249.725 21.686 250.98 21.4877 250.98 21.4877L253.029 26.2461C253.029 26.2461 120.058 46.6015 102.743 43.3631C85.4278 40.1248 85.0312 29.4184 88.7983 23.933C91.3757 20.166 95.0106 18.2494 97.522 17.0598C101.752 15.0771 110.806 13.2927 120.323 12.4336C124.883 12.037 149.402 11.6405 175.375 11.3101C178.084 11.3101 180.86 11.244 183.57 11.1779C186.147 11.1779 188.725 11.1118 191.302 11.1118C192.69 11.1118 194.078 11.1118 195.4 11.0457C200.819 10.9796 206.04 10.9135 210.93 10.9135C213.243 10.9135 215.424 10.8474 217.539 10.8474C217.87 10.8474 218.2 10.8474 218.531 10.8474C222.562 10.7813 226.197 10.7813 229.369 10.7153C237.498 10.6492 242.587 10.6492 242.587 10.6492C244.636 10.7813 247.544 14.1519 247.544 14.1519C247.544 14.1519 247.477 14.1519 247.411 14.1519C247.411 14.1519 247.411 14.1519 247.345 14.1519C247.279 14.1519 247.147 14.1519 247.081 14.1519C247.015 14.1519 246.949 14.1519 246.883 14.1519C246.751 14.1519 246.552 14.1519 246.354 14.1519C246.222 14.1519 246.156 14.1519 246.024 14.1519C245.891 14.1519 245.825 14.1519 245.693 14.1519C245.363 14.1519 244.9 14.1519 244.503 14.1519C244.239 14.1519 243.975 14.1519 243.71 14.1519C243.248 14.1519 242.719 14.1519 242.124 14.1519C241.926 14.1519 241.728 14.1519 241.596 14.1519C239.216 14.1519 236.176 14.218 232.608 14.218C232.541 14.218 232.541 14.218 232.475 14.218C229.567 14.2841 226.395 14.2841 222.892 14.3501C222.628 14.3501 222.298 14.3501 222.033 14.3501C220.513 14.3501 218.993 14.4162 217.407 14.4162C209.146 14.5484 199.894 14.6145 190.509 14.7467C187.337 14.8128 184.098 14.8128 180.926 14.8789C178.018 14.9449 175.11 14.9449 172.268 15.011C151.252 15.3415 132.681 15.6719 127.394 16.0024C108.427 17.0598 101.289 21.4216 98.8438 26.7748C96.4646 32.128 101.025 36.4899 109.55 36.8864C113.119 37.0847 138.299 34.4411 166.453 31.2689C169.559 30.9384 172.731 30.5419 175.903 30.2115C178.349 29.9471 180.794 29.6827 183.173 29.4184C186.874 29.0219 190.509 28.5592 194.144 28.1627C195.135 28.0305 196.126 27.8983 197.118 27.8323L208.551 26.5105Z" fill="black" stroke="white" stroke-width="0.833294" stroke-miterlimit="10" stroke-linecap="round" stroke-linejoin="round"/>
<path d="M227.789 24.3182C227.062 24.3843 226.401 24.5165 225.674 24.5825C220.519 25.1773 214.769 25.8382 208.755 26.5652C205.98 26.8957 203.204 27.2261 200.296 27.5565C200.296 27.5565 200.296 27.4905 200.362 27.4905C199.305 27.6226 198.247 27.7548 197.124 27.887L197.19 27.9531C196.132 28.0853 195.141 28.2174 194.084 28.2835C190.449 28.6801 186.814 29.1427 183.113 29.5392C180.668 29.8036 178.222 30.0679 175.843 30.3984C172.671 30.7288 169.499 31.1253 166.392 31.4558V31.3897C166.921 25.3756 168.904 19.8242 172.208 15.1979C172.208 15.1979 172.208 15.1979 172.208 15.1318C173.133 13.8101 174.257 12.5544 175.38 11.3648C178.619 8.06034 182.716 5.54897 187.475 4.09502C189.722 3.36804 192.696 2.4428 195.009 2.31062L199.833 1.45146L202.08 1.05493L202.477 2.83933C208.425 3.96284 213.976 6.80466 218.602 11.0343C219.131 11.497 219.66 12.0257 220.123 12.5544C220.783 13.2153 221.378 13.8762 221.973 14.6031C221.973 14.6031 221.973 14.6031 222.039 14.6692C224.352 17.3128 226.335 20.5511 227.789 24.3182C227.723 24.2521 227.723 24.2521 227.789 24.3182Z" fill="#FFF34B"/>
<path d="M227.789 24.3182C227.062 24.3843 226.401 24.5165 225.674 24.5825C220.519 25.1773 214.769 25.8382 208.755 26.5652C205.98 26.8957 203.204 27.2261 200.296 27.5565C200.296 27.5565 200.296 27.4905 200.362 27.4905C199.305 27.6226 198.247 27.7548 197.124 27.887L197.19 27.9531C196.132 28.0853 195.141 28.2174 194.084 28.2835C190.449 28.6801 186.814 29.1427 183.113 29.5392C180.668 29.8036 178.222 30.0679 175.843 30.3984C172.671 30.7288 169.499 31.1253 166.392 31.4558V31.3897C166.921 25.3756 168.904 19.8242 172.208 15.1979C172.208 15.1979 172.208 15.1979 172.208 15.1318C173.133 13.8101 174.257 12.5544 175.38 11.3648C178.619 8.06034 182.716 5.54897 187.475 4.09502C189.722 3.36804 192.696 2.4428 195.009 2.31062L199.833 1.45146L202.08 1.05493L202.477 2.83933C208.425 3.96284 213.976 6.80466 218.602 11.0343C219.131 11.497 219.66 12.0257 220.123 12.5544C220.783 13.2153 221.378 13.8762 221.973 14.6031C221.973 14.6031 221.973 14.6031 222.039 14.6692C224.352 17.3128 226.335 20.5511 227.789 24.3182ZM227.789 24.3182C227.723 24.2521 227.723 24.2521 227.789 24.3182Z" stroke="white" stroke-width="0.833294" stroke-miterlimit="10"/>
<path d="M237.172 23.2042C234.991 23.4685 232.612 23.7329 230.035 24.0633C229.308 24.1294 228.581 24.2616 227.788 24.3277C227.061 24.3938 226.4 24.526 225.673 24.592C220.518 25.1868 214.768 25.8477 208.754 26.5747C205.978 26.9052 203.203 27.2356 200.295 27.566C200.295 27.566 200.295 27.5 200.361 27.5C199.303 27.6321 198.246 27.7643 197.123 27.8965L197.189 27.9626C196.131 28.0948 195.14 28.2269 194.082 28.293C190.448 28.6896 186.813 29.1522 183.112 29.5487C180.666 29.8131 178.221 30.0774 175.842 30.4079V30.3418C176.305 24.7903 178.023 19.5693 180.865 15.0753C180.865 15.0753 180.865 15.0092 180.931 15.0092C181.724 13.6874 182.649 12.4317 183.64 11.2421C185.094 9.58989 186.68 8.06985 188.465 6.68198C191.175 4.63323 194.215 2.98101 197.651 1.92359C198.378 1.72532 199.171 1.52706 199.898 1.32879C200.625 1.13052 201.418 0.998348 202.145 0.932259C205.45 0.469637 208.688 0.535723 211.926 1.13052C213.579 1.46097 215.165 1.8575 216.751 2.4523C221.509 4.17061 225.871 7.01242 229.572 10.7795C230.167 11.3743 230.696 11.9691 231.224 12.63C231.621 13.0926 232.084 13.6874 232.546 14.3483C232.546 14.3483 232.546 14.3483 232.546 14.4144C233.934 16.397 235.718 19.4371 237.172 23.2042C237.172 23.2042 237.106 23.2042 237.172 23.2042Z" fill="black"/>
<path d="M237.172 23.2042C234.991 23.4685 232.612 23.7329 230.035 24.0633C229.308 24.1294 228.581 24.2616 227.788 24.3277C227.061 24.3938 226.4 24.526 225.673 24.592C220.518 25.1868 214.768 25.8477 208.754 26.5747C205.978 26.9052 203.203 27.2356 200.295 27.566C200.295 27.566 200.295 27.5 200.361 27.5C199.303 27.6321 198.246 27.7643 197.123 27.8965L197.189 27.9626C196.131 28.0948 195.14 28.2269 194.082 28.293C190.448 28.6896 186.813 29.1522 183.112 29.5487C180.666 29.8131 178.221 30.0774 175.842 30.4079V30.3418C176.305 24.7903 178.023 19.5693 180.865 15.0753C180.865 15.0753 180.865 15.0092 180.931 15.0092C181.724 13.6874 182.649 12.4317 183.64 11.2421C185.094 9.58989 186.68 8.06985 188.465 6.68198C191.175 4.63323 194.215 2.98101 197.651 1.92359C198.378 1.72532 199.171 1.52706 199.898 1.32879C200.625 1.13052 201.418 0.998348 202.145 0.932259C205.45 0.469637 208.688 0.535723 211.926 1.13052C213.579 1.46097 215.165 1.8575 216.751 2.4523C221.509 4.17061 225.871 7.01242 229.572 10.7795C230.167 11.3743 230.696 11.9691 231.224 12.63C231.621 13.0926 232.084 13.6874 232.546 14.3483C232.546 14.3483 232.546 14.3483 232.546 14.4144C233.934 16.397 235.718 19.4371 237.172 23.2042ZM237.172 23.2042C237.106 23.2042 237.172 23.2042 237.172 23.2042Z" stroke="white" stroke-width="0.833294" stroke-miterlimit="10"/>
<path d="M192.496 13.0229C192.232 13.2212 191.968 13.4855 191.703 13.6838C191.505 13.882 191.307 14.0142 191.108 14.2125L190.778 14.5429C190.646 14.6751 190.58 14.7412 190.448 14.8734C190.315 15.0056 190.183 15.1377 190.051 15.2699C189.787 15.5343 189.522 15.7986 189.258 16.1291C189.06 16.3934 188.795 16.6578 188.597 16.9221L187.738 18.0456C187.54 18.31 187.341 18.5744 187.143 18.9048C186.945 19.1692 186.813 19.4335 186.614 19.6979L186.086 20.6231C186.02 20.7553 185.954 20.8875 185.887 21.0857L185.491 21.9449C185.293 22.2753 185.16 22.6058 185.028 23.0023C184.764 23.6632 184.5 24.3241 184.235 25.0511L183.773 26.5711C183.707 26.8355 183.64 27.1659 183.574 27.4963C183.508 27.8929 183.376 28.2233 183.31 28.6198C183.244 28.9503 183.178 29.2807 183.112 29.6112C180.666 29.8755 178.221 30.1399 175.842 30.4703C176.305 24.9189 178.023 19.6318 180.865 15.1377C182.847 11.8994 185.425 9.05757 188.399 6.81055L192.496 13.0229C192.496 13.0229 192.496 12.9568 192.496 13.0229Z" fill="black"/>
<path d="M192.496 13.0229C192.232 13.2212 191.968 13.4855 191.703 13.6838C191.505 13.882 191.307 14.0142 191.108 14.2125L190.778 14.5429C190.646 14.6751 190.58 14.7412 190.448 14.8734C190.315 15.0056 190.183 15.1377 190.051 15.2699C189.787 15.5343 189.522 15.7986 189.258 16.1291C189.06 16.3934 188.795 16.6578 188.597 16.9221L187.738 18.0456C187.54 18.31 187.341 18.5744 187.143 18.9048C186.945 19.1692 186.813 19.4335 186.614 19.6979L186.086 20.6231C186.02 20.7553 185.954 20.8875 185.887 21.0857L185.491 21.9449C185.293 22.2753 185.16 22.6058 185.028 23.0023C184.764 23.6632 184.5 24.3241 184.235 25.0511L183.773 26.5711C183.707 26.8355 183.64 27.1659 183.574 27.4963C183.508 27.8929 183.376 28.2233 183.31 28.6198C183.244 28.9503 183.178 29.2807 183.112 29.6112C180.666 29.8755 178.221 30.1399 175.842 30.4703C176.305 24.9189 178.023 19.6318 180.865 15.1377C182.847 11.8994 185.425 9.05757 188.399 6.81055L192.496 13.0229ZM192.496 13.0229C192.496 12.9568 192.496 13.0229 192.496 13.0229Z" stroke="white" stroke-width="0.833294" stroke-miterlimit="10"/>
<path d="M230.037 24.0649C229.31 24.1309 228.583 24.2631 227.79 24.3292C227.063 24.3953 226.402 24.5275 225.675 24.5936C220.521 25.1884 214.771 25.8492 208.757 26.5762C205.981 26.9067 203.205 27.2371 200.297 27.5676C200.297 27.5676 200.297 27.5015 200.363 27.5015C199.306 27.6336 198.249 27.7658 197.125 27.898L197.191 27.9641C196.134 28.0963 195.142 28.2284 194.085 28.2945C190.45 28.6911 186.815 29.1537 183.114 29.5502V29.4841C183.18 29.1537 183.18 28.8893 183.246 28.5589C183.313 28.1624 183.379 27.7658 183.511 27.4354C183.577 27.1049 183.643 26.8406 183.709 26.5101L184.172 24.9901C184.37 24.2631 184.634 23.6022 184.965 22.9413C185.097 22.6109 185.295 22.2144 185.427 21.8839L185.824 21.0248C185.89 20.8926 185.956 20.6943 186.022 20.5621L186.551 19.6369C186.749 19.3725 186.881 19.1082 187.08 18.8438C187.278 18.5795 187.476 18.249 187.674 17.9847L188.534 16.8612C188.732 16.5968 188.996 16.3325 189.194 16.0681C189.459 15.8037 189.723 15.4733 189.988 15.209C190.054 15.1429 190.12 15.0768 190.186 15.0107C190.252 14.9446 190.318 14.8785 190.384 14.8124C190.384 14.8124 190.384 14.8124 190.45 14.7463C190.516 14.6802 190.648 14.5481 190.715 14.482L191.045 14.1515C191.243 13.9533 191.441 13.755 191.64 13.6228C191.904 13.3585 192.168 13.1602 192.433 12.9619L192.499 12.8958C193.226 12.301 194.019 11.7723 194.878 11.3097C195.076 11.1775 195.209 11.1114 195.407 11.0454C195.605 10.9132 195.869 10.781 196.134 10.6488C196.861 10.3184 197.588 9.98793 198.315 9.65749C198.777 9.45922 199.24 9.32704 199.769 9.12878C205.849 7.27829 212.127 8.00527 217.547 10.781C218.406 11.2436 219.265 11.7062 220.124 12.301C221.049 12.8958 221.974 13.6228 222.834 14.3498C222.834 14.3498 222.9 14.3498 222.9 14.4159C225.808 16.9933 228.253 20.2317 230.037 24.0649C230.037 23.9988 229.971 23.9988 230.037 24.0649Z" fill="black"/>
<path d="M230.037 24.0649C229.31 24.1309 228.583 24.2631 227.79 24.3292C227.063 24.3953 226.402 24.5275 225.675 24.5936C220.521 25.1884 214.771 25.8492 208.757 26.5762C205.981 26.9067 203.205 27.2371 200.297 27.5676C200.297 27.5676 200.297 27.5015 200.363 27.5015C199.306 27.6336 198.249 27.7658 197.125 27.898L197.191 27.9641C196.134 28.0963 195.142 28.2284 194.085 28.2945C190.45 28.6911 186.815 29.1537 183.114 29.5502V29.4841C183.18 29.1537 183.18 28.8893 183.246 28.5589C183.313 28.1624 183.379 27.7658 183.511 27.4354C183.577 27.1049 183.643 26.8406 183.709 26.5101L184.172 24.9901C184.37 24.2631 184.634 23.6022 184.965 22.9413C185.097 22.6109 185.295 22.2144 185.427 21.8839L185.824 21.0248C185.89 20.8926 185.956 20.6943 186.022 20.5621L186.551 19.6369C186.749 19.3725 186.881 19.1082 187.08 18.8438C187.278 18.5795 187.476 18.249 187.674 17.9847L188.534 16.8612C188.732 16.5968 188.996 16.3325 189.194 16.0681C189.459 15.8037 189.723 15.4733 189.988 15.209C190.054 15.1429 190.12 15.0768 190.186 15.0107C190.252 14.9446 190.318 14.8785 190.384 14.8124C190.384 14.8124 190.384 14.8124 190.45 14.7463C190.516 14.6802 190.648 14.5481 190.715 14.482L191.045 14.1515C191.243 13.9533 191.441 13.755 191.64 13.6228C191.904 13.3585 192.168 13.1602 192.433 12.9619L192.499 12.8958C193.226 12.301 194.019 11.7723 194.878 11.3097C195.076 11.1775 195.209 11.1114 195.407 11.0454C195.605 10.9132 195.869 10.781 196.134 10.6488C196.861 10.3184 197.588 9.98793 198.315 9.65749C198.777 9.45922 199.24 9.32704 199.769 9.12878C205.849 7.27829 212.127 8.00527 217.547 10.781C218.406 11.2436 219.265 11.7062 220.124 12.301C221.049 12.8958 221.974 13.6228 222.834 14.3498C222.834 14.3498 222.9 14.3498 222.9 14.4159C225.808 16.9933 228.253 20.2317 230.037 24.0649ZM230.037 24.0649C229.971 23.9988 230.037 23.9988 230.037 24.0649Z" stroke="white" stroke-width="0.833294" stroke-miterlimit="10"/>
<path d="M225.612 24.5939C220.457 25.1887 214.708 25.8495 208.693 26.5765C205.918 26.907 203.142 27.2374 200.234 27.5679C200.234 27.5679 200.234 27.5018 200.3 27.5018C199.243 27.6339 198.185 27.7661 197.062 27.8983L197.128 27.9644C196.07 28.0966 195.079 28.2287 194.022 28.2948C190.387 28.6914 186.752 29.154 183.051 29.5505V29.4844C183.117 29.154 183.117 28.8896 183.183 28.5592C183.249 28.1626 183.315 27.7661 183.448 27.4357C183.514 27.1052 183.58 26.8409 183.646 26.5104L184.108 24.9904C184.307 24.2634 184.571 23.6025 184.901 22.9416C185.034 22.6112 185.232 22.2147 185.364 21.8842L185.761 21.0251C185.827 20.8929 185.893 20.6946 185.959 20.5624L186.488 19.6372C186.686 19.3728 186.818 19.1085 187.016 18.8441C187.215 18.5798 187.413 18.2493 187.611 17.985L188.47 16.8615C188.669 16.5971 188.933 16.3328 189.131 16.0684C189.396 15.804 189.66 15.4736 189.924 15.2092C189.99 15.1432 190.056 15.0771 190.122 15.011C190.189 14.9449 190.255 14.8788 190.321 14.8127C190.321 14.8127 190.321 14.8127 190.387 14.7466C190.453 14.6805 190.585 14.5484 190.651 14.4823L190.982 14.1518C191.18 13.9536 191.378 13.7553 191.576 13.6231C191.841 13.3588 192.105 13.1605 192.37 12.9622L192.436 12.8961C193.163 12.3013 193.956 11.7726 194.815 11.31C195.013 11.1778 195.145 11.1117 195.344 11.0457C195.542 10.9135 195.806 10.7813 196.07 10.6491C196.797 10.3187 197.524 9.98823 198.251 9.65779C202.547 8.86472 206.909 9.32734 210.874 10.8474C213.121 11.7065 215.302 12.8961 217.285 14.4162C217.285 14.4162 217.351 14.4162 217.351 14.4823C220.722 16.9936 223.563 20.4303 225.48 24.4617C225.612 24.5278 225.612 24.5278 225.612 24.5939Z" fill="black" stroke="white" stroke-width="0.833294" stroke-miterlimit="10"/>
<path d="M197.063 27.8294C196.6 27.499 196.138 27.1685 195.675 26.8381C195.345 26.5737 195.08 26.6398 194.816 27.0364C194.485 27.499 194.221 27.8955 194.089 28.1599C194.089 28.1599 194.089 28.226 194.023 28.226C195.08 28.0938 196.138 27.9616 197.129 27.8955C197.129 27.8294 197.129 27.8294 197.063 27.8294ZM200.235 27.499C203.077 27.1685 205.919 26.8381 208.695 26.5076L208.628 26.4416C208.1 26.045 207.571 25.7146 206.976 25.318C205.919 24.5911 205.655 23.3354 206.249 22.0136C206.514 21.4849 206.381 21.2866 205.985 21.0223C204.465 20.0309 204.861 19.9649 203.87 21.4849C203.672 21.8153 203.474 22.1458 203.275 22.4762C202.945 23.071 202.548 23.6658 202.218 24.2606C202.02 24.6572 201.821 24.7232 201.425 24.4589C200.5 23.798 199.508 23.1371 198.583 22.4762C198.186 22.2119 197.988 22.2119 197.658 22.6745C196.402 24.7232 196.402 24.1284 198.054 25.318C198.715 25.7807 199.442 26.3094 200.169 26.7059C200.5 26.9042 200.5 27.1024 200.367 27.4329C200.301 27.4329 200.235 27.499 200.235 27.499Z" fill="#FFF34B" stroke="white" stroke-width="0.833294" stroke-miterlimit="10"/>
<path d="M240.807 91.7987C244.129 91.7987 246.821 89.1061 246.821 85.7846C246.821 82.4631 244.129 79.7705 240.807 79.7705C237.486 79.7705 234.793 82.4631 234.793 85.7846C234.793 89.1061 237.486 91.7987 240.807 91.7987Z" fill="#DDFD57" stroke="white" stroke-width="0.833294" stroke-miterlimit="10"/>
</svg>
