<svg width="114" height="14" viewBox="0 0 114 14" fill="none" xmlns="http://www.w3.org/2000/svg">
<path d="M1.152 2.488C1.81333 2.392 2.41067 2.19467 2.944 1.896C3.488 1.59733 3.92 1.24533 4.24 0.839999H6.688L4.512 11H1.056L2.64 3.56H0.912L1.152 2.488ZM11.2714 6.136C11.282 6.08267 11.2927 6.02933 11.3034 5.976C11.314 5.92267 11.3194 5.864 11.3194 5.8C11.3194 5.608 11.282 5.432 11.2074 5.272C11.1434 5.10133 11.01 5.016 10.8074 5.016C10.626 5.016 10.4447 5.096 10.2634 5.256C10.082 5.40533 9.99138 5.608 9.99138 5.864C9.99138 6.03467 10.034 6.17333 10.1194 6.28C10.2154 6.376 10.338 6.456 10.4874 6.52C10.6367 6.584 10.802 6.63733 10.9834 6.68C11.1754 6.72267 11.362 6.76533 11.5434 6.808C11.7994 6.872 12.0394 6.952 12.2634 7.048C12.498 7.13333 12.706 7.25067 12.8874 7.4C13.0687 7.54933 13.2127 7.736 13.3194 7.96C13.426 8.17333 13.4794 8.44 13.4794 8.76C13.4794 9.208 13.3727 9.58667 13.1594 9.896C12.9567 10.1947 12.6687 10.44 12.2954 10.632C11.9327 10.8133 11.5007 10.9413 10.9994 11.016C10.5087 11.0907 9.98071 11.128 9.41538 11.128C8.55138 11.128 7.83671 11.064 7.27138 10.936C6.70604 10.808 6.31137 10.6853 6.08737 10.568L6.42338 8.968H8.58338C8.57271 9.02133 8.56738 9.07467 8.56738 9.128C8.56738 9.17067 8.56738 9.21867 8.56738 9.272C8.56738 9.51733 8.62071 9.71467 8.72738 9.864C8.84471 10.0027 9.04204 10.072 9.31938 10.072C9.62871 10.072 9.84738 9.98667 9.97538 9.816C10.114 9.63467 10.1834 9.46933 10.1834 9.32C10.1834 9.17067 10.1247 9.04267 10.0074 8.936C9.90071 8.81867 9.76204 8.72267 9.59138 8.648C9.42071 8.56267 9.22871 8.49333 9.01538 8.44C8.81271 8.376 8.61538 8.31733 8.42338 8.264C8.28471 8.232 8.12471 8.17867 7.94338 8.104C7.77271 8.02933 7.60738 7.92267 7.44738 7.784C7.28738 7.64533 7.15404 7.46933 7.04738 7.256C6.94071 7.032 6.88737 6.75467 6.88737 6.424C6.88737 5.95467 6.99938 5.56533 7.22338 5.256C7.45804 4.936 7.75671 4.68 8.11938 4.488C8.49271 4.296 8.90871 4.15733 9.36738 4.072C9.83671 3.98667 10.306 3.944 10.7754 3.944C11.362 3.944 11.9167 3.99733 12.4394 4.104C12.962 4.21067 13.3887 4.34933 13.7194 4.52L13.3514 6.136H11.2714ZM14.7673 4.12C15.1619 4.03467 15.5086 3.93867 15.8073 3.832C16.1059 3.72533 16.3779 3.592 16.6233 3.432C16.8793 3.272 17.1193 3.07467 17.3433 2.84C17.5779 2.60533 17.8286 2.31733 18.0953 1.976H19.7433L19.2793 4.12H20.5273L20.3193 5.192H19.0553L18.3993 8.312C18.3459 8.55733 18.3033 8.776 18.2713 8.968C18.2393 9.16 18.2233 9.30933 18.2233 9.416C18.2233 9.62933 18.2979 9.76267 18.4473 9.816C18.6073 9.86933 18.9006 9.896 19.3273 9.896L19.0873 11C19.0126 11.0213 18.8953 11.0373 18.7352 11.048C18.5859 11.0587 18.4153 11.0693 18.2233 11.08C18.0419 11.1013 17.8499 11.112 17.6473 11.112C17.4553 11.1227 17.2846 11.128 17.1353 11.128C16.8686 11.128 16.6073 11.1067 16.3513 11.064C16.0953 11.032 15.8659 10.9627 15.6633 10.856C15.4606 10.7387 15.2953 10.5733 15.1673 10.36C15.0499 10.1467 14.9913 9.85867 14.9913 9.496C14.9913 9.368 14.9966 9.208 15.0073 9.016C15.0286 8.824 15.0659 8.61067 15.1193 8.376L15.7913 5.192H14.5433L14.7673 4.12ZM31.9265 11H28.1825L27.9585 8.456H24.9985L23.8625 11H22.3105L27.0305 0.839999H30.8225L31.9265 11ZM25.5265 7.288H27.8465L27.4785 2.936L25.5265 7.288ZM36.9755 5.144C37.1995 4.93067 37.4502 4.73333 37.7275 4.552C37.9728 4.40267 38.2608 4.264 38.5915 4.136C38.9222 4.008 39.2902 3.944 39.6955 3.944C40.2502 3.944 40.7088 4.088 41.0715 4.376C41.4342 4.65333 41.6155 5.03733 41.6155 5.528C41.6155 5.66667 41.5995 5.83733 41.5675 6.04C41.5355 6.232 41.4982 6.43467 41.4555 6.648C41.4128 6.86133 41.3648 7.08 41.3115 7.304C41.2688 7.51733 41.2315 7.70933 41.1995 7.88L40.5275 11H37.2795L38.1595 6.824C38.1808 6.68533 38.2075 6.54667 38.2395 6.408C38.2715 6.25867 38.2875 6.12533 38.2875 6.008C38.2875 5.848 38.2448 5.72 38.1595 5.624C38.0848 5.51733 37.9675 5.464 37.8075 5.464C37.6155 5.464 37.4288 5.53333 37.2475 5.672C37.0768 5.81067 36.9435 5.928 36.8475 6.024L35.7915 11H32.5275L33.9835 4.12H36.5915L36.8795 5.144H36.9755ZM46.3505 5.144C46.5745 4.93067 46.8252 4.73333 47.1025 4.552C47.3478 4.40267 47.6358 4.264 47.9665 4.136C48.2972 4.008 48.6652 3.944 49.0705 3.944C49.6252 3.944 50.0838 4.088 50.4465 4.376C50.8092 4.65333 50.9905 5.03733 50.9905 5.528C50.9905 5.66667 50.9745 5.83733 50.9425 6.04C50.9105 6.232 50.8732 6.43467 50.8305 6.648C50.7878 6.86133 50.7398 7.08 50.6865 7.304C50.6438 7.51733 50.6065 7.70933 50.5745 7.88L49.9025 11H46.6545L47.5345 6.824C47.5558 6.68533 47.5825 6.54667 47.6145 6.408C47.6465 6.25867 47.6625 6.12533 47.6625 6.008C47.6625 5.848 47.6198 5.72 47.5345 5.624C47.4598 5.51733 47.3425 5.464 47.1825 5.464C46.9905 5.464 46.8038 5.53333 46.6225 5.672C46.4518 5.81067 46.3185 5.928 46.2225 6.024L45.1665 11H41.9025L43.3585 4.12H45.9665L46.2545 5.144H46.3505ZM54.5255 11H51.2775L52.7335 4.12H56.0135L54.5255 11ZM56.4295 2.024C56.4295 2.26933 56.3762 2.48267 56.2695 2.664C56.1735 2.84533 56.0402 3 55.8695 3.128C55.7095 3.256 55.5228 3.352 55.3095 3.416C55.0962 3.48 54.8775 3.512 54.6535 3.512C54.2268 3.512 53.8695 3.41067 53.5815 3.208C53.2935 3.00533 53.1495 2.68533 53.1495 2.248C53.1495 2.01333 53.1975 1.80533 53.2935 1.624C53.3895 1.432 53.5175 1.27733 53.6775 1.16C53.8482 1.032 54.0402 0.936 54.2535 0.872C54.4775 0.807999 54.7068 0.775999 54.9415 0.775999C55.3575 0.775999 55.7095 0.877333 55.9975 1.08C56.2855 1.28267 56.4295 1.59733 56.4295 2.024ZM56.717 4.12H60.109L60.765 8.824L63.101 4.12H64.797L61.165 11H57.821L56.717 4.12ZM67.7068 7.784C67.6641 8.01867 67.6321 8.24267 67.6108 8.456C67.6001 8.66933 67.5948 8.86133 67.5948 9.032C67.5948 9.128 67.6001 9.23467 67.6108 9.352C67.6214 9.46933 67.6428 9.58133 67.6748 9.688C67.7174 9.784 67.7708 9.86933 67.8348 9.944C67.9094 10.008 68.0108 10.04 68.1388 10.04C68.2348 10.04 68.3414 10.008 68.4588 9.944C68.5868 9.88 68.7094 9.78933 68.8268 9.672C68.9548 9.55467 69.0721 9.41067 69.1788 9.24C69.2961 9.06933 69.3868 8.87733 69.4508 8.664H72.0748L71.6588 10.376C71.4454 10.5147 71.2001 10.632 70.9228 10.728C70.6454 10.824 70.3521 10.904 70.0428 10.968C69.7334 11.0213 69.4188 11.0587 69.0988 11.08C68.7788 11.112 68.4748 11.128 68.1868 11.128C67.6534 11.128 67.1574 11.08 66.6988 10.984C66.2401 10.888 65.8401 10.7227 65.4988 10.488C65.1574 10.2533 64.8854 9.944 64.6828 9.56C64.4908 9.16533 64.3948 8.68 64.3948 8.104C64.3948 7.58133 64.4748 7.06933 64.6348 6.568C64.8054 6.06667 65.0828 5.624 65.4668 5.24C65.8614 4.84533 66.3841 4.53067 67.0348 4.296C67.6961 4.06133 68.5174 3.944 69.4988 3.944C70.5654 3.944 71.3654 4.10933 71.8988 4.44C72.4428 4.77067 72.7148 5.288 72.7148 5.992C72.7148 6.28 72.6721 6.59467 72.5868 6.936C72.5014 7.26667 72.3734 7.54933 72.2028 7.784H67.7068ZM69.8348 5.88C69.8348 5.54933 69.7814 5.32533 69.6748 5.208C69.5681 5.09067 69.4401 5.032 69.2908 5.032C69.1201 5.032 68.9601 5.09067 68.8108 5.208C68.6721 5.31467 68.5441 5.464 68.4268 5.656C68.3094 5.83733 68.2028 6.05067 68.1068 6.296C68.0108 6.53067 67.9308 6.78133 67.8668 7.048H69.6908C69.7121 6.92 69.7334 6.78667 69.7548 6.648C69.7761 6.53067 69.7921 6.40267 69.8028 6.264C69.8241 6.12533 69.8348 5.99733 69.8348 5.88ZM74.2648 4.12H76.8728L77.1128 5.32H77.2248C77.4701 4.936 77.7848 4.61067 78.1688 4.344C78.5528 4.07733 79.0594 3.944 79.6888 3.944C79.7314 3.944 79.7954 3.94933 79.8808 3.96C79.9768 3.96 80.0781 3.976 80.1848 4.008C80.3021 4.02933 80.4194 4.06667 80.5368 4.12C80.6648 4.16267 80.7874 4.22667 80.9048 4.312L80.2008 7.608H78.4568C78.4354 6.94667 78.3768 6.488 78.2808 6.232C78.1848 5.96533 78.0301 5.832 77.8168 5.832C77.7101 5.832 77.5928 5.85867 77.4648 5.912C77.3474 5.95467 77.2248 6.056 77.0968 6.216L76.0728 11H72.8087L74.2648 4.12ZM85.6151 6.136C85.6258 6.08267 85.6365 6.02933 85.6471 5.976C85.6578 5.92267 85.6631 5.864 85.6631 5.8C85.6631 5.608 85.6258 5.432 85.5511 5.272C85.4871 5.10133 85.3538 5.016 85.1511 5.016C84.9698 5.016 84.7885 5.096 84.6071 5.256C84.4258 5.40533 84.3351 5.608 84.3351 5.864C84.3351 6.03467 84.3778 6.17333 84.4631 6.28C84.5591 6.376 84.6818 6.456 84.8311 6.52C84.9805 6.584 85.1458 6.63733 85.3271 6.68C85.5191 6.72267 85.7058 6.76533 85.8871 6.808C86.1431 6.872 86.3831 6.952 86.6071 7.048C86.8418 7.13333 87.0498 7.25067 87.2311 7.4C87.4125 7.54933 87.5565 7.736 87.6631 7.96C87.7698 8.17333 87.8231 8.44 87.8231 8.76C87.8231 9.208 87.7165 9.58667 87.5031 9.896C87.3005 10.1947 87.0125 10.44 86.6391 10.632C86.2765 10.8133 85.8445 10.9413 85.3431 11.016C84.8525 11.0907 84.3245 11.128 83.7591 11.128C82.8951 11.128 82.1805 11.064 81.6151 10.936C81.0498 10.808 80.6551 10.6853 80.4311 10.568L80.7671 8.968H82.9271C82.9165 9.02133 82.9111 9.07467 82.9111 9.128C82.9111 9.17067 82.9111 9.21867 82.9111 9.272C82.9111 9.51733 82.9645 9.71467 83.0711 9.864C83.1885 10.0027 83.3858 10.072 83.6631 10.072C83.9725 10.072 84.1911 9.98667 84.3191 9.816C84.4578 9.63467 84.5271 9.46933 84.5271 9.32C84.5271 9.17067 84.4685 9.04267 84.3511 8.936C84.2445 8.81867 84.1058 8.72267 83.9351 8.648C83.7645 8.56267 83.5725 8.49333 83.3591 8.44C83.1565 8.376 82.9591 8.31733 82.7671 8.264C82.6285 8.232 82.4685 8.17867 82.2871 8.104C82.1165 8.02933 81.9511 7.92267 81.7911 7.784C81.6311 7.64533 81.4978 7.46933 81.3911 7.256C81.2845 7.032 81.2311 6.75467 81.2311 6.424C81.2311 5.95467 81.3431 5.56533 81.5671 5.256C81.8018 4.936 82.1005 4.68 82.4631 4.488C82.8365 4.296 83.2525 4.15733 83.7111 4.072C84.1805 3.98667 84.6498 3.944 85.1191 3.944C85.7058 3.944 86.2605 3.99733 86.7831 4.104C87.3058 4.21067 87.7325 4.34933 88.0631 4.52L87.6951 6.136H85.6151ZM89.652 4.712C90.196 4.44533 90.7507 4.25333 91.316 4.136C91.892 4.008 92.532 3.944 93.236 3.944C93.9187 3.944 94.484 3.99733 94.932 4.104C95.38 4.21067 95.7373 4.36533 96.004 4.568C96.2707 4.77067 96.4573 5.01067 96.564 5.288C96.6707 5.56533 96.724 5.88 96.724 6.232C96.724 6.43467 96.708 6.65333 96.676 6.888C96.6547 7.12267 96.628 7.32 96.596 7.48L95.844 11H93.268L92.98 9.976H92.884C92.5427 10.3493 92.1427 10.6373 91.684 10.84C91.236 11.032 90.788 11.128 90.34 11.128C90.084 11.128 89.8333 11.0907 89.588 11.016C89.3427 10.9413 89.124 10.8293 88.932 10.68C88.74 10.52 88.5853 10.3227 88.468 10.088C88.3507 9.84267 88.292 9.54933 88.292 9.208C88.292 8.65333 88.4413 8.216 88.74 7.896C89.0493 7.56533 89.4493 7.32 89.94 7.16C90.4413 6.98933 91.0013 6.88267 91.62 6.84C92.2493 6.79733 92.8787 6.776 93.508 6.776C93.5293 6.66933 93.556 6.52 93.588 6.328C93.62 6.12533 93.636 5.94933 93.636 5.8C93.636 5.608 93.5827 5.432 93.476 5.272C93.38 5.10133 93.172 5.016 92.852 5.016C92.4787 5.016 92.2013 5.128 92.02 5.352C91.8493 5.56533 91.7373 5.82667 91.684 6.136H89.348L89.652 4.712ZM93.332 7.528H93.044C92.7347 7.528 92.468 7.57067 92.244 7.656C92.0307 7.73067 91.8547 7.832 91.716 7.96C91.588 8.088 91.492 8.232 91.428 8.392C91.364 8.552 91.332 8.712 91.332 8.872C91.332 9.128 91.396 9.32 91.524 9.448C91.6627 9.576 91.8227 9.64 92.004 9.64C92.228 9.64 92.4467 9.56 92.66 9.4C92.884 9.24 93.0227 9.02667 93.076 8.76L93.332 7.528ZM98.6241 4.12H101.232L101.472 5.32H101.584C101.829 4.936 102.144 4.61067 102.528 4.344C102.912 4.07733 103.419 3.944 104.048 3.944C104.091 3.944 104.155 3.94933 104.24 3.96C104.336 3.96 104.437 3.976 104.544 4.008C104.661 4.02933 104.779 4.06667 104.896 4.12C105.024 4.16267 105.147 4.22667 105.264 4.312L104.56 7.608H102.816C102.795 6.94667 102.736 6.488 102.64 6.232C102.544 5.96533 102.389 5.832 102.176 5.832C102.069 5.832 101.952 5.85867 101.824 5.912C101.707 5.95467 101.584 6.056 101.456 6.216L100.432 11H97.1681L98.6241 4.12ZM109.079 4.12L109.559 8.824L112.087 4.12H113.783L109.927 11C109.543 11.672 109.153 12.1893 108.759 12.552C108.364 12.9147 107.932 13.1813 107.463 13.352C107.004 13.5227 106.492 13.6187 105.927 13.64C105.372 13.672 104.737 13.688 104.022 13.688L104.262 12.584C104.614 12.584 104.94 12.5787 105.239 12.568C105.548 12.5573 105.793 12.5253 105.975 12.472C106.22 12.408 106.396 12.2907 106.503 12.12C106.609 11.96 106.663 11.72 106.663 11.4C106.663 11.1867 106.641 10.9413 106.599 10.664C106.567 10.3867 106.529 10.0933 106.487 9.784L105.703 4.12H109.079Z" fill="#FB711C"/>
</svg>
