<svg width="32" height="33" viewBox="0 0 32 33" fill="none" xmlns="http://www.w3.org/2000/svg">
<g clip-path="url(#clip0_982_361)">
<path fill-rule="evenodd" clip-rule="evenodd" d="M21.1603 23.1426L23.7736 10.3813C24.0136 9.25788 23.3868 8.81512 22.6668 9.0915L7.24006 15.2199C6.18673 15.6434 6.21355 16.2511 7.06689 16.5275L11.0135 17.798L20.1733 11.8498C20.6 11.5555 21.0002 11.7205 20.6668 12.0161L13.2668 18.9214L12.9735 23.1206C13.1283 23.1221 13.2812 23.0861 13.4201 23.0157C13.559 22.9453 13.6802 22.8423 13.7736 22.715L15.7069 20.7996L19.7069 23.8384C19.8349 23.9534 19.9925 24.0276 20.1606 24.052C20.3288 24.0764 20.5003 24.0499 20.6541 23.9758C20.808 23.9017 20.9377 23.7832 21.0275 23.6346C21.1173 23.4859 21.1636 23.3136 21.1603 23.1385V23.1426ZM32.0002 16.5C32.0002 19.7634 31.0616 22.9535 29.3035 25.6669C27.5454 28.3803 25.0468 30.4952 22.1232 31.744C19.1996 32.9929 15.9824 33.3196 12.8787 32.683C9.77504 32.0463 6.92399 30.4748 4.68635 28.1673C2.44871 25.8597 0.924809 22.9197 0.307445 19.719C-0.309918 16.5183 0.00692503 13.2007 1.21793 10.1857C2.42893 7.17074 4.47997 4.5938 7.11116 2.78076C9.74234 0.967715 12.8357 0 16.0002 0C20.2436 0 24.3134 1.73839 27.314 4.83274C30.3145 7.92709 32.0002 12.1239 32.0002 16.5Z" fill="white"/>
</g>
<defs>
<clipPath id="clip0_982_361">
<rect width="32" height="33" fill="white"/>
</clipPath>
</defs>
</svg>
